<svg xmlns="http://www.w3.org/2000/svg" xmlns:xlink="http://www.w3.org/1999/xlink" version="1.1" x="0px" y="0px" viewBox="0 0 100 125" enable-background="new 0 0 100 100" xml:space="preserve"><path fill-rule="evenodd" clip-rule="evenodd" d="M62.814,24.342c0.467,0.5,1.65,1.55,3.55,3.15c1.467,1.233,2.55,2.367,3.25,3.4  c0.4,0.533,0.85,0.883,1.35,1.05c1.967,0.567,3.067,0.867,3.3,0.9c1.233,0.3,2.333,0.466,3.3,0.5c0.933,0,1.55-0.017,1.85-0.05  c0.633-0.167,1.133-0.583,1.5-1.25c0.2-0.4,0.6-0.6,1.2-0.6c0.667,0,1.167-0.05,1.5-0.15c0.867-0.2,1.934-0.316,3.2-0.35  c1.967-0.1,3.033-0.15,3.2-0.15c0.667,0,1,0.267,1,0.8c0,0.767-0.316,1.033-0.95,0.8c-0.467-0.2-0.934-0.2-1.4,0  c-0.233,0.133-0.6,0.433-1.1,0.9l-3.65,3c-1.6,1.4-2.633,2.75-3.1,4.05c-0.467,1.3-0.567,3.1-0.3,5.4  c0.467-0.133,0.95-0.533,1.45-1.2c0.433-0.667,0.867-1.05,1.3-1.15c-0.1,0.433-0.333,0.95-0.7,1.55l-1,1.35  c-0.767,1.167-1.117,2.067-1.05,2.7c0.167,1.233,0.25,3.1,0.25,5.6c0,2.466,0.083,4.316,0.25,5.55c0.1,0.9,0.25,1.55,0.45,1.95  c0.4,0.7,0.917,1.1,1.55,1.2c0.6,0.133,1.184-0.1,1.75-0.7c1.667-1.833,3-3,4-3.5c1.133-0.534,1.867-1.35,2.2-2.45  c0.267-1.5,0.5-2.7,0.7-3.6l-8.85,8.6v-0.65c1.566-2.1,2.783-3.633,3.65-4.6c1.4-1.633,2.817-2.967,4.25-4c0.6-0.5,1-0.983,1.2-1.45  c0.233-0.466,0.216-1.133-0.05-2c-1.133,1.067-2.833,2.583-5.1,4.55c-1.933,1.733-3.517,3.267-4.75,4.6  c-0.3-0.4-0.383-0.767-0.25-1.1c0.034-0.167,0.2-0.383,0.5-0.65c1.733-1.733,2.8-2.767,3.2-3.1c0.967-0.733,2.1-1.817,3.4-3.25  c1.6-1.767,2.667-2.9,3.2-3.4c0.4-0.4,0.617-0.833,0.65-1.3l0.5-4.8c-1.3,1.2-3.283,2.883-5.95,5.05c-2.3,2.067-4.066,4.05-5.3,5.95  c-0.3-0.8-0.283-1.483,0.05-2.05c0.133-0.3,0.517-0.783,1.15-1.45c4.6-4.6,7.4-7.35,8.4-8.25c1.367-1.267,1.667-2.833,0.9-4.7  c-0.533,0.233-1.267,0.767-2.2,1.6c-0.833,0.833-1.55,1.317-2.15,1.45c-1.333,2.367-2.933,4.083-4.8,5.15  c1.066-2.167,2.617-3.934,4.65-5.3c0.133-0.433,0.433-0.883,0.9-1.35c0.567-0.434,0.967-0.784,1.2-1.05  c0.9-1.033,1.35-1.566,1.35-1.6c0.433-0.7,0.483-1.566,0.15-2.6c2.667,2.3,3.783,5.333,3.35,9.1c-0.7,6.167-1.184,10.067-1.45,11.7  c-0.367,2.1-0.85,5.283-1.45,9.55c-0.233,1.3-0.617,2.2-1.15,2.7c-0.566,0.5-1.55,0.817-2.95,0.95  c-1.633,0.133-3.383-0.017-5.25-0.45c-2.067-0.5-3.217-1.55-3.45-3.15c-0.067-0.567-0.283-0.917-0.65-1.05  c-0.267-0.066-0.7-0.017-1.3,0.15c-3.533,1.066-6.1,2.767-7.7,5.1c-1.267,1.967-2.833,2.667-4.7,2.1c-0.833-0.2-1.4,0.167-1.7,1.1  c-0.534,1.533-0.883,2.433-1.05,2.7c-0.467,1.033-0.983,1.883-1.55,2.55c-2.033,2.133-4.217,2.883-6.55,2.25  c-2.3-0.567-4-1.05-5.1-1.45c-1.367-0.466-2.867-0.867-4.5-1.2c-4.967-1.1-8.983-2.9-12.05-5.4c-1.533-1.267-2.283-2.667-2.25-4.2  c0.067-1.2-0.333-1.917-1.2-2.15c-0.2-0.033-0.817-0.567-1.85-1.6c-0.633-0.7-1.4-0.767-2.3-0.2c-0.267,0.133-0.65,0.15-1.15,0.05  c-1.3-0.167-2.1-0.167-2.4,0c-0.233,0.167-0.5,0.9-0.8,2.2c-0.233,1.167-0.517,1.9-0.85,2.2c-0.333,0.3-1.067,0.467-2.2,0.5  c-2.967,0-5.316-0.217-7.05-0.65c-2.067-0.434-3.45-1.767-4.15-4c-0.467-1.4-0.75-3.184-0.85-5.35c-0.033-2.433-0.1-4.233-0.2-5.4  c-0.2-2.233-0.15-5.067,0.15-8.5c0.333-4.733,0.517-7.55,0.55-8.45c0-1.5,0.583-1.8,1.75-0.9c0.6,0.6,1.217,0.733,1.85,0.4  c0.9-0.533,1.917-0.8,3.05-0.8c0.567,0,1.633,0.133,3.2,0.4c0.9,0.233,1.583,0.383,2.05,0.45c0.767,0.167,1.45,0.233,2.05,0.2  c0.633,0,1.267,0.217,1.9,0.65c0.333,0.233,0.816,0.684,1.45,1.35c1.2-0.4,2.467-0.467,3.8-0.2c0.933,0.2,1.783,0.3,2.55,0.3  c1.933,0,3.383-0.667,4.35-2c2.533-3.2,4.4-5.6,5.6-7.2c0.733-0.933,1.5-1.566,2.3-1.9c0.833-0.333,1.85-0.4,3.05-0.2  c2.767,0.466,4.983,1.6,6.65,3.4c0.267,0.367,0.483,0.633,0.65,0.8c0.267,0.233,0.583,0.417,0.95,0.55  c0.333-0.3,1.034-1.083,2.1-2.35c0.867-0.967,1.7-1.667,2.5-2.1C59.781,22.758,61.514,22.908,62.814,24.342z M62.214,25.992  c-1.467-1.5-3.05-1.55-4.75-0.15c-1.233,0.966-2.283,2.25-3.15,3.85c-0.733,1.367-1.667,2.917-2.8,4.65c-0.7,1-1.733,2.5-3.1,4.5  c-0.2,0.3-0.717,0.95-1.55,1.95c-0.7,0.767-1.183,1.45-1.45,2.05c-0.633,0.933-0.45,1.65,0.55,2.15c0.8,0.4,1.433,0.617,1.9,0.65  c4.767,0.133,8.583-1.5,11.45-4.9c1.033-1.233,2.6-3.517,4.7-6.85c0.434-0.7,0.9-0.95,1.4-0.75c0.333,0.2,0.35,0.633,0.05,1.3  c-0.367,0.8-0.55,1.217-0.55,1.25c-0.067,0.434,0.15,0.784,0.65,1.05c1.167,0.633,2.566,1.783,4.2,3.45c1.867,1.867,3.2,3.1,4,3.7  c1.1,0.767,1.917,1.383,2.45,1.85c0.933,0.767,1.7,1.6,2.3,2.5c0.167-5,0.4-8.75,0.7-11.25c0.167-0.967,0.15-1.583-0.05-1.85  c-0.233-0.333-0.8-0.5-1.7-0.5c-1.367-0.033-3.317-0.25-5.85-0.65c-1.333-0.1-2.25-0.567-2.75-1.4  c-0.633-1.034-1.683-2.184-3.15-3.45C63.748,27.475,62.581,26.425,62.214,25.992z M23.114,34.792c0,0.067,0.033,0.1,0.1,0.1  c-0.067,0.567-0.117,2.117-0.15,4.65c-0.033,1.9-0.133,3.467-0.3,4.7c-0.033,0.333-0.15,0.8-0.35,1.4c-0.1,0.6,0.017,1.1,0.35,1.5  c0.534-0.233,1.3-0.867,2.3-1.9c0.867-0.967,1.683-1.533,2.45-1.7c-2.6,2.7-3.933,4.133-4,4.3c-1.267,1.767-1.783,3.683-1.55,5.75  c1.033-0.4,1.967-1.067,2.8-2l3.6-4.25c0.333-0.367,0.6-0.6,0.8-0.7c0.367-0.167,0.783-0.083,1.25,0.25  c-0.7,1.033-1.633,2.15-2.8,3.35c-0.633,0.7-1.65,1.683-3.05,2.95l-2.4,2.15c-0.733,0.833-0.833,1.75-0.3,2.75  c0.233,0.433,0.6,0.617,1.1,0.55c0.567-0.133,1-0.25,1.3-0.35c0.367-0.066,0.733-0.3,1.1-0.7c0.4-0.4,0.7-0.7,0.9-0.9  c1.2-1.233,2.117-2.133,2.75-2.7c1.067-1.067,2.067-1.9,3-2.5c0.534-0.267,0.817-0.4,0.85-0.4c0.333-0.133,0.667-0.05,1,0.25  l-5.55,4.8c-0.2,0.167-0.533,0.417-1,0.75c-0.333,0.333-0.434,0.683-0.3,1.05c0.133,0.4,0.5,0.667,1.1,0.8  c0.8,0.167,1.283,0.3,1.45,0.4c0.167,0.133,0.35,0.1,0.55-0.1c0.267-0.3,0.467-0.5,0.6-0.6l2-2.2c0.3-0.4,0.617-0.517,0.95-0.35  c0.167,0.133,0.2,0.4,0.1,0.8c-0.167,0.333-0.1,0.583,0.2,0.75c0.467-0.333,0.967-0.917,1.5-1.75c0.667-0.933,1.133-1.55,1.4-1.85  c0.434-0.6,0.767-1.05,1-1.35c0.4-0.533,0.917-0.8,1.55-0.8l1.9-0.2c0.733-0.033,1.367,0.033,1.9,0.2l3.9,1.3  c5.267,1.7,8.983,3.2,11.15,4.5c0.9,0.5,1.583,0.85,2.05,1.05c0.833,0.3,1.667,0.417,2.5,0.35c1.733-0.1,3.733,0.85,6,2.85  c0.333,0.233,0.316,0.583-0.05,1.05c-0.2,0.367-0.533,0.45-1,0.25c-0.133-0.033-0.566-0.283-1.3-0.75  c-0.5-0.333-0.983-0.467-1.45-0.4c0,1.1,0,1.667,0,1.7c-0.066,0.667-0.216,1.25-0.45,1.75c-0.333,0.633-0.05,1,0.85,1.1  c0.966,0.1,1.75-0.216,2.35-0.95l4.05-5c0.333-0.4,0.533-0.75,0.6-1.05c0.033-0.367-0.167-0.767-0.6-1.2  c-0.567-0.533-1.383-1.383-2.45-2.55c-0.967-0.9-1.883-1.617-2.75-2.15l-2-1.35c-0.533-0.466-0.65-0.9-0.35-1.3  c0.267-0.5,0.667-0.583,1.2-0.25l1.25,0.85c2.333,1.533,4.233,3.083,5.7,4.65c0.633,0.867,1.283,1.033,1.95,0.5  c0.833-0.8,1.45-1.967,1.85-3.5s0.433-2.833,0.1-3.9c-0.267-0.833-0.55-1.283-0.85-1.35c-0.267-0.133-0.75,0-1.45,0.4l-2.65,2  c0.167-0.833,0.633-1.816,1.4-2.95c0.367-0.467,0.517-0.867,0.45-1.2c-0.1-0.267-0.35-0.617-0.75-1.05  c-0.433-0.333-0.8-0.45-1.1-0.35c-0.267,0.033-0.583,0.233-0.95,0.6c-1.434,1.233-2.3,1.95-2.6,2.15  c-1.033,0.8-2.017,1.383-2.95,1.75l5.1-5.55c-0.8-1.4-1.467-2.083-2-2.05c-0.2,0.067-0.883,0.55-2.05,1.45  c-0.733,0.6-1.717,1.683-2.95,3.25c-0.133,0.133-0.3,0.367-0.5,0.7c-0.233,0.2-0.567,0.15-1-0.15c0.3-0.867,1.167-2.017,2.6-3.45  l2.45-2.55c0.4-0.433,0.383-0.883-0.05-1.35c-0.333-0.4-0.767-0.417-1.3-0.05l-2.55,2.4c-1.5,1.5-3.117,3-4.85,4.5  c-0.333-0.167-0.433-0.433-0.3-0.8c0.167-0.367,0.067-0.633-0.3-0.8l-1.8,0.95c-3.433,1.433-6.467,1.8-9.1,1.1  c-1.767-0.467-2.833-1.217-3.2-2.25c-0.367-1.1,0.066-2.267,1.3-3.5c1.1-1.067,2.333-2.583,3.7-4.55  c1.767-2.633,2.883-4.233,3.35-4.8c0.7-0.8,0.75-1.5,0.15-2.1c-1.4-1.3-2.45-2.2-3.15-2.7c-1.2-0.867-2.434-1.4-3.7-1.6  c-1.9-0.333-3.3,0.117-4.2,1.35c-0.367,0.5-1.233,1.567-2.6,3.2c-1.1,1.3-1.917,2.4-2.45,3.3c-1.3,2.267-3,3.383-5.1,3.35  c-1.066-0.033-2.633-0.183-4.7-0.45c-0.9-0.034-1.717-0.434-2.45-1.2v-0.1H23.114z M64.064,38.042c-0.333-0.3-0.633-0.25-0.9,0.15  l-3.35,4.4c0.733-0.333,1.5-0.867,2.3-1.6c0.8-0.9,1.434-1.567,1.9-2C64.348,38.658,64.364,38.342,64.064,38.042z M81.764,36.892  l4.45-4.15c-2.1,0.066-3.4,0.35-3.9,0.85C81.781,34.092,81.598,35.191,81.764,36.892z M87.864,61.292  c-0.767,0.667-1.4,1.367-1.9,2.1c1.967,0.1,3.15-0.067,3.55-0.5c0.467-0.4,0.7-1.5,0.7-3.3  C88.981,60.458,88.198,61.025,87.864,61.292z M77.915,53.242c-0.434,1.133-0.767,1.933-1,2.4c-0.3,0.5-0.8,1.233-1.5,2.2  c-0.567,0.933-0.934,1.783-1.1,2.55c1.933-0.667,2.933-1.017,3-1.05c1.267-0.4,1.85-1.267,1.75-2.6v-5.85  C78.731,51.425,78.348,52.208,77.915,53.242z M54.415,57.191c-1.333-0.5-2.167-0.833-2.5-1c-1.133-0.6-1.934-0.25-2.4,1.05  c-0.333,0.9-1.066,2.5-2.2,4.8c-1.033,2.033-1.7,3.684-2,4.95c-0.033,0.267-0.267,0.667-0.7,1.2c-0.633,0.633-1.15,0.75-1.55,0.35  c-0.333-0.3-0.333-0.733,0-1.3l2.15-4.2c1.3-2.7,2.217-4.75,2.75-6.15c0.333-0.867,0.4-1.483,0.2-1.85  c-0.2-0.367-0.75-0.683-1.65-0.95c-0.333-0.067-1.1-0.2-2.3-0.4c-0.933-0.167-1.7-0.35-2.3-0.55c-1.133-0.4-2.167-0.117-3.1,0.85  c-0.934,0.867-1.85,1.967-2.75,3.3c-0.167,0.267-0.934,1.467-2.3,3.6c-0.633,0.967-1.066,1.85-1.3,2.65  c-0.433,1.567-0.133,2.583,0.9,3.05c0.533,0.267,0.983,0.216,1.35-0.15c0.367-0.6,0.667-1,0.9-1.2c0.567-0.7,1.017-1.233,1.35-1.6  c0.533-0.567,1.15-0.867,1.85-0.9c-0.333,0.533-1.3,1.75-2.9,3.65c-0.833,0.8-0.917,1.483-0.25,2.05  c0.5,0.434,0.883,0.684,1.15,0.75c0.5,0.133,0.983-0.033,1.45-0.5l1.75-1.5c0.833-0.633,1.267-0.966,1.3-1  c0.566-0.3,1.25-0.383,2.05-0.25l-4.8,3.65c1.467,1.433,3.25,2.2,5.35,2.3c0.6,0.067,1.2-0.25,1.8-0.95  c0.567-0.867,1.033-1.466,1.4-1.8l0.35-0.45c0.4-0.433,0.733-0.533,1-0.3c0.367,0.3,0.35,0.733-0.05,1.3  c-0.133,0.2-0.55,0.55-1.25,1.05c-0.534,0.467-0.883,0.917-1.05,1.35l3.55,1.3l0.85,0.2c0.6,0.066,1.15-0.1,1.65-0.5  c0.533-0.4,0.683-0.833,0.45-1.3c-0.333-0.633-0.4-1.267-0.2-1.9c0.3-0.733,0.533-1.3,0.7-1.7c0.367-0.833,1.383-2.933,3.05-6.3  c0.667-1.4,0.883-2.4,0.65-3C56.581,58.325,55.781,57.758,54.415,57.191z M54.415,70.542c0,1.533-0.667,2.817-2,3.85l2.45,0.35  c2.1,0.2,3.75-0.583,4.95-2.35c0.7-1.067,1.5-2.75,2.4-5.05c0.867-2.333,1.117-3.883,0.75-4.65c-0.333-0.8-1.717-1.767-4.15-2.9  c-0.7,1.067-1.417,2.45-2.15,4.15c-0.4,0.967-1,2.417-1.8,4.35C54.498,69.092,54.348,69.842,54.415,70.542z M7.665,35.142  l-0.55,5.05c0.4,0.034,0.817-0.133,1.25-0.5c0.4-0.333,0.717-0.517,0.95-0.55c0.3-0.633,0.783-1.25,1.45-1.85  c0.867-0.7,1.5-1.25,1.9-1.65c0.433-0.4,0.683-0.65,0.75-0.75c0.267-0.3,0.35-0.617,0.25-0.95c-0.233-0.566-0.917-0.816-2.05-0.75  c-0.233,0.067-1.2,0.3-2.9,0.7C8.081,34.025,7.731,34.441,7.665,35.142z M8.814,40.441c-1.3,1.167-1.95,3.034-1.95,5.6l0.2,9.4  c0.066,0.633,0.35,1.034,0.85,1.2c4.8-6.033,8.966-10.683,12.5-13.95c0.3-0.267,0.483-0.483,0.55-0.65  c0.867-1.7,0.833-3.083-0.1-4.15l-4.4,4c-0.1,0.133-0.75,0.817-1.95,2.05c-0.8,0.767-1.483,1.383-2.05,1.85  c-0.233,0.2-0.833,0.934-1.8,2.2c-0.7,1.033-1.517,1.667-2.45,1.9c1.167-2.2,2.483-4.017,3.95-5.45c3.066-2.9,5.683-5.433,7.85-7.6  c0.4-0.4,0.633-0.684,0.7-0.85c0.233-0.367,0.233-0.767,0-1.2c-0.367-0.533-1.067-0.8-2.1-0.8c-1.6-0.033-3.167,0.583-4.7,1.85  c-0.5,0.433-1.184,1.117-2.05,2.05c-0.833,0.8-1.65,1.25-2.45,1.35C9.348,39.742,9.147,40.142,8.814,40.441z M21.165,44.441  l-0.75,0.1c-2.9,2.6-6.867,6.817-11.9,12.65c-0.767,0.867-0.983,1.883-0.65,3.05c0.333,1.167,1.05,2.017,2.15,2.55  c1.133,0.3,1.967,0.567,2.5,0.8c0.967,0.333,1.567,0,1.8-1c0.4-1.767,1.783-3.5,4.15-5.2c0.9-0.7,1.433-1.517,1.6-2.45  c0.167-0.8,0.033-1.833-0.4-3.1c-3.7,3.233-6.233,6.167-7.6,8.8c-0.233-0.933-0.317-1.55-0.25-1.85c0.033-0.3,0.25-0.717,0.65-1.25  c2.267-2.867,4.35-4.95,6.25-6.25c0.633-0.5,1.067-0.883,1.3-1.15c0.434-0.467,0.633-1.017,0.6-1.65  C20.614,47.125,20.798,45.775,21.165,44.441z M31.714,60.941c0.133-0.167,0.567-1,1.3-2.5c-0.966,0.133-1.733,0.784-2.3,1.95  c-0.167,0.3-0.083,0.55,0.25,0.75C31.331,61.308,31.581,61.242,31.714,60.941z M18.614,63.042c0.967-1.933,1.167-3.583,0.6-4.95  c-1.733,1.433-3.1,3.183-4.1,5.25c1.233,0.2,1.934,0.3,2.1,0.3C17.915,63.708,18.381,63.508,18.614,63.042z"/></svg>