<svg xmlns="http://www.w3.org/2000/svg" xmlns:xlink="http://www.w3.org/1999/xlink" version="1.1" x="0px" y="0px" viewBox="0 0 512 640" enable-background="new 0 0 512 512" xml:space="preserve"><g><path d="M195,256H52.8v-0.2c0-39.1,19.4-75.3,51.9-97l89.2-59.5c11.7-7.8,14.8-23.5,7-35.2c-4.9-7.3-12.9-11.3-21.2-11.3   c-4.8,0-9.7,1.4-14.1,4.3l-89.2,59.5C29.9,147.6,2,199.7,2,255.8v10.4l0,0V449c0,5.6,4.5,10.2,10.2,10.2H195   c5.6,0,10.2-4.5,10.2-10.2V266.2C205.2,260.5,200.7,256,195,256z"/><path d="M499.8,256H357.6v-0.2c0-39.1,19.4-75.3,51.9-97l89.2-59.5c11.7-7.8,14.8-23.5,7-35.2c-4.9-7.3-12.9-11.3-21.2-11.3   c-4.8,0-9.7,1.4-14.1,4.3l-89.2,59.5c-46.7,31.1-74.5,83.1-74.5,139.2v10.4v0V449c0,5.6,4.5,10.2,10.2,10.2h182.9   c5.6,0,10.2-4.5,10.2-10.2V266.2C510,260.5,505.4,256,499.8,256z"/></g><text x="0" y="527" fill="#000000" font-size="5px" font-weight="bold" font-family="'Helvetica Neue', Helvetica, Arial-Unicode, Arial, Sans-serif">Created by ProSymbols</text><text x="0" y="532" fill="#000000" font-size="5px" font-weight="bold" font-family="'Helvetica Neue', Helvetica, Arial-Unicode, Arial, Sans-serif">from the Noun Project</text></svg>