<svg xmlns="http://www.w3.org/2000/svg" xmlns:xlink="http://www.w3.org/1999/xlink" version="1.1" x="0px" y="0px" viewBox="0 0 512 640" enable-background="new 0 0 512 512" xml:space="preserve"><g><path d="M499.8,52.6H317c-5.6,0-10.2,4.5-10.2,10.2v182.9c0,5.6,4.5,10.2,10.2,10.2h142.2v0.2c0,39.1-19.4,75.3-51.9,97l-89.2,59.5   c-11.7,7.8-14.6,23.4-7,35.2c12.1,19,30.9,9.9,35.2,7l89.2-59.5C482.1,364.1,510,312.1,510,256v-10.4l0,0V62.7   C510,57.1,505.5,52.6,499.8,52.6z"/><path d="M195,52.6H12.2C6.6,52.6,2,57.1,2,62.7v182.9c0,5.6,4.6,10.2,10.2,10.2h142.2v0.2c0,39.1-19.4,75.3-51.9,97l-89.2,59.5   c-11.7,7.8-14.1,23.1-7,35.2c10.5,18.2,30.9,9.9,35.2,7l89.2-59.5c46.7-31.1,74.5-83.1,74.5-139.2v-10.4v0V62.7   C205.2,57.1,200.7,52.6,195,52.6z"/></g><text x="0" y="527" fill="#000000" font-size="5px" font-weight="bold" font-family="'Helvetica Neue', Helvetica, Arial-Unicode, Arial, Sans-serif">Created by ProSymbols</text><text x="0" y="532" fill="#000000" font-size="5px" font-weight="bold" font-family="'Helvetica Neue', Helvetica, Arial-Unicode, Arial, Sans-serif">from the Noun Project</text></svg>