<svg xmlns="http://www.w3.org/2000/svg" xmlns:xlink="http://www.w3.org/1999/xlink" version="1.1" x="0px" y="0px" viewBox="0 0 100 125" enable-background="new 0 0 100 100" xml:space="preserve"><path fill-rule="evenodd" clip-rule="evenodd" d="M53.469,20.946c0.033-0.533-0.267-1.15-0.9-1.85c-0.667-0.667-1.25-1-1.75-1  s-1.017,0.233-1.55,0.7c-0.566,0.533-0.85,0.983-0.85,1.35c-0.034,0.567,0.25,1.083,0.85,1.55c0.6,0.5,1.25,0.767,1.95,0.8  c0.633,0.033,1.166-0.117,1.6-0.45C53.252,21.747,53.469,21.38,53.469,20.946z M55.169,21.646c0,0.6-0.301,1.067-0.9,1.4  c-1.134,0.667-2.033,0.934-2.7,0.8c-1.566-0.167-2.649-0.417-3.25-0.75c-1-0.7-1.533-1.583-1.6-2.65  c-0.101-1.066,0.333-1.933,1.3-2.6c0.8-0.633,1.383-1.034,1.75-1.2c0.767-0.3,1.45-0.25,2.05,0.15  C54.052,18.13,55.169,19.747,55.169,21.646z M50.669,33.296l-0.051,1.15c-0.3,6.667-0.449,10.633-0.449,11.9  c-0.134,0.833-0.217,1.466-0.25,1.9c0,0.833,0.216,1.583,0.649,2.25c0.167-3.934,0.384-6.867,0.65-8.8  c0.133-0.867,0.383-3.6,0.75-8.2c0.1-0.667-0.084-0.983-0.55-0.95C51.019,32.546,50.769,32.796,50.669,33.296z M53.669,32.847  c-0.334,0.3-0.534,0.95-0.601,1.95c-0.333,4.167-0.533,6.633-0.6,7.4c-0.467,4.034-0.7,10.067-0.7,18.1  c0.233,0.233,0.383,0.35,0.45,0.35c1.333,0,2.149,0.167,2.45,0.5c0.333,0.267,0.517,1.067,0.55,2.4v6.5c0,1.333,0.05,2.2,0.149,2.6  c0.567,1.767,1.051,2.833,1.45,3.2c0.467,0.367,1.533,0.517,3.2,0.45c3.333,0,6.05,0.367,8.15,1.1c1.232,0.433,2.066,1.15,2.5,2.15  c0.433,1,0.35,2.067-0.25,3.2c-0.268,0.533-0.717,0.8-1.351,0.8h-2.25c-1.866-0.3-4.434-0.517-7.7-0.65  c-3.666-0.2-6.199-0.367-7.6-0.5c-2.267-0.233-5.4-0.333-9.4-0.3c-4.399,0.033-7.517-0.017-9.35-0.15  c-1.233-0.066-1.967-0.2-2.2-0.4c-0.267-0.167-0.45-0.683-0.55-1.55c-0.066-0.833,0.116-1.6,0.55-2.3  c0.434-0.767,1.033-1.25,1.8-1.45c0.834-0.233,2.617-0.45,5.351-0.65c2.366-0.133,4.283-0.883,5.75-2.25  c1.533-1.434,2.399-3.333,2.6-5.7c0.101-1.467,0.15-3,0.15-4.6c0.066-1.6,0.783-2.367,2.149-2.3c0.167,0,0.25-0.05,0.25-0.15  c0-0.067-0.083-0.284-0.25-0.65c-0.199-0.333-0.217-0.883-0.05-1.65c-0.133-2.933-0.033-6.933,0.3-12c0.334-5.8,0.5-9.833,0.5-12.1  c0.067-0.667-0.033-1.133-0.3-1.4c-0.233-0.3-0.684-0.45-1.35-0.45l-20.5-0.1c-2.267,0-4.033,0.3-5.3,0.9  c0.699,3.4,2.333,8.833,4.899,16.3c0.134,0.434,0.333,0.733,0.601,0.9c0.199,0.1,0.55,0.167,1.05,0.2  c1.767,0.1,3.283,0.067,4.55-0.1c0.633-0.066,1.017,0.067,1.15,0.4c0.1,0.433-0.067,0.733-0.5,0.9c-0.7,0.267-1.051,0.967-1.051,2.1  c-0.133,1.566-0.933,3.133-2.399,4.7c-2.8,2.867-6.25,4.483-10.351,4.85c-5.199,0.467-9.267-0.917-12.199-4.15  c-0.767-0.833-1.351-1.95-1.75-3.35c-0.2-0.7-0.417-1.967-0.65-3.8c0-0.4,0.066-0.65,0.2-0.75c1.1-0.967,2.083-2.333,2.95-4.1  c0.899-2.033,1.633-3.533,2.199-4.5c0.733-1.3,1.601-2.934,2.601-4.9c1.066-2.2,1.883-3.85,2.45-4.95  c0.267-0.633,0.416-1.133,0.449-1.5c0.067-0.5-0.1-1.033-0.5-1.6c-0.566-0.8-0.767-1.5-0.6-2.1c0.1-0.533,0.583-1.117,1.45-1.75  c0.8-0.566,1.467-0.983,2-1.25c1.133-0.533,1.899-0.316,2.3,0.65c0.133,0.267,0.517,0.667,1.15,1.2  c0.5,0.467,0.816,0.917,0.949,1.35c0.067,0.233,0.267,0.4,0.601,0.5c0.066,0,0.366,0,0.899,0c6.767,0.2,12.417-0.717,16.95-2.75  c2.934-1.3,5.867-1.833,8.8-1.6c3.033,0.2,5.9,1.184,8.601,2.95c1.6,1.033,3.5,1.767,5.7,2.2c1.033,0.2,3.05,0.434,6.05,0.7  c0.733,0.1,1.816,0.1,3.25,0c1.5-0.033,2.583-0.033,3.25,0c2.633,0.267,4.666-0.633,6.1-2.7c0.667-1,1.384-1.517,2.15-1.55  c0.733-0.033,1.7,0.367,2.899,1.2c-0.333,0.3-0.699,0.433-1.1,0.4c-0.233,0-0.566-0.033-1-0.1c-0.733,0.033-1.384,0.317-1.95,0.85  c-0.566,0.566-0.8,1.167-0.7,1.8c0.101,0.767,0.483,1.35,1.15,1.75c0.7,0.434,1.467,0.567,2.3,0.4c0.7-0.167,1.134-0.517,1.3-1.05  c0.034-0.133,0.051-0.683,0.051-1.65v-0.5c0.033-0.2,0.149-0.317,0.35-0.35c0.434-0.133,0.816,0.083,1.15,0.65  c0.267,0.667,0.283,1.367,0.05,2.1c-0.233,0.8-0.684,1.4-1.351,1.8c-0.5,0.333-0.816,0.567-0.949,0.7c-0.2,0.3-0.267,0.7-0.2,1.2  c0.7,5.533,1.816,10.433,3.35,14.7c0.334,1.067,0.65,1.7,0.95,1.9c0.3,0.2,1.05,0.284,2.25,0.25c0.667,0,1.083,0.083,1.25,0.25  c0.267,0.233,0.283,0.684,0.05,1.35c-0.133,0.367-0.217,1.083-0.25,2.15c-0.033,0.934-0.184,1.684-0.45,2.25  c-1.3,2.733-3.566,4.8-6.8,6.2c-4.467,1.9-8.6,1.967-12.399,0.2c-1.768-0.767-3.25-2-4.45-3.7c-0.834-1.3-1.684-3.05-2.55-5.25  c-0.101-0.367,0-0.767,0.3-1.2c0.433-0.466,0.683-0.816,0.75-1.05c0.033-0.9,0.6-1.167,1.7-0.8c0.6,0.167,1,0.017,1.199-0.45  c0.867-2.2,2.384-5.133,4.551-8.8c2.366-3.9,3.966-6.8,4.8-8.7c0.033-0.033,0.05-0.25,0.05-0.65c-0.4-0.2-0.917-0.283-1.55-0.25  c-0.8,0.133-1.3,0.167-1.5,0.1l-17.05-0.95c-1.801-0.033-3.617-0.033-5.45,0C54.719,32.396,54.035,32.546,53.669,32.847z   M80.568,30.946c-1.2,0.2-2.684,0.317-4.45,0.35c-0.967,0-2.433,0-4.399,0c-5.767,0.067-10.4-0.933-13.9-3  c-5.733-3.4-11.6-3.633-17.6-0.7c-4.733,2.3-10.084,3-16.05,2.1c-0.5-0.133-0.967-0.133-1.4,0c-0.267,0.067-0.434,0.267-0.5,0.6  c-0.1,0.2-0.066,0.367,0.1,0.5c0.134,0.167,0.301,0.25,0.5,0.25c1.2-0.1,2.117-0.15,2.75-0.15c8.867,0.233,15.517,0.35,19.95,0.35  c10.634,0.033,16.167,0.066,16.601,0.1c6.3,0.066,11.816,0.35,16.55,0.85c0.7,0.034,1.166,0.034,1.399,0  c0.567-0.1,1.051-0.383,1.45-0.85C81.202,31.213,80.868,31.08,80.568,30.946z M83.019,33.597c-0.7,1.667-2.316,4.65-4.85,8.95  c-2.233,3.767-3.784,6.9-4.65,9.4c1,0.267,2.2,0.317,3.6,0.15c2-0.233,3.101-0.35,3.301-0.35c1.267,0.066,2.05-0.017,2.35-0.25  c0.167-0.233,0.3-0.983,0.4-2.25c0.199-3.434,0.433-8.583,0.699-15.45C83.868,33.497,83.585,33.43,83.019,33.597z M85.368,34.196  c-0.399,2.567-0.666,5.517-0.8,8.85c-0.066,3.9,0.134,6.717,0.601,8.45c0.833,0.133,1.466,0.217,1.899,0.25  c0.834,0.033,1.55-0.033,2.15-0.2c-0.733-2.233-1.45-5.083-2.15-8.55C86.702,41.063,86.135,38.13,85.368,34.196z M91.919,53.296  c-1.467-0.233-4.101-0.4-7.9-0.5c-3.3-0.033-6.884,0.367-10.75,1.2c-0.9,0.2-1.45,0.3-1.65,0.3c-0.6,0-1.149-0.2-1.649-0.6  c-0.033,1.8,0.483,3.2,1.55,4.2c0.434-0.2,1-0.667,1.7-1.4c0.633-0.667,1.217-1.083,1.75-1.25v0.6l-1.25,1.55  c-0.8,0.867-1.184,1.45-1.15,1.75s0.533,0.933,1.5,1.9l4.05-4c0.301,0.467,0.301,0.9,0,1.3l-2.55,2.6  c-0.533,0.534-0.7,0.95-0.5,1.25c0.434,0.534,0.95,0.583,1.55,0.15c0.4-0.233,0.917-0.667,1.551-1.3l3.699-3.75  c0.2,0.267,0.25,0.517,0.15,0.75c-0.134,0.267-0.25,0.467-0.35,0.6c-0.867,1.3-1.884,2.417-3.051,3.35  c-0.566,0.333-0.699,0.717-0.399,1.15c0.399,0.533,0.916,0.583,1.55,0.15l6.8-6c0.233-0.3,0.4-0.5,0.5-0.6c0.3-0.2,0.617-0.2,0.95,0  c-0.533,1.034-1.55,2.184-3.05,3.45c-1.867,1.533-3.101,2.667-3.7,3.4c1.366,0,2.75-0.633,4.15-1.9c1.6-1.433,2.733-2.25,3.399-2.45  c0.101,0.267,0.066,0.567-0.1,0.9c-0.2,0.3-0.3,0.533-0.3,0.7c0.566,0.167,1.017,0.083,1.35-0.25c1.733-1.833,2.884-3.633,3.45-5.4  c0.166-0.633,0.149-1.1-0.05-1.4C92.969,53.513,92.552,53.363,91.919,53.296z M87.719,61.847c0.2-0.034,0.35-0.133,0.45-0.3  c0.066-0.066,0.149-0.283,0.25-0.65c-0.167,0-0.417,0.05-0.75,0.15c-0.467,0.233-0.601,0.467-0.4,0.7  C87.402,61.913,87.552,61.946,87.719,61.847z M51.769,62.046c-0.3,0.067-0.7,0.2-1.2,0.4l-0.3-0.05c-0.767-0.333-1.316-0.3-1.65,0.1  c-0.199,0.3-0.383,0.816-0.55,1.55c-0.066,0.3-0.1,0.967-0.1,2c0,2.133-0.267,3.817-0.8,5.05c-0.667,1.667-1.867,2.917-3.601,3.75  c1.267,0.466,2.983,0.75,5.15,0.85c2.133,0.1,3.866-0.017,5.2-0.35c-0.967-3-1.134-6.267-0.5-9.8  c0.333-1.333,0.149-2.417-0.551-3.25C52.602,61.963,52.235,61.88,51.769,62.046z M66.068,78.046c-0.767-0.033-3.6-0.3-8.5-0.8  c-3.434-0.333-6.267-0.483-8.5-0.45c-1.333,0-2.083-0.017-2.25-0.05c-1.3-0.367-3-0.434-5.1-0.2c-2.834,0.267-4.517,0.4-5.05,0.4  c-0.5-0.033-1.101,0.05-1.801,0.25c-0.399,0.133-1,0.317-1.8,0.55c-1.133,0.367-1.434,1.017-0.899,1.95  c0.566,0.967,1.283,1.133,2.149,0.5c0.434-0.3,0.851-0.7,1.25-1.2c0.566-0.767,1.2-1.05,1.9-0.85c0.1,0.367-0.05,0.75-0.45,1.15  c-0.434,0.4-0.634,0.767-0.6,1.1c0.933,0.433,1.783,0.483,2.55,0.15c0.633-0.333,1.25-0.95,1.85-1.85  c0.233-0.267,0.483-0.333,0.75-0.2c0.167,0.233,0.117,0.6-0.149,1.1c-0.301,0.433-0.317,0.783-0.051,1.05  c1.967,0.4,3.467-0.05,4.5-1.35c0.2-0.333,0.551-0.633,1.051-0.9c0.3-0.2,0.517-0.167,0.649,0.1c-0.033,0.2-0.283,0.517-0.75,0.95  c-0.399,0.333-0.517,0.7-0.35,1.1c1.267,0.267,2.25,0.383,2.95,0.35c1.066-0.133,2.017-0.617,2.85-1.45  c-0.3,0.633-0.4,1.083-0.3,1.35c0.133,0.267,0.517,0.45,1.149,0.55c1.634,0.267,3.367-0.284,5.2-1.65c-0.133,0.6-0.2,1-0.2,1.2  c0,0.4,0.351,0.617,1.051,0.65c1.133,0.033,2.017-0.05,2.649-0.25c0.9-0.233,1.65-0.75,2.25-1.55c0,1.233,0.083,1.917,0.25,2.05  c0.167,0.167,0.75,0.067,1.75-0.3c0.333-0.167,0.583-0.283,0.75-0.35c0.3-0.133,0.566-0.117,0.8,0.05  c0.601,0.4,1.051,0.233,1.351-0.5c0.267-0.633,0.166-1.15-0.3-1.55C67.901,78.48,67.035,78.113,66.068,78.046z M20.669,27.997  c0.066-1.133-0.617-1.667-2.051-1.6c-0.5,0-0.966,0.2-1.399,0.6c-0.467,0.4-0.667,0.816-0.601,1.25c0,0.467,0.167,0.883,0.5,1.25  c0.367,0.367,0.784,0.55,1.25,0.55c0.533,0,1.033-0.217,1.5-0.65S20.602,28.497,20.669,27.997z M18.219,33.546  c0,6.333,0.017,10.117,0.05,11.35c0.066,2.8,0.483,4.467,1.25,5c0.767,0.6,2.65,0.7,5.65,0.3c-0.768-2.1-1.567-4.6-2.4-7.5  c-0.467-1.667-1.134-4.117-2-7.35c-0.167-0.6-0.566-1.767-1.2-3.5c-0.066-0.4-0.267-0.55-0.6-0.45c-0.3,0.1-0.5,0.267-0.601,0.5  C18.269,32.43,18.219,32.98,18.219,33.546z M16.519,33.597c-0.934,1.867-2.35,4.633-4.25,8.3c-1.6,3.167-2.866,5.983-3.8,8.45  c0.866,0.3,1.934,0.417,3.2,0.35c1.833-0.133,2.866-0.2,3.1-0.2c1.1,0.066,1.767-0.05,2-0.35c0.3-0.267,0.4-0.967,0.3-2.1  c-0.2-2.7-0.233-6.767-0.1-12.2c0-0.233,0.017-0.583,0.05-1.05C17.019,34.363,16.852,33.963,16.519,33.597z M30.169,51.796  c-0.167,0-0.434,0.017-0.801,0.05c-9-0.233-15.733-0.067-20.199,0.5c-1.034,0.133-1.617,0.283-1.75,0.45  c-0.134,0.267-0.051,0.967,0.25,2.1c0.366,0.033,0.8-0.183,1.3-0.65s0.967-0.667,1.399-0.6c-0.033,0.533-0.35,1.017-0.949,1.45  c-0.634,0.5-1,0.883-1.101,1.15c-0.1,0.6,0.05,1.167,0.45,1.7c0.2,0.233,0.634,0.65,1.3,1.25c1.101-1.167,1.934-2.017,2.5-2.55  c0.934-1,1.934-1.583,3-1.75c-0.267,0.433-0.85,1.05-1.75,1.85c-0.8,0.7-1.316,1.35-1.55,1.95c-0.1,0.2-0.3,0.45-0.6,0.75  c-0.2,0.3-0.117,0.583,0.25,0.85c0.699,0.6,1.35,0.567,1.949-0.1l4.601-4.35c0.233-0.233,0.416-0.417,0.55-0.55  c0.267-0.133,0.55-0.083,0.85,0.15c-0.3,0.733-1.116,1.684-2.449,2.85c-1.334,1.1-2.2,2.133-2.601,3.1  c1.867,0.033,3.667-0.767,5.4-2.4c2.533-2.367,4.017-3.667,4.45-3.9c-0.467,1.167-1.367,2.367-2.7,3.6  c-1.7,1.5-2.733,2.517-3.101,3.05c1.134-0.167,1.917-0.383,2.351-0.65c0.333-0.2,1.149-0.9,2.45-2.1  c0.533-0.6,0.916-1.033,1.149-1.3c0.467-0.5,0.8-0.633,1-0.4c0.4,0.467,0.367,0.917-0.1,1.35c-0.3,0.233-0.75,0.583-1.351,1.05  c-0.133,0.267-0.066,0.434,0.2,0.5c3.8-1.5,5.917-4.183,6.351-8.05C30.785,51.913,30.535,51.796,30.169,51.796z"/></svg>