<svg width="100%" height="100%" viewBox="0 0 369.9130434782609 91.43765372164779" class="looka-1j8o68f" style="
"><defs id="SvgjsDefs8528"></defs><g id="SvgjsG8529" featurekey="UFHKJ9-0" transform="matrix(1.027308612489693,0,0,1.027308612489693,-15.14124234344351,-4.6537052909627175)" fill="#000000"><g xmlns="http://www.w3.org/2000/svg"><g><path d="M47.908,73.777v-6.163H40.49c0.014,0.152,0.045,0.301,0.045,0.457c0,2.033-1.213,3.775-2.949,4.568v1.138    c-3.03,1.779-5.075,5.063-5.075,8.823c0,5.041,3.666,9.232,8.47,10.073c0.415,0.522,1.047,0.864,1.767,0.864    c0.718,0,1.351-0.342,1.765-0.864c4.804-0.84,8.469-5.031,8.469-10.073C52.982,78.84,50.938,75.556,47.908,73.777z M44.211,89.567    c-0.396-0.339-0.902-0.551-1.463-0.551c-0.562,0-1.068,0.212-1.464,0.55c-3.225-0.677-5.655-3.543-5.655-6.966    c0-3.924,3.193-7.117,7.119-7.117c3.924,0,7.117,3.193,7.117,7.117C49.865,86.023,47.436,88.891,44.211,89.567z"></path><path d="M82.91,69.019c-1.892-2.948-5.115-4.708-8.622-4.708c-0.138,0-0.271,0.023-0.408,0.029l-0.62-0.966    c-1.891,0.273-3.852-0.539-4.949-2.25c-0.086-0.133-0.137-0.273-0.209-0.41l-6.244,4.006l3.328,5.188    c-1.589,3.135-1.537,7.003,0.494,10.168c1.893,2.949,5.116,4.709,8.623,4.71c0,0,0,0,0.001,0c1.359,0,2.69-0.288,3.935-0.81    c0.634,0.22,1.354,0.167,1.963-0.223c0.606-0.389,0.954-1.019,1.021-1.682C84.81,78.77,85.631,73.262,82.91,69.019z     M79.287,79.619c-0.515-0.071-1.056,0.024-1.527,0.327c-0.466,0.3-0.775,0.744-0.928,1.233c-0.807,0.311-1.658,0.487-2.529,0.487    c-2.44,0-4.683-1.225-5.998-3.275c-2.12-3.303-1.156-7.715,2.146-9.834c1.151-0.738,2.478-1.129,3.837-1.129    c2.44,0,4.682,1.224,5.997,3.273C82.134,73.584,81.636,77.309,79.287,79.619z"></path></g><g><path d="M62.723,61.965c-0.362,0-0.726-0.138-1.002-0.415l-3.343-3.343c-0.554-0.554-0.554-1.45,0-2.004    c0.553-0.555,1.451-0.555,2.004,0l3.343,3.343c0.554,0.554,0.554,1.45,0,2.004C63.448,61.827,63.085,61.965,62.723,61.965z"></path></g><g><path d="M44.622,66.279c-0.363,0-0.726-0.138-1.002-0.415c-0.553-0.554-0.553-1.45,0-2.004l3.343-3.343    c0.553-0.555,1.451-0.555,2.004,0c0.553,0.554,0.553,1.45,0,2.004l-3.343,3.343C45.348,66.142,44.985,66.279,44.622,66.279z"></path></g><path d="M87.027,38.617c-1.047-0.597-2.357-0.606-3.416-0.025c-4.131,2.265-10.627,4.631-18.149,3.089   c-2.479-1.143-5.563-2.752-8.923-5.137c-2.264-1.607-4.679-2.704-7.194-3.262c-0.424-0.093-0.846-0.166-1.257-0.226   c0.981-1.661,3.129-2.855,6.056-3.36l0.643-0.109c2.563-0.431,6.855-1.151,9.598-2.812c3.926-2.376,6.836-5.302,9.009-8.228   c0.027-0.026,0.045-0.059,0.064-0.09c1.092-1.48,2.009-2.959,2.748-4.365c0.025-0.047,0.052-0.095,0.076-0.142   c0.807-1.551,1.415-3.004,1.872-4.272c0.022-0.062,0.045-0.123,0.066-0.184c0.918-2.588,1.193-4.343,1.2-4.392l0.083-0.572   L73.11,4.534c-9.282,1.053-24.361,9.918-29.89,19.769c-0.884,1.576-1.459,3.021-1.812,4.335c-1.106-2.5-2.575-5.582-3.831-7.388   C33.984,16.082,26.051,8.922,20.5,8.922l-3.541,0.006c-0.448,0-0.955-0.001-1.717-0.006c-0.133,0.027-0.29,0.065-0.386,0.178   c-0.096,0.114-0.136,0.265-0.109,0.411c0.073,0.399,1.815,9.831,5.568,14.505c1.696,2.113,3.315,3.622,4.834,4.738   c-0.528,0.566-0.942,1.224-1.167,1.968l-3.599,3.042c-0.157,0.133-0.216,0.349-0.149,0.544c0.067,0.195,0.247,0.329,0.453,0.337   c0.026,0.001,2.628,0.131,5.868,2.296c0.029,0.019,0.069,0.04,0.111,0.056c0.008,0.005,0.022,0.015,0.038,0.026   c0.019,0.016,0.04,0.031,0.062,0.044c0.007,0.004,0.737,0.46,2.929,2.119c0.805,0.609,2.074,1.715,3.543,2.996   c2.808,2.448,6.303,5.496,9.229,7.441c0.02,0.013,0.041,0.025,0.063,0.035c1.818,1.294,3.988,2.134,6.463,2.531l-1.53,1.781   c-0.708,0.825-0.992,1.91-0.776,2.977c0.216,1.065,0.899,1.955,1.874,2.439l1.999,0.993c0.069,0.034,0.146,0.052,0.223,0.052h2.701   h0.841h1.412c0.008,0,0.015,0.001,0.02,0h0.769h1.912c0.008,0,0.015,0.001,0.02,0c0.276,0,0.5-0.224,0.5-0.5   c0-0.181-0.096-0.34-0.24-0.428l-1.634-1.634c-0.41-0.447-0.576-1.096-0.494-1.928l0.348-3.575   c4.14-0.251,7.685,0.392,10.816,0.969c2.055,0.38,3.829,0.707,5.418,0.707c3.65,0,9.17-1.644,12.662-5.253   c2.026-2.094,3.051-4.601,2.964-7.249C88.753,40.336,88.076,39.214,87.027,38.617z M21.095,23.39   c-0.079-0.098-0.152-0.208-0.229-0.31h6.318c0.276,0,0.5-0.224,0.5-0.5s-0.224-0.5-0.5-0.5h-7   c-0.638-1.026-1.207-2.188-1.706-3.392h6.534c0.276,0,0.5-0.224,0.5-0.5s-0.224-0.5-0.5-0.5h-6.931   c-0.44-1.158-0.818-2.317-1.133-3.392h6.626c0.276,0,0.5-0.224,0.5-0.5s-0.224-0.5-0.5-0.5h-6.911   c-0.401-1.468-0.672-2.688-0.814-3.372c0.446,0.002,0.793,0.002,1.11,0.002L20.5,9.922c4.776,0,12.261,6.152,16.255,11.899   c1.43,2.056,3.202,5.957,4.31,8.536c-0.025,0.179-0.048,0.356-0.064,0.529c-1.033-0.483-1.933-0.98-2.788-1.454   c-2.419-1.339-4.508-2.495-8.206-2.592c-0.032,0-0.069,0.002-0.102,0.009c-1.502-0.054-2.908,0.417-4.001,1.229   C24.405,27,22.803,25.518,21.095,23.39z M50.897,59.433l-1.893-0.94c-0.696-0.347-1.184-0.981-1.338-1.743s0.048-1.536,0.554-2.125   l1.865-2.172l1.396-0.016l-1.319,1.535c-0.709,0.826-0.991,1.91-0.775,2.977c0.213,1.051,0.913,1.963,1.873,2.438l0.093,0.046   H50.897z M57.227,59.433h-0.484l-1.428-1.562c-0.187-0.203-0.503-0.218-0.707-0.031c-0.021,0.02-0.031,0.045-0.048,0.066   c-0.147,0.188-0.15,0.458,0.017,0.641l0.81,0.886h-0.787h-0.058l-1.426-1.561c-0.186-0.204-0.502-0.219-0.706-0.032   s-0.219,0.503-0.032,0.706l0.469,0.513l-1.142-0.567c-0.686-0.34-1.185-0.991-1.337-1.742c-0.155-0.761,0.047-1.536,0.554-2.125   l1.861-2.167c0.772-0.003,1.523-0.014,2.259-0.03l0.882-0.01l-0.334,3.429c-0.11,1.127,0.143,2.035,0.768,2.717L57.227,59.433z    M54.957,51.429l-1.068,0.012c-0.04-0.011-0.079-0.023-0.12-0.029l-2.181,0.024c-3.402-0.121-6.28-1-8.549-2.641   c-0.029-0.021-0.061-0.039-0.093-0.052c-2.856-1.912-6.289-4.905-9.051-7.313c-1.483-1.293-2.764-2.41-3.597-3.04   c-2.246-1.7-2.977-2.154-3.007-2.172l0,0.001c-0.014-0.012-0.027-0.023-0.041-0.033l-0.171-0.103   c-0.006-0.002-0.013-0.005-0.02-0.007c-2.161-1.433-4.042-2.021-5.182-2.263l2.869-2.424c0.078-0.066,0.134-0.154,0.16-0.253   c0.184-0.691,0.562-1.3,1.063-1.81c0.242-0.246,0.506-0.472,0.804-0.663c0.89-0.569,2.004-0.878,3.195-0.811   c0.04,0.003,0.08-0.001,0.119-0.009c3.389,0.109,5.27,1.15,7.645,2.464c0.971,0.538,2.008,1.104,3.217,1.648   c-0.011,1.966,0.477,3.458,0.961,4.439c0.244,0.495,0.485,0.868,0.655,1.1c0.125,0.169,0.211,0.269,0.234,0.294   c0.186,0.205,0.502,0.22,0.707,0.035s0.22-0.502,0.035-0.707c-0.01-0.011-0.26-0.297-0.559-0.845   c-0.248-0.455-0.524-1.1-0.729-1.908c-0.135-0.533-0.231-1.141-0.268-1.821c-0.003-0.05-0.007-0.099-0.009-0.15   c-0.013-0.34-0.01-0.696,0.013-1.072c0.021-0.344,0.062-0.703,0.119-1.076c0.244-1.57,0.829-3.389,1.988-5.454   c5.3-9.441,20.27-18.259,29.075-19.261h5.155c-0.139,0.663-0.428,1.863-0.956,3.392h-6.908c-0.276,0-0.5,0.224-0.5,0.5   s0.224,0.5,0.5,0.5H77c-0.394,1.03-0.896,2.172-1.511,3.375h-6.953c-0.276,0-0.5,0.224-0.5,0.5s0.224,0.5,0.5,0.5h6.427   c-0.612,1.104-1.34,2.246-2.173,3.392h-7.02c-0.276,0-0.5,0.224-0.5,0.5s0.224,0.5,0.5,0.5h6.271   c-0.909,1.151-1.952,2.291-3.126,3.392h-7.099c-0.276,0-0.5,0.224-0.5,0.5s0.224,0.5,0.5,0.5h5.983   c-1.183,1.003-2.483,1.962-3.935,2.84c-2.579,1.561-6.753,2.262-9.246,2.681l-0.646,0.109c-3.233,0.559-5.635,1.929-6.762,3.859   c-0.057,0.097-0.087,0.2-0.137,0.299c-0.154,0.309-0.272,0.623-0.356,0.944c-0.218,0.837-0.218,1.695,0.061,2.475   c0.093,0.26,0.379,0.396,0.639,0.303s0.396-0.379,0.303-0.639c-0.219-0.614-0.216-1.28-0.032-1.938   c0.467,0.062,0.938,0.135,1.427,0.241c0.009,0.002,0.018,0.005,0.027,0.007c2.369,0.525,4.662,1.567,6.818,3.097   c5.127,3.641,9.641,5.523,12.338,6.647c0.216,0.09,0.431,0.18,0.643,0.269c1.033,0.434,1.956,0.835,2.075,0.982   c-0.028,0.105-0.069,0.202-0.103,0.305c-0.213,0.673-0.521,1.286-0.944,1.833c-0.23,0.299-0.499,0.578-0.798,0.84   c-0.522,0.459-1.156,0.862-1.9,1.216c-0.453,0.215-0.937,0.417-1.478,0.595C63.254,50.884,59.71,51.317,54.957,51.429z    M85.11,48.096c-3.144,3.249-8.388,4.948-11.943,4.948c-1.497,0-3.229-0.319-5.236-0.69c-1.321-0.243-2.785-0.508-4.361-0.712   c1.414-0.283,2.677-0.657,3.774-1.14c3.681,0.979,6.533,1.031,7.084,1.031c0.058,0,0.09-0.001,0.096-0.001   c0.275-0.007,0.494-0.236,0.487-0.512c-0.007-0.276-0.226-0.486-0.512-0.488c-0.062,0.004-2.47,0.038-5.815-0.724   c0.63-0.387,1.181-0.829,1.652-1.329c2.227,0.419,4.257,0.547,5.875,0.547c2.309,0,3.786-0.252,3.829-0.26   c0.271-0.049,0.452-0.309,0.403-0.581c-0.049-0.272-0.305-0.453-0.581-0.404c-0.066,0.012-3.869,0.661-8.821-0.181   c0.39-0.583,0.691-1.232,0.896-1.956c0.717,0.049,1.42,0.081,2.09,0.081c4.955,0,8.515-1.184,8.58-1.206   c0.261-0.089,0.4-0.374,0.311-0.635c-0.089-0.261-0.374-0.4-0.635-0.312c-0.071,0.024-4.631,1.532-10.556,1.064   c-0.454-0.467-1.447-0.89-2.98-1.529c6.72,0.397,12.35-1.999,15.345-3.642c0.759-0.416,1.693-0.409,2.44,0.017   c0.749,0.427,1.232,1.228,1.261,2.09C87.872,43.98,86.97,46.173,85.11,48.096z"></path><path d="M29.508,29.713c-0.268-0.06-0.521-0.028-0.759,0.041c-0.378,0.11-0.675,0.359-0.81,0.71   c-0.019,0.049-0.056,0.088-0.068,0.141c-0.148,0.661,0.342,1.336,1.098,1.506c0.625,0.141,1.215-0.122,1.491-0.588   c0.057-0.096,0.121-0.19,0.146-0.303c0.057-0.253,0.019-0.508-0.091-0.736C30.338,30.115,29.974,29.818,29.508,29.713z"></path></g></g><g id="SvgjsG8530" featurekey="XAPJzK-0" transform="matrix(2.8016634116506833,0,0,2.8016634116506833,92.80610375079634,10.271847679786989)" fill="#000000"><path d="M1.14 20 l0 -12.24 l5.8 0 c2.28 0 4.22 1.72 4.22 4.02 c0 2.32 -2 4.02 -4.22 4.02 l-2.8 0 l0 4.2 l-3 0 z M6.94 10.54 l-2.8 0 l0 2.48 l2.8 0 c0.7 0 1.22 -0.54 1.22 -1.24 s-0.52 -1.24 -1.22 -1.24 z M19.551 17.32 c1.46 0 2.3 -0.86 2.3 -2.32 s-0.84 -2.32 -2.3 -2.32 s-2.3 0.86 -2.3 2.32 s0.84 2.32 2.3 2.32 z M19.551 20.1 c-3.08 0 -5.3 -2.04 -5.3 -5.1 c0 -3.16 2.3 -5.1 5.3 -5.1 c3.1 0 5.3 2.04 5.3 5.1 c0 3.14 -2.32 5.1 -5.3 5.1 z M28.561999999999998 6 l3 0 l0 14 l-3 0 l0 -14 z M35.952999999999996 10 l3 0 l0 10 l-3 0 l0 -10 z M37.452999999999996 9.06 c-1.02 0 -1.74 -0.72 -1.74 -1.74 c0 -1.04 0.72 -1.72 1.74 -1.72 c1.04 0 1.72 0.68 1.72 1.72 c0 1.06 -0.66 1.74 -1.72 1.74 z M48.843999999999994 10.34 l0 2.78 l-2.46 0 l0 6.88 l-3 0 l0 -9.98 c0 -3.32 2.44 -5.12 5.52 -5.12 c0.1 0 0.24 0 0.38 0.02 s0.3 0.06 0.44 0.08 l0 2.9 c-0.1 -0.02 -0.22 -0.04 -0.36 -0.06 s-0.26 -0.04 -0.36 -0.04 c-0.5 0 -0.9 0.06 -1.24 0.16 c-0.56 0.2 -1.06 0.58 -1.24 1.18 c-0.1 0.26 -0.14 0.56 -0.14 0.86 l0 0.34 l2.46 0 z M59.815 15 c-0.08 -1.46 -0.74 -2.32 -2.26 -2.32 c-0.42 0 -0.78 0.06 -1.08 0.18 c-0.92 0.42 -1.26 1.2 -1.26 2.16 c0 0.32 0.04 0.62 0.14 0.88 c0.3 1.04 1.2 1.42 2.2 1.42 c1.52 0 2.26 -0.82 2.26 -2.32 z M63.614999999999995 20 l-3 0 c-0.2 -0.5 -0.38 -1 -0.5 -1.52 c-0.68 1.12 -1.72 1.62 -3 1.62 c-2.86 0 -4.9 -2.4 -4.9 -5.14 c0 -3.16 2.36 -5.06 5.34 -5.06 c3.18 0 5.18 2.04 5.26 5.1 c0.02 0.26 0.02 0.56 0.02 0.92 c0 1.4 0.22 2.8 0.78 4.08 z M75.06599999999999 16.7 l0 3 c-1.02 0.34 -2.08 0.44 -3.14 0.44 c-3.1 0 -5.3 -2.06 -5.3 -5.12 c0 -3.18 2.28 -5.12 5.3 -5.12 c1.06 0 2.12 0.1 3.14 0.44 l0 3 c-0.88 -0.46 -1.98 -0.58 -2.96 -0.58 c-0.66 0 -1.46 0.14 -1.92 0.66 c-0.42 0.42 -0.56 1.02 -0.56 1.58 c0 0.32 0.04 0.62 0.14 0.88 c0.08 0.28 0.22 0.52 0.42 0.72 c0.44 0.54 1.26 0.68 1.92 0.68 c0.88 0 2.18 -0.16 2.96 -0.58 z M84.77699999999999 10.34 l0 2.78 l-2.8 0 l0 1.88 c0 1.54 1.02 2.32 2.5 2.32 c0.18 0 0.34 -0.02 0.48 -0.04 s0.26 -0.04 0.4 -0.06 l0 2.78 c-0.18 0.02 -0.32 0.06 -0.42 0.08 c-0.12 0.02 -0.32 0.02 -0.58 0.02 c-3.02 0 -5.38 -2.06 -5.38 -5.1 l0 -7.4 l3 0 l0 2.74 l2.8 0 z M93.60799999999998 17.32 c1.46 0 2.3 -0.86 2.3 -2.32 s-0.84 -2.32 -2.3 -2.32 s-2.3 0.86 -2.3 2.32 s0.84 2.32 2.3 2.32 z M93.60799999999998 20.1 c-3.08 0 -5.3 -2.04 -5.3 -5.1 c0 -3.16 2.3 -5.1 5.3 -5.1 c3.1 0 5.3 2.04 5.3 5.1 c0 3.14 -2.32 5.1 -5.3 5.1 z"></path></g></svg>