<svg xmlns="http://www.w3.org/2000/svg" xmlns:xlink="http://www.w3.org/1999/xlink" xmlns:a="http://ns.adobe.com/AdobeSVGViewerExtensions/3.0/" version="1.1" viewBox="-0.358 -0.617 58 122.5" width="64px" height="64px" enable-background="new -0.358 -0.617 58 98" xml:space="preserve" x="0px" y="0px"><path d="M53.018,34.076c-0.299-3.362-0.926-6.641-1.885-9.749c-0.045-0.146-0.139-0.257-0.249-0.347  c0.033-0.373-0.098-0.755-0.253-1.099L43.27,6.526c-0.566-1.277-1.388-1.127-2.18-0.865c-0.001,0-11.862,3.954-11.862,3.954  c-0.369,0.123-0.812,0.121-1.187-0.004c-0.001,0-4.547-1.516-4.547-1.516l-7.301-2.433c-0.79-0.262-1.609-0.412-2.182,0.862  C14.01,6.527,6.652,22.881,6.652,22.881c-0.163,0.36-0.308,0.765-0.254,1.155c-0.121,0.092-0.223,0.21-0.271,0.366  c-0.943,3.073-1.563,6.328-1.863,9.674C1.666,35.321,0,37.907,0,40.815c0,3.128,2.005,5.933,4.914,7.01  c2.148,11.351,8.031,20.31,15.818,24.083c0.29,2.379,0.572,4.692,0.572,4.692c0.168,1.382-0.645,3.253-1.773,4.086  c0,0-1.199,0.884-2.095,1.546l-1.192-1.143l-0.53-0.508l-0.531,0.508l-5.781,5.543l1.061,1.076l5.251-5.034l8.689,8.331  l-4.935,4.846l1.074,1.063l5.482-5.384l0.547-0.538l-0.554-0.531l-1.819-1.745l3.008-5.048c0.63-1.057,1.159-2.609,1.436-4.062  c0.277,1.452,0.807,3.005,1.437,4.062l3.008,5.049l-1.819,1.744l-0.555,0.531l0.548,0.538l5.482,5.384l1.073-1.063l-4.935-4.846  l8.688-8.332l5.253,5.035l1.06-1.076L42.1,81.09l-0.53-0.508l-0.53,0.508l-1.192,1.144l-2.094-1.547  c-1.129-0.833-1.941-2.705-1.772-4.087c0,0,0.282-2.317,0.572-4.699C44.23,68.173,50.24,59.038,52.37,47.826  c2.908-1.077,4.913-3.881,4.913-7.011C57.283,37.905,55.616,35.32,53.018,34.076z M8.018,23.501c0,0,7.362-16.365,7.362-16.365  c0.03-0.065,0.048-0.099,0.068-0.134c0.067,0.018,0.154,0.044,0.271,0.083c0,0,7.3,2.433,7.3,2.433l4.546,1.515  c0.681,0.229,1.46,0.23,2.137,0.005l11.861-3.954c0.116-0.039,0.202-0.064,0.27-0.082c0.019,0.035,0.037,0.067,0.066,0.133  c0.001,0,7.366,16.365,7.366,16.365c0.017,0.036,0.025,0.061,0.038,0.091c-0.059,0.009-0.114,0.017-0.179,0.026  c-7.394,1.029-13.93,2.944-19.981,5.855l-0.255,0.126c-0.087,0.043-0.174,0.086-0.227,0.107c-0.104-0.033-0.344-0.147-0.529-0.236  c-6.047-2.908-12.581-4.822-19.973-5.852c-0.065-0.009-0.12-0.017-0.18-0.026C7.992,23.563,8.002,23.537,8.018,23.501z   M25.894,82.908l-2.819,4.731l-4.536-4.348l1.902-1.404c1.563-1.153,2.604-3.554,2.372-5.466c0-0.001-1.194-9.811-1.194-9.811  c-0.185-1.519,0.105-4.018,0.632-5.455l5.056-13.781l0.021,30.327C27.329,79.218,26.672,81.602,25.894,82.908z M36.842,81.888  l1.901,1.404l-4.535,4.348l-2.818-4.731c-0.779-1.307-1.436-3.69-1.435-5.207c0,0.001,0.017-24.445,0.021-30.326  c1.3,3.541,5.056,13.781,5.056,13.781c0.528,1.438,0.817,3.937,0.632,5.456c0-0.001-0.267,2.191-0.549,4.503  c-0.08,0.155-0.102,0.33-0.062,0.507c-0.294,2.416-0.584,4.799-0.584,4.799C34.237,78.333,35.279,80.734,36.842,81.888z   M51.502,46.56c-0.271,0.081-0.473,0.307-0.523,0.585c-1.896,10.504-7.278,19.14-14.208,22.966c0.222-1.823,0.404-3.32,0.404-3.32  c0.211-1.741-0.109-4.498-0.713-6.145l-0.478-1.303c0.651,0.266,1.292,0.502,1.803,0.598c0.642,0.116,0.974-0.149,0.842-0.593  c-0.182-0.6-1-2.613-2.042-3.41c-0.966-0.738-1.852-1.415-2.541-1.878l-3.078-8.389c-0.209-0.57-0.645-1.756-1.577-1.595  c-0.396,0.068-0.617,0.337-0.749,0.666c-0.132-0.329-0.354-0.597-0.749-0.666c-0.933-0.161-1.369,1.025-1.578,1.595  c0,0-1.604,4.372-3.078,8.392c-0.689,0.461-1.577,1.139-2.542,1.876c-1.041,0.797-1.86,2.811-2.039,3.41  c-0.133,0.443,0.2,0.709,0.838,0.593c0.512-0.096,1.154-0.334,1.807-0.6c-0.296,0.807-0.479,1.305-0.479,1.305  c-0.605,1.646-0.924,4.403-0.713,6.144c0,0,0.182,1.492,0.403,3.312C13.587,66.273,8.193,57.619,6.306,47.146  c-0.05-0.278-0.253-0.505-0.523-0.586C3.261,45.807,1.5,43.444,1.5,40.815c0-2.453,1.471-4.634,3.748-5.557  c0.263-0.106,0.443-0.352,0.466-0.634c0.269-3.321,0.875-6.543,1.794-9.588c0.128,0.025,0.257,0.042,0.383,0.06  c7.298,1.017,13.687,2.887,19.592,5.727c0.987,0.475,1.252,0.531,2.077,0.119l0.234-0.116c5.909-2.842,12.301-4.713,19.538-5.721  c0.148-0.02,0.296-0.042,0.44-0.07c0.923,3.058,1.531,6.281,1.795,9.589c0.023,0.283,0.203,0.529,0.467,0.636  c2.277,0.921,3.749,3.103,3.749,5.557C55.783,43.445,54.022,45.807,51.502,46.56z"/><path d="M40.815,3.276l-9.921-2.71l-1.241-0.339L29.312,0.13c-0.598-0.172-0.746-0.173-1.318-0.007l-0.318,0.09  c0,0-2.104,0.574-2.104,0.574L16.47,3.276c-0.209,0.058-0.844,0.232-0.862,0.863c-0.017,0.624,0.589,0.827,0.817,0.904  c-0.001,0,11.183,3.788,11.183,3.788c0.658,0.222,1.396,0.226,2.027,0.012c0,0,5.958-2.018,5.958-2.018l5.265-1.783  c0.228-0.077,0.834-0.28,0.816-0.904C41.658,3.509,41.024,3.333,40.815,3.276z M35.112,5.405l-5.958,2.018  c-0.321,0.109-0.72,0.104-1.065-0.012c0.001,0-6.246-2.116-9.402-3.185c2.653-0.726,7.28-1.99,7.28-1.99l2.104-0.574  c0,0,0.34-0.096,0.34-0.096c0.095-0.028,0.188-0.054,0.228-0.062c0.044,0.008,0.149,0.039,0.258,0.069l0.362,0.102L30.5,2.012  l8.097,2.212L35.112,5.405z"/></svg>