<svg height="64px" width="64px" xmlns="http://www.w3.org/2000/svg" xmlns:xlink="http://www.w3.org/1999/xlink" version="1.1" x="0px" y="0px" viewBox="0 0 100 125" style="enable-background:new 0 0 100 100;" xml:space="preserve"><path d="M51.97,34.34l-1.51,1.51l2.28,2.26l1.49-1.5c1.01-1,1.37-2.08,1.37-2.77c0-0.32-0.08-0.57-0.19-0.7  c-0.13-0.12-0.4-0.21-0.7-0.19C54.01,32.97,52.94,33.34,51.97,34.34z"/><path d="M77.08,48.29c-0.41-0.41-0.67-0.69-0.81-0.88c-0.66-0.85-0.65-1.07-0.45-2.21c0.09-0.6,0.23-1.5,0.35-2.99  c0.18-2.12-0.01-3.89-0.52-4.99c-0.01-0.03-1.33-2.68-6.24-4.4c-0.36-0.13-0.66-0.18-0.98-0.16c-0.54,0.03-1.05,0.18-1.28,0.34  c-0.01,0-0.01,0-0.01,0c-0.01,0-0.01,0.01-0.01,0.01c-0.04,0.03-0.09,0.01-0.13,0.01c-0.04,0-0.06,0.01-0.1,0.01  c-0.05-0.01-0.09-0.06-0.14-0.1c-0.01-0.01-0.04-0.03-0.05-0.04v-0.01h-0.01c0-0.01-0.39-0.72-0.62-1.07  c-0.34-0.49-1.18-1.28-2.2-1.19c-0.98,0.12-1.66,1.01-1.86,1.8c-0.22,0.87,0.12,1.6,0.27,1.89c0.01,0.03,0,0.05,0.01,0.06  c0.01,0.05,0.01,0.08,0.01,0.12c0,0.05-0.01,0.08-0.04,0.12c-0.01,0.03,0,0.05-0.01,0.06c-0.03,0.03-0.04,0.03-0.05,0.03  c-0.03,0.01-0.03,0.04-0.04,0.05c-0.04,0.01-0.08,0.03-0.12,0.03c-0.01,0-0.01,0.01-0.03,0.01s-0.01,0-0.01,0  c-0.08,0-0.14-0.03-0.19-0.06c-0.01-0.01-0.01,0-0.03-0.01c-0.3-0.26-0.96-0.48-1.63-0.34c-0.74,0.16-1.38,0.82-1.58,1.59  c-0.28,1.13,0.49,1.99,0.49,1.99c0.01,0.01,0.01,0.04,0.03,0.04c0.09,0.13,0.09,0.31-0.03,0.43c-0.12,0.12-0.32,0.12-0.45,0  c-0.17-0.17-1.19-0.03-1.93,0.71c-0.53,0.53-0.76,1.33-0.6,2.04c0.05,0.21,0.14,0.4,0.3,0.6c0,0.01,0,0.01,0,0.01l0.18,0.17  c0.12,0.13,0.12,0.34,0,0.45c-0.13,0.13-0.34,0.13-0.47,0l-8.06-8.06c-1.41-1.44-3.01-1.58-3.43-1.19c-0.13,0.13-0.19,0.39-0.19,0.7  c0,0.69,0.36,1.77,1.36,2.77l9.28,9.28c0.03,0.03,0.04,0.04,0.05,0.08c1.55,2.39,3.48,4.5,5.71,6.26c2.41,1.9,5.1,3.35,8.01,4.31  c0.05,0.01,0.1,0.04,0.13,0.09l11.24,12.76L90,59.57l-7.23-6.07C79.4,50.54,77.81,49.03,77.08,48.29z"/><path d="M36.88,45.39h0.01c0.75,0,1.32-0.27,1.99-0.62c0.52-0.28,0.97-0.52,1.36-0.71c0.89-0.47,1.44-0.75,1.79-1  c1.19-0.85,1.73-1.24,1.89-1.89c0.17-0.7-0.08-1.51-0.6-2.03c-0.32-0.32-0.76-0.58-1.2-0.71c-0.18-0.05-0.34-0.08-0.45-0.08  c-0.14,0-0.23,0.03-0.27,0.06c-0.88,0.88-1.75,1.57-2.68,2.29c-0.98,0.76-1.99,1.57-3.09,2.65c-0.14,0.14-0.23,0.31-0.28,0.49  c-0.1,0.43,0.1,0.97,0.49,1.27C36.17,45.38,36.58,45.38,36.88,45.39z"/><path d="M35.5,39.96c0.27,0.08,0.56,0.08,0.85,0.04c-0.1-0.34-0.69-1.49-1.22-2.46c0,0,0-0.01-0.01-0.01v-0.01l-0.27-0.62  l-1.23,0.76C33.88,38.82,34.61,39.71,35.5,39.96z"/><path d="M34.61,41.77c-0.34,0-0.63-0.08-0.93-0.21c0.09,0.17,0.21,0.35,0.38,0.52c0.19,0.21,0.48,0.49,0.89,0.53  c0.17,0,0.4-0.01,0.61-0.06c0.97-0.93,1.89-1.66,2.77-2.34c0.91-0.71,1.77-1.38,2.61-2.24c0.1-0.12,0.76-0.94,0.5-2.01  c-0.19-0.79-0.83-1.44-1.58-1.59c-0.7-0.14-1.38,0.08-1.68,0.39c-0.22,0.22-1.57,1.76-2.37,2.68c1.28,2.35,1.23,2.56,1.2,2.69  c-0.01,0.05-0.05,0.09-0.06,0.14c0,0.1-0.05,0.19-0.13,0.25c-0.36,0.65-1.15,1.16-1.98,1.24C34.76,41.77,34.68,41.77,34.61,41.77z"/><path d="M35.42,36.58c0.01,0.03,0.04,0.06,0.05,0.1l0.04,0.1c0.63-0.72,1.97-2.25,2.21-2.5c0,0,0.01,0,0.01-0.01  c0.17-0.28,0.48-1.02,0.26-1.88c-0.21-0.8-0.92-1.68-1.85-1.79c-1.03-0.1-1.86,0.7-2.2,1.2c-0.16,0.22-0.38,0.6-0.5,0.84  c0.36,0.36,1.11,1.27,1.57,2.86c0.06,0.21,0.17,0.48,0.3,0.79L35.42,36.58z"/><path d="M43.91,42.4c-0.36,0.36-0.85,0.71-1.49,1.18l-0.19-0.26l0.18,0.26c-0.38,0.28-0.94,0.57-1.86,1.05  c-0.39,0.21-0.84,0.43-1.36,0.71c-0.72,0.38-1.4,0.7-2.29,0.7h-0.01c-0.35-0.01-0.93-0.01-1.45-0.41c-0.58-0.45-0.88-1.25-0.71-1.93  c0.04-0.16,0.1-0.31,0.18-0.45h-0.01c-0.65-0.04-1.06-0.47-1.31-0.71c-0.03-0.03-0.04-0.05-0.06-0.08c0.08,1.36,0.14,3.23,0.03,3.74  c-0.3,1.36-0.88,2.42-0.91,2.47c-0.16,0.27-0.3,0.5-0.41,0.66c-0.05,0.09-0.16,0.14-0.26,0.14c-0.06,0-0.13-0.01-0.18-0.05  c-0.16-0.1-0.19-0.31-0.09-0.45c0.1-0.14,0.23-0.36,0.38-0.62c0.01,0,0.57-1.02,0.84-2.28c0.14-0.61-0.05-3.97-0.12-4.97  c-0.18-0.12-0.36-0.26-0.56-0.4c-0.6-0.43-1.19-0.88-1.67-1.5c-0.21,0.14-0.49,0.26-0.87,0.26c-0.34,0-0.72-0.09-1.16-0.35  c-1.38-0.81-1.38-1.16-1.38-1.28c0-0.17,0.16-0.32,0.32-0.32c0.16,0,0.28,0.1,0.32,0.25c0.03,0.05,0.22,0.3,1.06,0.8  c0.75,0.44,1.19,0.23,1.37,0.1c-0.09-0.17-0.18-0.32-0.25-0.52c-0.5-1.42-0.13-2.72,0.14-3.38c0.06-0.16,0.26-0.23,0.41-0.17  c0.17,0.06,0.25,0.26,0.18,0.41c-0.23,0.57-0.56,1.71-0.13,2.91c0.38,1.07,1.14,1.63,2.02,2.26c0.82,0.58,1.41,1.02,2.16,0.94  c0.4-0.04,0.79-0.23,1.1-0.47c-0.19-0.01-0.38-0.03-0.56-0.08c-1.2-0.32-2.11-1.49-2.37-3.03c-0.03-0.13,0.03-0.26,0.14-0.34  l1.51-0.93c-0.09-0.22-0.17-0.41-0.22-0.58c-0.52-1.81-1.45-2.64-1.54-2.72c-0.25-0.14-0.72-0.3-1.27-0.32  c-0.32-0.03-0.62,0.03-0.98,0.16c-4.92,1.72-6.22,4.37-6.24,4.4c-0.5,1.09-0.7,2.91-0.53,4.99c0.12,1.49,0.27,2.39,0.36,2.99  c0.19,1.14,0.21,1.36-0.45,2.21c-0.14,0.19-0.4,0.47-0.82,0.88c-0.74,0.74-2.33,2.25-5.69,5.21l-0.17,0.14L10,59.57l9.82,9.82  l11.23-12.76c0.04-0.04,0.09-0.08,0.14-0.09c2.92-0.97,5.61-2.41,7.99-4.31c2.23-1.76,4.14-3.87,5.71-6.26  c0.03-0.05,0.06-0.09,0.12-0.13l4.54-4.54l-2.28-2.26L43.91,42.4z"/></svg>