<svg height="64px" width="64px" xmlns="http://www.w3.org/2000/svg" xmlns:xlink="http://www.w3.org/1999/xlink" version="1.1" x="0px" y="0px" viewBox="0 0 100 125" style="enable-background:new 0 0 100 100;" xml:space="preserve"><path d="M15.7,58.1c1.3-1.6,2.4-3.4,3.3-5.3c1.3-2.8,2-5.5,2.5-7.4c0.6-2.3,0.9-3.7,2.2-3.8c0,0,0,0,0,0c1.4,0,1.9,1.8,2.5,4  c0.3,1.1,0.9,3.1,1.3,3.4c0,0,0.3-0.1,0.6-0.3c0.9-0.8,1.8-3.3,1.9-10.8v-0.3c0-3,1.8-5,4.4-5H45c0.6,0,1-0.3,1.4-0.8  c1-1.7,0.5-5.5-0.3-6.8c-0.8-1.3-2.3-2.2-3.9-2.2H23.7C16.2,22.8,10,29,10,36.5V41c0,3.3,0.9,6.5,2.6,9.3C14,52.7,15,55.3,15.7,58.1  z"/><path d="M46.4,41c0-2.2-0.4-4.4-1.2-6.4c-0.1,0-0.1,0-0.1,0H34.3c-2.2,0-2.4,2.4-2.4,3.1V38c0,4.2-0.3,10.1-2.5,12.2  C28.8,50.7,28,51,27.2,51c-1.7-0.1-2.3-2.4-3-4.8c-0.2-0.5-0.3-1.2-0.5-1.8c-0.1,0.4-0.3,1-0.4,1.5c-0.5,2-1.2,4.8-2.6,7.8  c-1.2,2.5-2.7,4.8-4.6,7c0.2,1.6,0.4,3.2,0.4,4.8v11.7h16.1V65.7c0-0.6,0.4-1,1-1H43c1.9,0,3.4-1.5,3.4-3.4v-1.8L42,57.9  c-0.4-0.2-0.7-0.5-0.7-0.9c0-0.4,0.3-0.8,0.7-0.9l4.3-1.6v-2.5c0-0.6,0.4-1,1-1h3.8c0.5,0,0.7-0.3,0.8-0.5c0.2-0.3,0.2-0.7,0-0.9  l-5.3-7.9C46.4,41.4,46.4,41.2,46.4,41z"/><polygon points="59.6,61.9 55.9,60.4 55.9,70.2 59.6,70.2 "/><path d="M83.3,69.5l1.7,0.7c2.4-0.2,5-5.6,5-13.3c0-7.7-2.6-13.1-5-13.3l-1.6,0.7c-2.1,1.9-3.6,7-3.6,12.6  C79.8,62.5,81.2,67.6,83.3,69.5z"/><path d="M61,60.4l19,7.8c-1.4-2.8-2.2-6.8-2.2-11.2c0-4.4,0.8-8.4,2.2-11.2l-24.2,9.9v2.7L61,60.4C61,60.4,61,60.4,61,60.4z"/></svg>