<?xml version="1.0" standalone="no"?>
<!DOCTYPE svg PUBLIC "-//W3C//DTD SVG 20010904//EN"
 "http://www.w3.org/TR/2001/REC-SVG-20010904/DTD/svg10.dtd">
<svg version="1.0" xmlns="http://www.w3.org/2000/svg"
 width="840.000000pt" height="840.000000pt" viewBox="0 0 840.000000 840.000000"
 preserveAspectRatio="xMidYMid meet">
<metadata>
Created by potrace 1.14, written by Peter Selinger 2001-2017
</metadata>
<g transform="translate(0.000000,840.000000) scale(0.100000,-0.100000)"
fill="#000000" stroke="none">
<path d="M3550 7192 c-19 -2 -43 -12 -52 -22 -21 -22 -135 -260 -176 -365 -10
-28 -22 -59 -27 -70 -4 -11 -9 -27 -10 -35 -1 -8 -7 -37 -13 -65 -30 -124 -24
-178 21 -202 35 -18 167 -64 167 -58 0 2 17 -3 37 -11 20 -9 44 -17 52 -19 16
-4 393 -131 421 -142 8 -3 20 -7 25 -9 89 -24 416 -154 487 -194 10 -5 36 -14
58 -19 38 -8 44 -7 76 21 19 17 34 36 34 44 0 8 4 22 10 32 5 9 19 40 31 67
12 28 30 61 39 75 21 29 81 200 71 200 -3 0 -7 27 -8 61 -3 77 -38 143 -113
216 -30 29 -58 53 -63 53 -4 0 -18 9 -30 21 -27 25 -201 114 -257 130 -22 7
-40 15 -40 19 0 4 -11 12 -24 18 -24 11 -25 9 -36 -41 -16 -76 -45 -159 -91
-262 -13 -27 -23 -52 -23 -55 -3 -20 -130 -259 -136 -255 -10 6 -11 125 -1
140 3 6 6 12 7 15 0 3 6 18 12 33 7 16 12 33 12 38 0 5 5 17 10 27 6 9 28 71
50 136 57 177 46 266 -40 318 -79 47 -102 58 -193 92 -115 43 -239 72 -287 68z"/>
<path d="M4940 6418 c-17 -10 -36 -41 -65 -113 -23 -55 -49 -115 -58 -132 -10
-18 -17 -36 -16 -39 0 -4 -3 -10 -8 -13 -16 -11 -112 -184 -107 -193 3 -4 12
-8 20 -8 32 0 170 -63 210 -95 58 -48 75 -89 76 -188 1 -141 -29 -226 -110
-306 -53 -52 -147 -102 -237 -126 -33 -9 -71 -20 -85 -25 -23 -9 -40 -13 -115
-27 -47 -8 -60 -11 -60 -13 0 -5 -231 -24 -265 -21 -82 7 -84 4 -38 -36 23
-21 65 -59 93 -85 l50 -48 15 22 c31 45 62 78 75 78 16 0 36 -47 37 -89 1 -40
11 -46 73 -47 28 -1 96 -5 151 -9 91 -6 107 -5 149 14 26 11 56 32 67 46 23
29 39 31 73 9 37 -24 38 -42 3 -74 -31 -29 -31 -30 -19 -72 19 -63 83 -120
152 -137 69 -17 165 -9 216 18 40 20 163 135 163 151 0 6 4 10 8 10 5 0 39 41
76 90 123 164 222 387 252 565 10 57 8 71 -17 123 -44 90 -132 163 -210 175
-46 7 -72 -18 -121 -118 -19 -38 -56 -105 -82 -148 -25 -43 -46 -82 -46 -87 0
-5 -3 -10 -8 -12 -4 -1 -30 -39 -57 -83 -27 -44 -73 -114 -102 -155 -29 -41
-74 -107 -100 -147 -52 -79 -82 -92 -116 -53 -22 26 -22 44 2 78 250 360 465
734 490 852 25 120 -45 303 -152 397 -78 67 -200 101 -257 71z"/>
<path d="M2861 6332 c-37 -18 -99 -117 -100 -159 -1 -12 -5 -25 -11 -28 -5 -3
-14 -24 -20 -47 -6 -22 -16 -52 -22 -67 -14 -32 -13 -30 -22 -66 -4 -16 -13
-43 -19 -60 -6 -16 -12 -34 -14 -40 -1 -5 -11 -44 -22 -85 -12 -41 -23 -84
-26 -95 -3 -11 -19 -69 -36 -130 -54 -193 -48 -270 34 -392 15 -24 25 -43 21
-43 -4 0 0 -8 9 -17 8 -10 15 -22 15 -26 0 -4 9 -31 19 -60 11 -29 30 -83 42
-122 13 -38 29 -78 36 -88 11 -16 15 -12 35 35 12 29 28 56 34 60 30 20 77 -1
82 -37 1 -7 -13 -29 -31 -49 -73 -83 -81 -177 -23 -291 20 -38 43 -83 51 -99
l15 -28 25 54 c28 60 40 70 74 57 33 -12 44 -41 28 -70 -58 -102 -73 -144 -70
-197 3 -54 37 -138 77 -190 l17 -24 17 41 c14 35 58 81 78 81 3 0 6 -20 6 -43
0 -43 -24 -107 -40 -107 -12 0 -31 -52 -33 -91 -2 -48 23 -128 44 -139 14 -8
22 -4 39 20 24 33 36 36 64 15 19 -14 19 -16 2 -52 -57 -120 -66 -229 -32
-408 21 -110 26 -139 29 -141 2 -2 16 22 32 54 17 31 42 78 56 103 15 26 37
74 49 107 24 65 44 81 80 62 26 -14 25 -26 -5 -75 -14 -22 -28 -47 -31 -55 -3
-8 -39 -89 -80 -180 -69 -157 -79 -184 -90 -255 -12 -81 2 -221 28 -269 11
-20 11 -20 22 4 6 14 13 27 17 30 3 3 10 16 14 30 4 14 19 42 31 62 13 21 24
40 24 43 0 6 31 51 60 88 33 42 90 38 90 -7 0 -12 -11 -36 -25 -52 -102 -117
-209 -316 -231 -429 -17 -88 -26 -229 -16 -249 2 -4 6 -31 8 -58 5 -62 13 -76
28 -50 28 50 45 80 68 122 13 25 34 61 45 80 60 104 85 151 87 162 5 23 19 53
29 59 14 10 44 -1 63 -22 17 -19 17 -22 -1 -55 -10 -19 -29 -46 -40 -59 -12
-12 -36 -52 -53 -86 -32 -65 -68 -129 -102 -184 -34 -52 -87 -159 -95 -190
-15 -53 -19 -126 -11 -179 10 -63 2 -71 101 97 55 93 131 183 175 207 30 16
25 6 -122 -249 -27 -47 -58 -132 -58 -158 0 -31 35 -38 118 -23 80 15 136 39
178 77 38 34 84 106 90 141 3 14 10 35 16 46 6 12 11 22 10 23 -1 2 1 9 4 17
7 19 31 27 59 20 48 -12 41 -40 -41 -162 -48 -71 -54 -100 -26 -124 38 -33 53
-30 94 14 21 23 44 52 51 64 7 12 22 39 34 61 33 61 71 102 114 123 57 30 93
23 54 -10 -8 -7 -15 -17 -15 -22 0 -5 -5 -14 -10 -21 -40 -48 -70 -92 -70
-103 0 -8 -4 -14 -9 -14 -7 0 -31 -51 -31 -65 0 -6 38 -18 73 -22 53 -7 95 13
142 66 80 91 148 161 157 161 14 0 -1 -39 -38 -101 -52 -86 -45 -109 33 -109
37 0 82 27 133 79 14 14 35 34 47 45 l22 18 -3 -36 c-2 -20 -9 -43 -15 -50
-16 -19 -1 -28 44 -28 62 0 60 -6 41 162 -2 14 -7 48 -11 75 -4 28 -8 76 -9
107 0 32 -3 58 -6 58 -3 0 -5 19 -6 43 -1 37 -6 108 -19 267 -2 25 -6 65 -9
90 -3 25 -8 68 -10 95 -5 53 -14 127 -22 185 -3 19 -7 64 -10 100 -2 36 -6 79
-9 95 -2 17 -7 53 -10 80 -3 28 -8 64 -10 80 -7 57 -19 189 -30 335 -14 174
-1 234 73 348 23 36 52 69 145 164 42 43 77 83 77 89 0 5 6 9 13 10 13 0 89
101 174 229 49 74 137 229 131 231 -2 0 -14 2 -28 5 -175 29 -232 60 -275 148
-15 31 -32 59 -37 62 -5 3 -28 -7 -51 -22 -62 -42 -118 -39 -189 9 -47 33 -59
37 -93 31 -22 -3 -48 -7 -59 -8 -10 -1 -24 -10 -31 -20 -11 -14 -8 -31 14 -98
15 -44 27 -97 26 -117 -3 -46 -15 -150 -20 -176 -4 -20 -13 -100 -19 -166 -6
-66 -36 -145 -71 -192 -20 -26 -40 -47 -44 -47 -11 0 -7 88 7 165 6 33 14 76
17 95 3 19 10 53 15 75 5 22 8 85 6 140 -4 141 -41 246 -130 375 -17 25 -33
47 -36 50 -3 3 -30 37 -60 75 -123 157 -146 169 -343 180 -80 4 -167 23 -167
37 0 5 -4 7 -8 4 -5 -3 -26 9 -46 26 -59 49 -27 55 159 31 125 -16 505 -8 597
13 13 3 30 6 38 6 19 0 150 27 170 35 8 4 18 5 23 5 11 -3 137 34 177 51 62
27 131 84 172 141 22 31 37 56 34 56 -3 0 2 17 11 38 16 39 27 190 14 210 -4
6 -31 14 -61 16 -75 6 -93 11 -217 55 -59 21 -153 53 -208 71 -55 18 -116 40
-135 48 -19 9 -37 16 -40 17 -10 1 -125 47 -142 56 -10 5 -22 9 -28 9 -6 0
-29 9 -53 19 -40 18 -136 55 -147 57 -3 0 -22 8 -44 17 -21 9 -41 17 -43 17
-3 0 -19 7 -36 15 -36 16 -258 93 -291 100 -11 2 -39 9 -61 15 -22 6 -53 13
-70 16 -16 3 -37 7 -45 10 -8 3 -33 8 -55 10 -22 3 -47 7 -55 10 -8 3 -64 7
-125 9 -88 3 -117 0 -144 -13z"/>
<path d="M1089 5643 c-26 -13 -58 -40 -72 -61 -24 -33 -52 -116 -62 -182 -2
-14 -9 -50 -15 -80 -6 -30 -13 -70 -16 -89 -3 -18 -8 -43 -11 -55 -2 -11 -6
-33 -8 -47 -3 -15 -8 -45 -14 -67 -9 -40 -9 -108 0 -117 3 -2 38 -7 79 -11 41
-3 78 -8 83 -11 4 -2 20 -7 35 -9 47 -9 231 -73 327 -114 19 -9 124 -40 132
-40 2 0 3 117 1 260 -2 143 -7 260 -11 260 -5 0 -5 5 -2 10 9 14 -24 177 -43
215 -34 69 -132 136 -220 151 -83 14 -136 10 -183 -13z"/>
<path d="M1698 5549 c-32 -3 -65 -12 -73 -19 -17 -14 -19 -49 -6 -100 25 -95
31 -274 16 -503 -9 -132 -3 -168 36 -212 27 -30 58 -45 124 -59 34 -8 115 -32
213 -66 128 -43 117 -48 127 60 21 232 25 495 9 581 -36 190 -152 293 -364
321 -14 2 -51 1 -82 -3z"/>
<path d="M2286 5222 c-2 -4 -7 -48 -11 -98 -13 -196 -20 -299 -31 -429 -6 -80
-7 -101 -5 -131 1 -21 64 -99 80 -99 5 0 13 -3 17 -7 4 -5 16 -8 28 -8 11 0
39 -9 62 -20 60 -30 75 -71 69 -197 -2 -54 -6 -109 -9 -123 -3 -14 -11 -51
-17 -83 -5 -33 -14 -70 -19 -83 -9 -22 -70 -61 -107 -67 -10 -1 -22 -5 -28 -8
-5 -4 -26 -12 -47 -18 -43 -14 -57 -40 -31 -59 96 -72 177 -85 247 -38 86 56
139 156 151 281 1 17 8 55 14 85 6 30 13 75 16 100 3 25 8 59 12 75 10 54 9
196 -3 264 -21 119 -44 194 -101 326 -22 50 -59 139 -83 198 -23 60 -49 115
-58 123 -10 11 -30 14 -66 12 -28 -1 -56 1 -63 5 -6 4 -14 4 -17 -1z"/>
<path d="M6212 4833 c-54 -77 -105 -228 -119 -354 -5 -45 -4 -47 24 -51 24 -5
58 -16 143 -46 8 -3 20 -6 25 -7 6 0 28 -6 50 -12 22 -6 81 -21 130 -33 50
-12 101 -25 115 -30 14 -5 39 -11 56 -14 l32 -5 5 72 c5 73 6 78 30 157 11 35
12 52 3 78 -16 46 -69 97 -130 126 -28 13 -107 52 -176 85 -69 34 -135 61
-147 61 -12 0 -30 -12 -41 -27z"/>
<path d="M865 4805 c-64 -32 -127 -89 -153 -141 -21 -41 -28 -82 -38 -214 -11
-158 -18 -209 -33 -239 -26 -53 -7 -160 48 -269 30 -60 31 -62 13 -80 -18 -18
-30 -39 -74 -125 -20 -40 -33 -160 -23 -208 7 -29 43 -50 72 -43 21 6 28 15
79 111 45 85 47 88 78 91 20 1 26 -3 26 -18 0 -32 -46 -138 -76 -173 -44 -52
-54 -86 -41 -135 6 -23 15 -42 19 -42 4 0 8 -4 8 -10 0 -5 8 -19 18 -31 9 -11
24 -29 32 -39 8 -9 29 -20 45 -24 24 -5 33 -2 45 15 8 12 20 27 26 33 6 6 16
27 23 46 21 66 46 95 91 109 23 7 44 11 46 9 5 -6 -43 -95 -93 -170 -79 -119
-64 -201 49 -271 l27 -17 21 42 c11 23 20 49 20 58 0 9 3 20 7 24 5 4 8 11 8
14 1 15 37 79 61 107 19 23 26 27 33 16 16 -25 2 -82 -40 -169 -24 -48 -44
-92 -45 -98 -1 -6 -5 -26 -9 -44 -6 -29 -3 -36 40 -76 26 -24 51 -44 55 -44 4
0 20 26 37 58 67 130 94 163 154 189 32 13 31 6 -4 -57 -11 -19 -32 -57 -47
-85 -15 -27 -41 -75 -58 -105 -40 -71 -36 -100 25 -160 43 -43 68 -84 64 -105
-1 -5 7 1 18 15 11 14 18 27 16 29 -3 2 4 16 14 30 21 31 61 116 61 131 0 5 5
10 10 10 6 0 10 7 10 15 0 22 43 19 64 -4 22 -24 14 -53 -23 -97 -29 -33 -106
-174 -95 -174 4 0 2 -6 -4 -13 -6 -7 -19 -46 -30 -86 -24 -93 -21 -238 5 -310
9 -22 13 -18 57 55 27 44 64 102 82 129 18 28 39 66 45 84 9 26 16 32 33 27
11 -3 24 -6 29 -6 12 0 8 -45 -8 -83 -8 -20 -28 -51 -43 -69 -64 -74 -187
-274 -196 -318 -17 -84 -21 -117 -20 -135 6 -50 12 -86 17 -91 5 -5 55 63 145
198 56 83 110 143 155 171 23 15 27 15 27 2 0 -8 -4 -15 -10 -15 -5 0 -10 -4
-10 -10 0 -9 -186 -299 -208 -326 -11 -12 -32 -51 -32 -57 0 -16 89 -31 133
-23 36 7 88 49 106 86 7 14 36 64 64 112 58 97 91 124 131 108 l26 -10 -18
-32 c-27 -51 -53 -89 -92 -138 -20 -25 -43 -57 -53 -71 -16 -26 -16 -27 11
-38 41 -15 83 -16 126 -2 42 14 54 24 155 118 36 35 72 63 79 63 6 0 12 4 12
9 0 5 7 12 16 15 24 9 8 -31 -38 -90 -44 -59 -65 -114 -46 -125 7 -5 17 -4 23
0 5 5 20 7 33 5 16 -3 36 8 67 37 l44 41 39 -41 c50 -53 88 -56 126 -9 15 18
32 39 38 47 7 8 14 22 16 30 8 31 3 126 -7 152 -6 17 -8 168 -4 425 6 507 7
476 -11 519 -25 59 -20 82 28 137 24 28 59 80 77 117 19 36 36 68 39 71 3 3
29 51 58 108 67 132 67 149 -2 216 -114 112 -201 118 -314 24 -37 -32 -67 -35
-100 -12 -29 20 -28 27 13 73 62 69 54 94 -36 106 -24 3 -53 7 -63 9 -31 4
-56 44 -56 87 0 45 -18 59 -53 40 -34 -18 -107 -27 -164 -21 -85 9 -88 5 -49
-70 19 -36 57 -105 85 -155 28 -49 62 -119 76 -155 21 -57 65 -219 79 -290 2
-14 9 -45 15 -70 14 -58 14 -135 0 -185 -11 -40 -57 -111 -66 -101 -3 2 -7 23
-9 45 -2 23 -6 52 -8 66 -3 14 0 25 5 25 6 0 8 4 5 8 -3 5 -8 35 -11 68 -9 89
-11 107 -18 129 -4 11 -9 34 -11 50 -2 17 -12 55 -22 85 -10 30 -18 57 -19 60
-9 29 -104 226 -128 265 -76 123 -111 163 -182 206 -35 21 -52 24 -150 25
-115 1 -199 20 -231 52 -15 14 -11 17 48 37 54 18 90 22 238 24 317 4 545 10
570 15 109 18 152 36 183 78 42 56 51 100 51 249 1 162 -11 174 -177 185 -109
7 -120 8 -172 19 -22 5 -46 8 -52 7 -7 -2 -13 1 -13 5 0 4 -13 9 -29 10 -16 1
-69 18 -117 37 -103 40 -147 57 -154 58 -3 1 -21 8 -40 16 -75 31 -85 35 -96
37 -6 2 -27 10 -45 18 -19 8 -83 34 -144 57 -60 23 -119 46 -130 50 -11 4 -40
16 -65 25 -25 9 -58 23 -75 30 -95 41 -122 43 -190 10z"/>
<path d="M6822 4543 c-5 -10 -19 -52 -31 -93 -12 -41 -26 -84 -30 -95 -25 -61
28 -139 102 -152 39 -7 135 -59 196 -107 60 -47 63 -51 40 -56 -62 -16 -145
-10 -219 15 -41 14 -82 28 -90 30 -8 2 -16 4 -17 5 -3 3 -3 3 -48 15 -16 4
-36 12 -42 18 -7 5 -13 7 -13 3 0 -3 -16 0 -35 8 -19 8 -35 13 -35 11 0 -2
-16 3 -35 11 -19 8 -37 14 -40 14 -3 0 -6 0 -7 1 -2 0 -10 2 -18 4 -8 2 -64
18 -125 35 -60 17 -137 38 -170 46 -77 20 -77 20 -162 43 -40 10 -73 17 -73
15 0 -2 -17 2 -37 9 -95 31 -146 6 -208 -102 -18 -31 -58 -96 -89 -145 -31
-49 -56 -95 -56 -103 0 -7 -4 -13 -10 -13 -5 0 -9 -3 -8 -7 2 -8 -18 -50 -72
-148 -90 -166 -191 -395 -173 -395 3 0 0 -6 -6 -13 -6 -8 -12 -23 -14 -35 -2
-12 -6 -25 -10 -28 -9 -10 -9 -24 1 -24 10 0 63 51 80 76 6 10 24 43 38 72 15
28 31 53 38 53 40 4 70 -21 61 -51 -3 -11 -19 -27 -34 -36 -32 -19 -112 -148
-135 -216 -23 -69 -12 -110 48 -185 22 -29 43 -52 46 -53 3 0 18 24 33 54 33
62 71 102 109 111 25 7 26 5 21 -27 -3 -18 -10 -39 -15 -45 -6 -7 -7 -13 -2
-13 5 0 5 -4 -1 -8 -5 -4 -25 -26 -43 -50 -62 -80 -57 -155 14 -193 28 -15 34
-11 74 52 8 13 27 36 42 52 23 23 31 26 47 17 19 -10 19 -11 3 -40 -9 -16 -20
-30 -24 -30 -5 0 -8 -6 -8 -13 0 -7 -10 -28 -23 -47 -40 -60 -40 -67 4 -115
53 -57 77 -58 103 -4 37 76 90 102 124 61 21 -26 14 -41 -43 -94 l-55 -51 23
-40 c32 -58 67 -77 120 -65 23 5 44 12 47 16 12 17 70 52 70 43 0 -14 -46 -96
-84 -151 -44 -64 -84 -141 -100 -194 -16 -51 -19 -336 -4 -336 5 0 14 11 20
25 6 14 14 25 18 25 4 0 15 18 25 40 10 22 22 40 27 40 4 0 8 6 8 13 0 17 85
145 121 183 16 17 48 41 69 53 l40 22 -18 -30 c-9 -17 -20 -31 -24 -31 -5 0
-8 -5 -8 -11 0 -5 -17 -36 -38 -67 -21 -31 -58 -91 -83 -132 -24 -41 -46 -77
-49 -80 -3 -3 -11 -16 -17 -30 -7 -14 -26 -48 -42 -77 -17 -29 -27 -54 -23
-56 17 -9 123 -7 159 2 51 14 116 71 144 125 35 72 62 99 97 100 18 0 32 5 32
10 0 5 7 3 15 -4 13 -10 9 -18 -25 -54 -21 -22 -50 -57 -64 -76 -14 -19 -29
-40 -34 -45 -5 -6 -12 -23 -16 -38 -6 -25 -3 -28 24 -33 17 -4 33 -11 36 -15
8 -14 71 -11 107 5 38 16 74 55 112 122 51 89 95 119 159 107 26 -5 26 -6 10
-32 -10 -14 -48 -56 -86 -93 -37 -36 -68 -74 -68 -82 0 -21 43 -38 96 -39 42
-1 114 27 114 43 0 6 4 10 9 10 6 0 27 16 48 35 79 74 187 127 131 65 -33 -36
-80 -100 -74 -100 3 0 1 -11 -4 -24 -12 -32 -3 -38 26 -20 23 16 56 15 126 -2
29 -7 67 22 69 54 4 47 7 77 9 82 1 3 1 10 0 15 -2 6 -4 59 -6 118 -1 65 -7
114 -14 123 -20 23 -57 16 -88 -17 -34 -36 -78 -42 -99 -13 -21 29 -15 50 22
78 77 59 137 136 201 256 16 30 32 57 35 60 16 14 99 180 99 198 0 26 -32 57
-90 87 -57 30 -126 89 -133 114 -5 22 18 61 36 61 7 0 25 -14 41 -30 25 -25
38 -30 83 -31 29 -1 63 -2 76 -3 58 -4 171 33 219 73 7 6 47 38 88 72 110 88
175 163 215 247 20 41 38 82 40 93 2 10 6 23 9 28 3 5 8 26 12 47 3 22 7 52
10 67 7 41 7 41 4 50 -4 12 -7 26 -9 37 0 5 -23 34 -50 64 -35 39 -52 51 -59
43 -8 -12 -54 -106 -85 -177 -105 -241 -157 -338 -201 -381 -42 -40 -154 -103
-184 -102 -9 0 -21 -3 -27 -7 -17 -13 -338 -4 -366 10 -38 19 -137 129 -134
148 2 9 4 20 4 24 1 4 12 15 26 24 25 16 27 16 58 -13 51 -47 90 -67 178 -90
38 -10 249 -11 249 -2 0 5 3 8 8 7 14 -3 57 21 78 44 11 13 38 50 60 83 21 33
42 62 45 65 3 3 29 52 58 110 56 115 88 226 98 338 l6 73 -50 47 c-28 26 -70
58 -93 72 -23 14 -59 40 -80 57 l-37 33 -11 -26 c-7 -14 -12 -31 -12 -39 0 -8
-4 -15 -10 -15 -5 0 -10 -6 -10 -12 0 -7 -16 -55 -35 -106 -19 -51 -37 -101
-39 -110 -1 -9 -6 -24 -9 -32 -3 -8 -11 -35 -17 -60 -24 -99 -54 -148 -107
-180 -53 -31 -82 -35 -318 -44 -77 -4 -149 -8 -160 -10 -11 -3 -26 -5 -33 -5
-9 -1 -9 -6 2 -24 21 -31 75 -164 87 -212 5 -22 12 -49 15 -60 6 -20 8 -32 18
-95 26 -158 27 -350 1 -565 -3 -22 -7 -62 -9 -88 -3 -26 -8 -52 -11 -57 -3 -5
-8 -26 -10 -46 -3 -41 -20 -57 -50 -48 -24 8 -20 3 -32 39 -7 22 -6 44 3 80 8
28 17 66 21 85 10 43 9 520 0 574 -21 113 -121 338 -174 389 -39 36 -55 38
-138 17 -77 -19 -89 -17 -189 31 -59 29 -59 29 -25 31 52 2 69 3 134 12 113
14 130 17 180 26 28 6 70 12 95 15 25 3 56 7 70 10 13 3 49 7 80 10 31 3 66 7
78 10 13 2 62 5 111 6 150 3 193 29 242 148 24 58 33 98 39 169 8 104 21 128
75 134 24 3 34 13 53 51 29 61 31 142 4 169 -7 7 -12 18 -12 25 0 7 -4 13 -10
13 -5 0 -10 6 -10 14 0 8 -3 16 -7 18 -5 2 -21 23 -38 47 -52 76 -138 158
-200 190 -68 35 -91 38 -103 14z"/>
<path d="M2783 4338 c0 -7 -3 -33 -7 -58 -8 -60 -16 -142 -21 -215 -9 -125
-19 -165 -67 -262 -16 -33 -99 -118 -137 -141 -19 -12 -28 -23 -22 -26 6 -4
11 -5 11 -2 0 9 112 -33 186 -71 l74 -38 35 40 c20 22 51 72 69 110 32 65 34
76 32 160 -2 82 -9 109 -70 295 -66 195 -82 237 -83 208z"/>
</g>
</svg>
