<svg xmlns="http://www.w3.org/2000/svg" width="100%" height="100%" width="429" height="65.23886696893655" viewBox="0 0 369.9130434782609 56.25339821340957" class="looka-1j8o68f"><defs id="SvgjsDefs2752"></defs><g id="SvgjsG2753" featurekey="UFHKJ9-0" transform="matrix(0.8454106280193237,0,0,0.8454106280193237,-4.2270531400966185,-19.833558308329557)" fill=""><defs xmlns="http://www.w3.org/2000/svg"></defs><g xmlns="http://www.w3.org/2000/svg" transform="translate(0,-952.36218)"><polygon points="382,3162 382,3044 854,3044 854,3162 " class="fil0" style="fill: black;" transform="matrix(0.03174603,0,0,0.03174603,15.380952,921.34631)" fill="" fill-rule="evenodd"></polygon><polygon points="441,2985 441,2631 795,2631 795,2985 " class="fil0" style="fill: black;" transform="matrix(0.03174603,0,0,0.03174603,15.380952,921.34631)" fill="" fill-rule="evenodd"></polygon><polygon points="382,2572 382,2454 854,2454 854,2572 " class="fil0" style="fill: black;" transform="matrix(0.03174603,0,0,0.03174603,15.380952,921.34631)" fill="" fill-rule="evenodd"></polygon><path d="m 33.634919,986.1717 c 0.666667,-0.38095 1.587302,-0.0635 2.063492,0.76191 0.317461,0.53968 0.349207,1.14286 0.126984,1.61905 l 2.920635,5.07936 0,4.69841 -1.396825,0 0,-4.31746 -2.730159,-4.73016 c -0.507936,-0.0317 -1.015873,-0.38095 -1.333333,-0.92063 -0.476191,-0.79365 -0.285714,-1.77778 0.380952,-2.15873 z" class="fil0" style="fill: black;" fill="#000000" fill-rule="evenodd"></path><path d="m 33.444443,994.71139 -6.730158,-1.80953 c -2.253968,-2.25397 -3.396825,-6.47619 -6.666667,-6.73016 -2.063492,-0.19047 -3.873015,1.36508 -4.063491,3.42857 l -1.428572,16.82543 1.36508,0.127 0,13.365 c 0,1.0159 0.857142,1.873 1.873015,1.873 l 1.111111,0 c 1.015873,0 1.873016,-0.8571 1.873016,-1.873 l 0,-12.9523 1.238095,0.095 1.047619,-12.44445 c 0.539683,0.53968 1.396826,1.5873 2.126984,1.77777 l 7.269841,1.93651 c 0.984127,0.25397 2.031746,-0.31746 2.285714,-1.33333 0.253969,-0.98413 -0.349206,-2.03175 -1.333333,-2.28571 z" class="fil0" style="fill: black;" fill="#000000" fill-rule="evenodd"></path><path d="m 21.984126,976.9971 c 2.063492,0 3.746032,1.87302 3.746032,4.22222 0,2.31746 -1.68254,4.22222 -3.746032,4.22222 -2.063492,0 -3.746031,-1.87301 -3.746031,-4.22222 0,-2.31746 1.682539,-4.22222 3.746031,-4.22222 z" class="fil0" style="fill: black;" fill="#000000" fill-rule="evenodd"></path><path d="m 62.047616,1012.1717 c 2.063492,0 3.746032,1.873 3.746032,4.2222 0,2.3175 -1.68254,4.2222 -3.746032,4.2222 -2.063492,0 -3.746031,-1.873 -3.746031,-4.2222 0,-2.3174 1.682539,-4.2222 3.746031,-4.2222 z" class="fil0" style="fill: black;" fill="#000000" fill-rule="evenodd"></path><path d="m 76.460314,1012.1717 c 2.063492,0 3.746031,1.873 3.746031,4.2222 0,2.3175 -1.682539,4.2222 -3.746031,4.2222 -2.063492,0 -3.746032,-1.873 -3.746032,-4.2222 0,-2.3174 1.68254,-4.2222 3.746032,-4.2222 z" class="fil0" style="fill: black;" fill="#000000" fill-rule="evenodd"></path><path d="m 61.253965,1021.7273 c 2.063492,0 3.746032,1.6825 3.746032,3.746 l 0,16.8571 -7.492063,0 0,-16.8571 c 0,-2.0635 1.682539,-3.746 3.746031,-3.746 z" class="fil0" style="fill: black;" fill="#000000" fill-rule="evenodd"></path><path d="m 91.253964,1021.7273 c 2.063492,0 3.746031,1.6825 3.746031,3.746 l 0,16.8571 -7.492063,0 0,-16.8571 c 0,-2.0635 1.68254,-3.746 3.746032,-3.746 z" class="fil0" style="fill: black;" fill="#000000" fill-rule="evenodd"></path><path d="m 91.253964,1012.1717 c 2.063492,0 3.746031,1.873 3.746031,4.2222 0,2.3175 -1.682539,4.2222 -3.746031,4.2222 -2.063492,0 -3.746032,-1.873 -3.746032,-4.2222 0,-2.3174 1.68254,-4.2222 3.746032,-4.2222 z" class="fil0" style="fill: black;" fill="#000000" fill-rule="evenodd"></path><path d="m 81.317456,1012.2352 0.03175,6.9524 -2.698412,3.4285 c -0.666667,-0.5396 -1.492064,-0.8888 -2.412698,-0.8888 -2.063492,0 -3.746032,1.6825 -3.746032,3.746 l 0,16.8571 7.492063,0 0,-15.3968 4.730159,-5.9682 c 0.285714,-0.381 0.412698,-0.8254 0.412698,-1.2699 l -0.03175,-7.4921 c 0,-1.0158 -0.857143,-1.873 -1.873016,-1.873 l 0,0 c -1.015873,0 -1.873016,0.8572 -1.873016,1.873 z" class="fil0" style="fill: black;" fill="#000000" fill-rule="evenodd"></path><path d="m 76.174599,993.66377 c -0.31746,0 -0.571428,-0.0952 -0.79365,-0.28572 -0.222223,-0.19047 -0.349207,-0.47619 -0.349207,-0.82539 0,-0.31747 0.09524,-0.57143 0.317461,-0.79366 0.222222,-0.22222 0.47619,-0.31746 0.79365,-0.31746 0.317461,0 0.571429,0.0952 0.793651,0.31746 0.222222,0.22223 0.31746,0.47619 0.31746,0.79366 0,0.3492 -0.126984,0.63492 -0.349206,0.82539 -0.222222,0.19048 -0.47619,0.28572 -0.793651,0.28572 z m 7.365079,-12.95238 c -1.873015,-1.87302 -4.444444,-3.01588 -7.301586,-3.01588 -2.857143,0 -5.428572,1.14286 -7.301587,3.01588 -1.873016,1.87301 -3.015873,4.44444 -3.015873,7.30158 0,2.4127 0.825397,4.63492 2.222222,6.38096 1.428571,1.77777 3.428571,3.11111 5.714285,3.65079 l 0,0 c 0.317461,0.0635 0.571429,0.28571 0.666667,0.60317 l 1.714286,5.14281 1.682539,-5.07931 c 0.09524,-0.31747 0.349206,-0.60318 0.698413,-0.69842 2.285714,-0.53968 4.285714,-1.84127 5.714285,-3.65079 1.396825,-1.74603 2.222222,-3.96825 2.222222,-6.38095 0,-2.85715 -1.142857,-5.42857 -3.015873,-7.30159 z m -7.301586,-4.88889 c 3.365079,0 6.412698,1.36508 8.603174,3.55555 2.190476,2.19048 3.555555,5.2381 3.555555,8.60318 0,2.85714 -0.984127,5.46031 -2.63492,7.55555 -1.555556,2 -3.746032,3.46032 -6.253968,4.19048 l -2.444445,7.30154 c -0.15873,0.4762 -0.698412,0.7619 -1.174603,0.6032 -0.285714,-0.095 -0.507936,-0.3174 -0.603174,-0.6032 l -2.444445,-7.30154 c -2.507936,-0.69841 -4.666666,-2.19048 -6.253968,-4.19048 -1.650793,-2.06349 -2.63492,-4.69841 -2.63492,-7.55555 0,-3.36508 1.365079,-6.4127 3.555555,-8.60318 2.190476,-2.19047 5.238095,-3.55555 8.603174,-3.55555 z" class="fil0" style="fill: black;" fill="#000000" fill-rule="evenodd"></path><path d="m 72.49206,985.44154 c 0,-0.47619 0.15873,-0.95238 0.444444,-1.42857 0.317461,-0.47619 0.761905,-0.88889 1.333334,-1.20635 0.571428,-0.31746 1.269841,-0.47619 2.063492,-0.47619 0.730158,0 1.365079,0.12699 1.936507,0.4127 0.539683,0.25397 0.984127,0.63492 1.269842,1.07937 0.31746,0.44444 0.444444,0.95238 0.444444,1.49206 0,0.4127 -0.09524,0.79365 -0.253968,1.11111 -0.15873,0.31746 -0.380953,0.60318 -0.603175,0.8254 -0.222222,0.22222 -0.666666,0.63492 -1.269841,1.1746 -0.15873,0.15873 -0.31746,0.28572 -0.412698,0.4127 -0.09524,0.12698 -0.190477,0.22222 -0.222223,0.31746 -0.06349,0.0952 -0.09524,0.19048 -0.126984,0.28571 -0.03175,0.0952 -0.06349,0.25397 -0.126984,0.50794 -0.09524,0.50794 -0.380952,0.79365 -0.888889,0.79365 -0.253968,0 -0.47619,-0.0952 -0.666666,-0.25397 -0.190476,-0.15873 -0.253969,-0.4127 -0.253969,-0.7619 0,-0.4127 0.06349,-0.79365 0.190477,-1.07937 0.126984,-0.31746 0.31746,-0.57142 0.507936,-0.79365 0.222222,-0.22222 0.507937,-0.50793 0.857143,-0.82539 0.31746,-0.28572 0.539682,-0.47619 0.698413,-0.63492 0.15873,-0.15873 0.253968,-0.31746 0.349206,-0.47619 0.09524,-0.15874 0.15873,-0.38096 0.15873,-0.57143 0,-0.4127 -0.15873,-0.73016 -0.444444,-1.01588 -0.285715,-0.28571 -0.666667,-0.41269 -1.142857,-0.41269 -0.539683,0 -0.952381,0.12698 -1.20635,0.41269 -0.253968,0.28572 -0.47619,0.69842 -0.666666,1.2381 -0.15873,0.57143 -0.507937,0.85714 -0.952381,0.85714 -0.285714,0 -0.507937,-0.0952 -0.698413,-0.28571 -0.190476,-0.19048 -0.285714,-0.4127 -0.285714,-0.63492 z" class="fil0" style="fill: black;" fill="#000000" fill-rule="evenodd"></path><polygon points="-327,3812 -327,3221 1091,3221 1091,3812 " class="fil0" style="" transform="matrix(0.03174603,0,0,0.03174603,15.380952,921.34631)" fill="" fill-rule="evenodd"></polygon></g></g><g id="SvgjsG2754" featurekey="XAPJzK-0" transform="matrix(3.1377503086884966,0,0,3.1377503086884966,91.60715076479286,-11.065281221398077)" fill="#000000"><path d="M1.4 5.5600000000000005 q0.92 -0.08 1.86 -0.13 t1.92 -0.05 t2.01 0.2 t1.86 0.75 t1.35 1.53 t0.52 2.54 t-0.52 2.53 t-1.34 1.53 t-1.83 0.76 t-1.99 0.2 l-0.48 -0.02 q-0.24 0 -0.44 -0.02 l0 4.62 q-0.38 0.06 -0.74 0.08 t-0.69 0.02 t-0.71 -0.02 t-0.78 -0.08 l0 -14.44 z M4.32 12.96 q0.24 0.04 0.46 0.04 l0.5 0 q0.5 0 0.98 -0.13 t0.85 -0.43 t0.59 -0.79 t0.22 -1.22 t-0.22 -1.24 t-0.59 -0.82 t-0.85 -0.44 t-0.98 -0.13 l-0.4 0 q-0.2 0.02 -0.56 0.06 l0 5.1 z M18.257 20.24 q-1.26 0 -2.19 -0.41 t-1.54 -1.14 t-0.92 -1.71 t-0.31 -2.12 t0.31 -2.14 t0.92 -1.73 t1.54 -1.15 t2.19 -0.42 t2.2 0.42 t1.56 1.15 t0.92 1.73 t0.3 2.14 t-0.3 2.12 t-0.92 1.71 t-1.56 1.14 t-2.2 0.41 z M18.257 18.08 q1.12 0 1.61 -0.83 t0.49 -2.39 t-0.49 -2.39 t-1.6 -0.83 t-1.6 0.83 t-0.49 2.39 t0.49 2.39 t1.59 0.83 z M26.214 5.380000000000001 q0.72 -0.12 1.41 -0.12 t1.41 0.12 l0 10.5 q0 0.62 0.07 1 t0.22 0.59 t0.39 0.29 t0.6 0.08 q0.16 0 0.35 -0.02 t0.37 -0.06 q0.22 0.82 0.22 1.6 l0 0.28 l-0.04 0.3 q-0.32 0.1 -0.77 0.14 t-0.83 0.04 q-1.54 0 -2.47 -0.85 t-0.93 -2.77 l0 -11.12 z M34.151 11.82 l-1.34 0 q-0.06 -0.26 -0.09 -0.55 t-0.03 -0.55 q0 -0.54 0.12 -1.06 l4.12 0 l0 10.34 q-0.72 0.12 -1.39 0.12 t-1.39 -0.12 l0 -8.18 z M33.731 7.92 q-0.12 -0.68 -0.12 -1.33 t0.12 -1.35 q0.34 -0.06 0.73 -0.09 t0.72 -0.03 t0.73 0.03 t0.74 0.09 q0.06 0.34 0.08 0.67 t0.02 0.66 t-0.02 0.67 t-0.08 0.68 q-0.34 0.06 -0.73 0.08 t-0.72 0.02 t-0.73 -0.02 t-0.74 -0.08 z M41.228 11.82 l-1.64 0 q-0.06 -0.32 -0.08 -0.58 t-0.02 -0.53 t0.02 -0.51 t0.08 -0.54 l1.64 0 l0 -0.5 q0 -0.96 0.29 -1.71 t0.83 -1.26 t1.29 -0.78 t1.65 -0.27 q0.6 0 1.01 0.05 t0.89 0.19 q-0.04 0.66 -0.13 1.19 t-0.29 1.05 l-0.46 -0.1 q-0.24 -0.04 -0.64 -0.04 q-0.7 0 -1.14 0.33 t-0.48 1.41 l0 0.44 l2.4 0 q0.06 0.32 0.08 0.58 t0.02 0.53 t-0.02 0.51 t-0.08 0.54 l-2.4 0 l0 8.18 q-0.72 0.12 -1.41 0.12 t-1.41 -0.12 l0 -8.18 z M54.44500000000001 15.26 q-0.24 -0.04 -0.52 -0.07 t-0.5 -0.03 q-0.98 0 -1.55 0.35 t-0.57 1.13 q0 0.52 0.22 0.8 t0.53 0.41 t0.66 0.16 t0.63 0.03 t0.58 -0.06 l0.52 -0.08 l0 -2.64 z M54.44500000000001 13.2 q0 -0.48 -0.16 -0.78 t-0.44 -0.47 t-0.69 -0.23 t-0.91 -0.06 q-1.08 0 -2.3 0.42 q-0.28 -0.52 -0.42 -0.98 t-0.14 -1.1 q0.88 -0.3 1.76 -0.44 t1.64 -0.14 q2.08 0 3.25 1 t1.17 3.2 l0 6 q-0.7 0.22 -1.7 0.42 t-2.26 0.2 q-1.02 0 -1.87 -0.18 t-1.46 -0.6 t-0.94 -1.08 t-0.33 -1.62 t0.41 -1.61 t1.06 -1.04 t1.45 -0.56 t1.6 -0.17 q0.58 0 1.28 0.06 l0 -0.24 z M67.482 17.56 q0.24 0.4 0.4 0.93 t0.16 1.25 q-0.8 0.32 -1.5 0.41 t-1.46 0.09 q-1.3 0 -2.26 -0.41 t-1.59 -1.13 t-0.95 -1.71 t-0.32 -2.14 t0.31 -2.13 t0.94 -1.72 t1.57 -1.16 t2.18 -0.42 q0.44 0 0.81 0.02 t0.71 0.08 t0.68 0.16 t0.76 0.26 q0 0.46 -0.12 1.03 t-0.38 1.09 q-0.6 -0.2 -1.05 -0.27 t-1.03 -0.07 q-1.24 0 -1.87 0.81 t-0.63 2.31 q0 1.62 0.68 2.36 t1.84 0.74 l0.56 -0.02 q0.24 0 0.48 -0.04 t0.5 -0.12 z M71.13900000000001 11.82 l-1.3 0 l-0.1 -0.4 l3.74 -4.78 l0.46 0 l0 3.02 l2.42 0 q0.06 0.3 0.08 0.54 t0.02 0.51 t-0.02 0.53 t-0.08 0.58 l-2.42 0 l0 4.06 q0 0.62 0.1 1 t0.29 0.6 t0.47 0.3 t0.66 0.08 q0.3 0 0.6 -0.06 l0.5 -0.08 q0.14 0.38 0.2 0.79 t0.06 0.73 l0 0.36 l-0.04 0.3 q-0.92 0.22 -1.9 0.22 q-1.82 0 -2.78 -0.85 t-0.96 -2.77 l0 -4.68 z M83.71600000000001 20.24 q-1.26 0 -2.19 -0.41 t-1.54 -1.14 t-0.92 -1.71 t-0.31 -2.12 t0.31 -2.14 t0.92 -1.73 t1.54 -1.15 t2.19 -0.42 t2.2 0.42 t1.56 1.15 t0.92 1.73 t0.3 2.14 t-0.3 2.12 t-0.92 1.71 t-1.56 1.14 t-2.2 0.41 z M83.71600000000001 18.08 q1.12 0 1.61 -0.83 t0.49 -2.39 t-0.49 -2.39 t-1.6 -0.83 t-1.6 0.83 t-0.49 2.39 t0.49 2.39 t1.59 0.83 z"></path></g></svg>