<svg xmlns="http://www.w3.org/2000/svg" width="100%" height="100%" viewBox="0 0 369.9130434782609 106.04532577407326" class="looka-1j8o68f"><defs id="SvgjsDefs3773"></defs><g id="SvgjsG3774" featurekey="UFHKJ9-0" transform="matrix(0.10509901129989219,0,0,0.10509901129989219,-6.005567925006782,-14.2535306066799)" fill="#000000"><g xmlns="http://www.w3.org/2000/svg"><circle cx="174.326" cy="603.541" r="56.567"></circle><path d="M481.047,638.138c1.09-9.652,0.534-20.8-3.889-32.45c-2.308-6.089-4.679-15.646-5.619-19.673   c-3.376,3.408-7.179,6.778-11.666,9.599c-16.463,10.352-51.638,19.107-53.128,19.476l-2.12,0.518l5.939-15.987   c-5.576,2.74-19.166,11.18-23.236,29.678c-0.907,4.135-0.769,8.253-0.229,11.981c8.53,16.896,25.998,28.52,46.216,28.52   C454.788,669.799,473.195,656.743,481.047,638.138z"></path><path d="M363.286,622.851c0,33.871,25.746,44.319,34.801,46.948c-1.961-2.715-5.102-7.543-8.28-13.867   c-0.208-0.192-21.147-20.309-21.014-53.293c0.017-4.535,0.716-8.83,1.73-12.996C366.533,596.853,363.286,607.354,363.286,622.851z"></path><path d="M502.371,597.596c-3.654-15.534-13.525-26.585-16.591-29.737l-11.784,16.094c0.588,2.559,3.312,14.081,5.854,20.779   c10.79,28.428-0.396,54.148-4.851,62.63C484.701,662.95,513.588,645.499,502.371,597.596z"></path><path d="M413.038,550.984c-26.137,7.975-41.799,27.338-41.895,51.814c-0.091,22.552,9.957,38.881,15.944,46.611   c-1.629-5.165-3.156-12.831-1.447-20.586c5.422-24.652,26.927-32.354,27.146-32.429l2.317-0.801l-6.212,16.719   c8.002-2.094,36.451-9.919,50.329-18.637c14.272-8.974,23.204-23.962,25.062-27.291c-2.788-3.264-18.065-19.411-45.948-19.411   C430.28,546.973,421.761,548.324,413.038,550.984z"></path><path d="M688.687,600.918c-2.948-5.32-6.666-6.901-10.961-6.41l-17.713-72.86l121.084-35.287l-45.617-156.536L621.479,363.05   l-3.525-14.486c-1.144-4.738-5.93-7.649-10.673-6.495c-4.732,1.148-7.639,5.924-6.484,10.667l3.707,15.266l-115.048,33.53   l45.628,156.536l107.965-31.473l18.193,74.879l-156.21,77.085h-29.859h-82.133H356.94c-12.9,0-23.392,9.85-24.657,22.413   c-0.187,0.962-0.422,1.901-0.486,2.905l-3.461,190.034c-0.812,12.114-0.887,21.976,11.233,22.787   c12.114,0.812,13.364-8.974,14.177-21.099l16.837-144.876c2.062,20.042,3.937,43.139,3.937,60.991   c0,39.635-9.257,55.296-9.257,82.047c0,1.73,0.059,3.354,0.154,4.871c-0.026,0.534-0.154,1.047-0.154,1.582l9.257,215.053   c0,16.217,3.889,29.357,20.095,29.357c16.212,0,20.096-13.141,20.096-29.357l16.682-193.729h5.427l16.688,193.729   c0,16.217,3.889,29.357,20.084,29.357c16.218,0,20.106-13.141,20.106-29.357l9.262-215.053c0-0.492-0.117-0.963-0.149-1.453   c0.097-1.561,0.149-3.227,0.149-5c0-28.193-9.262-52.604-9.262-82.047c0-14.359,2.2-39.699,4.455-61.953l4.839-24.068   c3.804,0.106,7.66-0.695,11.218-2.672l153.411-95.299l5.619,23.124c1.154,4.732,5.919,7.649,10.662,6.496   c4.743-1.154,7.649-5.93,6.495-10.673l-6.965-28.674C689.669,613.604,693.003,608.69,688.687,600.918z"></path><path d="M328.479,596.794c1.154,4.738,5.924,7.649,10.668,6.495c4.732-1.148,7.648-5.924,6.495-10.667l-10.16-41.114l8.633-20.48   c4.839-11.479-0.545-24.721-12.024-29.555c-3.071-1.292-6.261-1.8-9.391-1.715l-30.688-124.246l154.901-45.147l-56.76-194.745   l-146.83,42.797l-3.718-15.069c-1.154-4.738-5.93-7.644-10.668-6.495c-4.737,1.148-7.648,5.924-6.495,10.667l3.91,15.843   L84.08,224.831l56.76,194.745l134.202-39.117l31.377,127.018c-1.549,1.773-2.916,3.745-3.878,6.031l-67.347,159.838H84.924   c-11.683,0-21.645,7.242-25.747,17.455c-1.276,2.778-2.035,5.855-2.035,9.124v189.831c0,12.146,9.85,21.996,21.997,21.996   c12.142,0,21.991-9.85,21.991-21.996V735.543h5.139v374.512c0,16.217,13.146,29.357,29.353,29.357   c16.217,0,29.352-13.141,29.352-29.357v-193.73h20.282v193.73c0,16.217,13.146,29.357,29.347,29.357   c16.218,0,29.363-13.141,29.363-29.357V735.543l0.043-0.129c8.418-0.385,16.292-5.427,19.774-13.695l60.237-142.99L328.479,596.794   z"></path></g></g><g id="SvgjsG3775" featurekey="XAPJzK-0" transform="matrix(2.8016634116506833,0,0,2.8016634116506833,92.80610375079634,18.271847679786987)" fill="#000000"><path d="M1.14 20 l0 -12.24 l5.8 0 c2.28 0 4.22 1.72 4.22 4.02 c0 2.32 -2 4.02 -4.22 4.02 l-2.8 0 l0 4.2 l-3 0 z M6.94 10.54 l-2.8 0 l0 2.48 l2.8 0 c0.7 0 1.22 -0.54 1.22 -1.24 s-0.52 -1.24 -1.22 -1.24 z M19.551 17.32 c1.46 0 2.3 -0.86 2.3 -2.32 s-0.84 -2.32 -2.3 -2.32 s-2.3 0.86 -2.3 2.32 s0.84 2.32 2.3 2.32 z M19.551 20.1 c-3.08 0 -5.3 -2.04 -5.3 -5.1 c0 -3.16 2.3 -5.1 5.3 -5.1 c3.1 0 5.3 2.04 5.3 5.1 c0 3.14 -2.32 5.1 -5.3 5.1 z M28.561999999999998 6 l3 0 l0 14 l-3 0 l0 -14 z M35.952999999999996 10 l3 0 l0 10 l-3 0 l0 -10 z M37.452999999999996 9.06 c-1.02 0 -1.74 -0.72 -1.74 -1.74 c0 -1.04 0.72 -1.72 1.74 -1.72 c1.04 0 1.72 0.68 1.72 1.72 c0 1.06 -0.66 1.74 -1.72 1.74 z M48.843999999999994 10.34 l0 2.78 l-2.46 0 l0 6.88 l-3 0 l0 -9.98 c0 -3.32 2.44 -5.12 5.52 -5.12 c0.1 0 0.24 0 0.38 0.02 s0.3 0.06 0.44 0.08 l0 2.9 c-0.1 -0.02 -0.22 -0.04 -0.36 -0.06 s-0.26 -0.04 -0.36 -0.04 c-0.5 0 -0.9 0.06 -1.24 0.16 c-0.56 0.2 -1.06 0.58 -1.24 1.18 c-0.1 0.26 -0.14 0.56 -0.14 0.86 l0 0.34 l2.46 0 z M59.815 15 c-0.08 -1.46 -0.74 -2.32 -2.26 -2.32 c-0.42 0 -0.78 0.06 -1.08 0.18 c-0.92 0.42 -1.26 1.2 -1.26 2.16 c0 0.32 0.04 0.62 0.14 0.88 c0.3 1.04 1.2 1.42 2.2 1.42 c1.52 0 2.26 -0.82 2.26 -2.32 z M63.614999999999995 20 l-3 0 c-0.2 -0.5 -0.38 -1 -0.5 -1.52 c-0.68 1.12 -1.72 1.62 -3 1.62 c-2.86 0 -4.9 -2.4 -4.9 -5.14 c0 -3.16 2.36 -5.06 5.34 -5.06 c3.18 0 5.18 2.04 5.26 5.1 c0.02 0.26 0.02 0.56 0.02 0.92 c0 1.4 0.22 2.8 0.78 4.08 z M75.06599999999999 16.7 l0 3 c-1.02 0.34 -2.08 0.44 -3.14 0.44 c-3.1 0 -5.3 -2.06 -5.3 -5.12 c0 -3.18 2.28 -5.12 5.3 -5.12 c1.06 0 2.12 0.1 3.14 0.44 l0 3 c-0.88 -0.46 -1.98 -0.58 -2.96 -0.58 c-0.66 0 -1.46 0.14 -1.92 0.66 c-0.42 0.42 -0.56 1.02 -0.56 1.58 c0 0.32 0.04 0.62 0.14 0.88 c0.08 0.28 0.22 0.52 0.42 0.72 c0.44 0.54 1.26 0.68 1.92 0.68 c0.88 0 2.18 -0.16 2.96 -0.58 z M84.77699999999999 10.34 l0 2.78 l-2.8 0 l0 1.88 c0 1.54 1.02 2.32 2.5 2.32 c0.18 0 0.34 -0.02 0.48 -0.04 s0.26 -0.04 0.4 -0.06 l0 2.78 c-0.18 0.02 -0.32 0.06 -0.42 0.08 c-0.12 0.02 -0.32 0.02 -0.58 0.02 c-3.02 0 -5.38 -2.06 -5.38 -5.1 l0 -7.4 l3 0 l0 2.74 l2.8 0 z M93.60799999999998 17.32 c1.46 0 2.3 -0.86 2.3 -2.32 s-0.84 -2.32 -2.3 -2.32 s-2.3 0.86 -2.3 2.32 s0.84 2.32 2.3 2.32 z M93.60799999999998 20.1 c-3.08 0 -5.3 -2.04 -5.3 -5.1 c0 -3.16 2.3 -5.1 5.3 -5.1 c3.1 0 5.3 2.04 5.3 5.1 c0 3.14 -2.32 5.1 -5.3 5.1 z"></path></g></svg>