<svg xmlns="http://www.w3.org/2000/svg" width="100%" height="100%" viewBox="0 0 369.9130434782609 76.50966183574879" class="looka-1j8o68f"><defs id="SvgjsDefs3898"></defs><g id="SvgjsG3899" featurekey="UFHKJ9-0" transform="matrix(0.4227053140096618,0,0,0.4227053140096618,0,0)" fill="#000000"><title xmlns="http://www.w3.org/2000/svg">circle_india</title><desc xmlns="http://www.w3.org/2000/svg">Created with Sketch.</desc><g xmlns="http://www.w3.org/2000/svg" stroke="none" stroke-width="1" fill="none" fill-rule="evenodd" xmlns:sketch="http://www.bohemiancoding.com/sketch/ns" sketch:type="MSPage"><g sketch:type="MSArtboardGroup" transform="translate(-180.000000, -180.000000)"><g sketch:type="MSLayerGroup" transform="translate(180.000000, 180.000000)" fill="#000000"><path d="M90,114 C103.254834,114 114,103.254834 114,90 C114,76.745166 103.254834,66 90,66 C76.745166,66 66,76.745166 66,90 C66,103.254834 76.745166,114 90,114 Z M90,111 C101.59798,111 111,101.59798 111,90 C111,78.4020203 101.59798,69 90,69 C78.4020203,69 69,78.4020203 69,90 C69,101.59798 78.4020203,111 90,111 Z M90,94 C92.2091391,94 94,92.2091391 94,90 C94,87.7908609 92.2091391,86 90,86 C87.7908608,86 86,87.7908609 86,90 C86,92.2091391 87.7908608,94 90,94 C90,94 87.7908608,94 90,94 Z M90,70 L92,81 L90,86 L88,81 L90,70 Z M104.142136,75.8578644 L97.7781746,85.0502525 L92.8284271,87.1715729 L94.9497475,82.2218254 L104.142136,75.8578644 Z M110,90 L99,92 L94,90 L99,88 L110,90 Z M104.142136,104.142136 L94.9497475,97.7781746 L92.8284271,92.8284271 L97.7781746,94.9497475 L104.142136,104.142136 Z M90,110 L88,99 L90,94 L92,99 L90,110 Z M75.8578644,104.142136 L82.2218254,94.9497475 L87.1715729,92.8284271 L85.0502525,97.7781746 L75.8578644,104.142136 Z M70,90 L81,88 L86,90 L81,92 L70,90 Z M75.8578644,75.8578644 L85.0502525,82.2218254 L87.1715729,87.1715729 L82.2218254,85.0502525 L75.8578644,75.8578644 Z" sketch:type="MSShapeGroup"></path><path d="M169.566564,63 C172.441103,71.4737299 174,80.554815 174,90 C174,99.445185 172.441103,108.52627 169.566564,117 L169.566564,117 L10.4334359,117 C7.55889706,108.52627 6,99.445185 6,90 C6,80.554815 7.55889706,71.4737299 10.4334359,63 L169.566564,63 Z M167.269825,57 C154.446425,27.0127129 124.677103,6 90,6 C55.3228966,6 25.5535752,27.0127129 12.7301746,57 L167.269825,57 Z M167.269825,123 C154.446425,152.987287 124.677103,174 90,174 C55.3228966,174 25.5535752,152.987287 12.7301746,123 L167.269825,123 L167.269825,123 Z M90,180 C139.705627,180 180,139.705627 180,90 C180,40.2943725 139.705627,0 90,0 C40.2943725,0 0,40.2943725 0,90 C0,139.705627 40.2943725,180 90,180 Z" sketch:type="MSShapeGroup"></path></g></g></g></g><g id="SvgjsG3900" featurekey="XAPJzK-0" transform="matrix(2.8016634116506833,0,0,2.8016634116506833,92.80610375079634,3.2718476797869886)" fill="#000000"><path d="M1.14 20 l0 -12.24 l5.8 0 c2.28 0 4.22 1.72 4.22 4.02 c0 2.32 -2 4.02 -4.22 4.02 l-2.8 0 l0 4.2 l-3 0 z M6.94 10.54 l-2.8 0 l0 2.48 l2.8 0 c0.7 0 1.22 -0.54 1.22 -1.24 s-0.52 -1.24 -1.22 -1.24 z M19.551 17.32 c1.46 0 2.3 -0.86 2.3 -2.32 s-0.84 -2.32 -2.3 -2.32 s-2.3 0.86 -2.3 2.32 s0.84 2.32 2.3 2.32 z M19.551 20.1 c-3.08 0 -5.3 -2.04 -5.3 -5.1 c0 -3.16 2.3 -5.1 5.3 -5.1 c3.1 0 5.3 2.04 5.3 5.1 c0 3.14 -2.32 5.1 -5.3 5.1 z M28.561999999999998 6 l3 0 l0 14 l-3 0 l0 -14 z M35.952999999999996 10 l3 0 l0 10 l-3 0 l0 -10 z M37.452999999999996 9.06 c-1.02 0 -1.74 -0.72 -1.74 -1.74 c0 -1.04 0.72 -1.72 1.74 -1.72 c1.04 0 1.72 0.68 1.72 1.72 c0 1.06 -0.66 1.74 -1.72 1.74 z M48.843999999999994 10.34 l0 2.78 l-2.46 0 l0 6.88 l-3 0 l0 -9.98 c0 -3.32 2.44 -5.12 5.52 -5.12 c0.1 0 0.24 0 0.38 0.02 s0.3 0.06 0.44 0.08 l0 2.9 c-0.1 -0.02 -0.22 -0.04 -0.36 -0.06 s-0.26 -0.04 -0.36 -0.04 c-0.5 0 -0.9 0.06 -1.24 0.16 c-0.56 0.2 -1.06 0.58 -1.24 1.18 c-0.1 0.26 -0.14 0.56 -0.14 0.86 l0 0.34 l2.46 0 z M59.815 15 c-0.08 -1.46 -0.74 -2.32 -2.26 -2.32 c-0.42 0 -0.78 0.06 -1.08 0.18 c-0.92 0.42 -1.26 1.2 -1.26 2.16 c0 0.32 0.04 0.62 0.14 0.88 c0.3 1.04 1.2 1.42 2.2 1.42 c1.52 0 2.26 -0.82 2.26 -2.32 z M63.614999999999995 20 l-3 0 c-0.2 -0.5 -0.38 -1 -0.5 -1.52 c-0.68 1.12 -1.72 1.62 -3 1.62 c-2.86 0 -4.9 -2.4 -4.9 -5.14 c0 -3.16 2.36 -5.06 5.34 -5.06 c3.18 0 5.18 2.04 5.26 5.1 c0.02 0.26 0.02 0.56 0.02 0.92 c0 1.4 0.22 2.8 0.78 4.08 z M75.06599999999999 16.7 l0 3 c-1.02 0.34 -2.08 0.44 -3.14 0.44 c-3.1 0 -5.3 -2.06 -5.3 -5.12 c0 -3.18 2.28 -5.12 5.3 -5.12 c1.06 0 2.12 0.1 3.14 0.44 l0 3 c-0.88 -0.46 -1.98 -0.58 -2.96 -0.58 c-0.66 0 -1.46 0.14 -1.92 0.66 c-0.42 0.42 -0.56 1.02 -0.56 1.58 c0 0.32 0.04 0.62 0.14 0.88 c0.08 0.28 0.22 0.52 0.42 0.72 c0.44 0.54 1.26 0.68 1.92 0.68 c0.88 0 2.18 -0.16 2.96 -0.58 z M84.77699999999999 10.34 l0 2.78 l-2.8 0 l0 1.88 c0 1.54 1.02 2.32 2.5 2.32 c0.18 0 0.34 -0.02 0.48 -0.04 s0.26 -0.04 0.4 -0.06 l0 2.78 c-0.18 0.02 -0.32 0.06 -0.42 0.08 c-0.12 0.02 -0.32 0.02 -0.58 0.02 c-3.02 0 -5.38 -2.06 -5.38 -5.1 l0 -7.4 l3 0 l0 2.74 l2.8 0 z M93.60799999999998 17.32 c1.46 0 2.3 -0.86 2.3 -2.32 s-0.84 -2.32 -2.3 -2.32 s-2.3 0.86 -2.3 2.32 s0.84 2.32 2.3 2.32 z M93.60799999999998 20.1 c-3.08 0 -5.3 -2.04 -5.3 -5.1 c0 -3.16 2.3 -5.1 5.3 -5.1 c3.1 0 5.3 2.04 5.3 5.1 c0 3.14 -2.32 5.1 -5.3 5.1 z"></path></g></svg>