<svg xmlns="http://www.w3.org/2000/svg" width="100%" height="100%" viewBox="0 0 369.9130434782609 64.82910482826074" class="looka-1j8o68f"><defs id="SvgjsDefs4329"/><g xmlns="http://www.w3.org/2000/svg" id="SvgjsG4330" featurekey="UFHKJ9-0" transform="matrix(0.8687330552344261,0,0,0.8687330552344261,-5.057401407096371,-9.664753001114496)" fill="#00a82d">
<path xmlns="http://www.w3.org/2000/svg" d="m41.648 15.141c0.66797-0.16797 1.9336 0.10156 3.8008 0.80078 1.8984 0.69922 2.9648 1.3516 3.1992 1.9492 0.23437 0.56641 0.26562 1.2148 0.10156 1.9492-0.10156 0.43359-0.31641 1.082-0.64844 1.9492-0.13281 0.5-0.38281 1.1836-0.75 2.0508-0.30078 0.83203-0.31641 1.582-0.050781 2.25 0.86719-1.668 1.4844-2.9336 1.8516-3.8008 0.69922-1.5 1.1484-2.8828 1.3516-4.1484 0.36719 0.26562 1.1172 0.61719 2.25 1.0508 0.96875 0.43359 1.6992 0.85156 2.1992 1.25 1.4336 0.96875 2.25 2.0156 2.4492 3.1484 0.26562 1.0312 0 2.2812-0.80078 3.75l-0.14844 0.14844c-0.10156 0.16797-0.33594 0.69922-0.69922 1.6016-0.23438 0.63281-0.55078 1.0312-0.94922 1.1992-0.39844 0.066407-0.91797-0.082031-1.5508-0.44922-0.36719-0.13281-0.93359-0.39844-1.6992-0.80078-5.4688-1.9688-9.582-3.3672-12.352-4.1992-0.39844-0.19922-0.66797-0.33594-0.80078-0.39844-0.16406-0.16406-0.25-0.44922-0.25-0.85156 0.10156-1.3008 0.44922-2.668 1.0508-4.1016 0.19922-0.5 0.81641-1.8164 1.8516-3.9492 0.09375-0.19922 0.29687-0.33203 0.59375-0.39844zm2.1016 12.648c5.3008 2.0664 8.2656 3.1992 8.8984 3.3984 0.10156 0 0.93359 0.26562 2.5 0.80078 0.96875 0.43359 1.8008 0.63281 2.5 0.60156 0.36719 0 0.58594 0.066406 0.64844 0.19922 0.03125 0.16797 0.050781 0.38281 0.050781 0.64844 0.066406 1.3008-0.25 2.4141-0.94922 3.3516-0.73438 0.93359-1.75 1.5664-3.0508 1.8984-4.5977 1.2695-8.9648 1.5352-13.098 0.80469-0.13281-0.03125-0.43359 0-0.89844 0.10156 0.56641 0.80078 1.5156 1.25 2.8516 1.3516 0.96484 0 1.6328 0.050782 2 0.14844 0.73438 0.13281 1.2812 0.41406 1.6484 0.85156 0.46875 0.53125 1.1328 1.3672 2 2.5 0.76563 1 1.2656 1.9492 1.5 2.8516 0.33203 0.93359 0.46875 1.9844 0.39844 3.1484-0.10156 0.63281-0.28125 1.6484-0.55078 3.0508-0.13281 0.5-0.18359 1.168-0.14844 2 0.76562-0.66797 1.25-1.5 1.4492-2.5 0.13281-1.332 0.25-2.2812 0.35156-2.8516 0.13281-0.93359 0.19922-1.6016 0.19922-2 0-0.80078-0.18359-1.4844-0.55078-2.0508-0.03125-0.10156-0.03125-0.28125 0-0.55078 0-0.19922 0.066406-0.30078 0.19922-0.30078 0.10156 0 0.43359-0.066407 1-0.19922 0.39844-0.066407 0.69922 0 0.89844 0.19922 0.89844 0.93359 1.832 1 2.8008 0.19922 0.26562-0.26562 0.5-0.21875 0.69922 0.14844 0.26562 0.89844 0.78125 1.5156 1.5508 1.8516 0.53125 0.19922 1.3672 0.38281 2.5 0.55078-1.5312 2.9688-3.3008 5.3984-5.3008 7.3008-1.7344 1.6328-2.5664 3.25-2.5 4.8516 0.10156 1.9648 0.35156 4.5664 0.75 7.8008 0.43359 3.8008 0.69922 6.4141 0.80078 7.8516 0.26562 3.5312 0.51562 5.918 0.75 7.1484 0.066406 0.39844-0.16406 0.60156-0.69922 0.60156-0.26562 0-0.44922-0.015625-0.55078-0.050781-0.13281-0.066406-0.082032-0.26562 0.14844-0.60156 0.03125 0 0.050781-0.25 0.050781-0.75-0.13281 0.03125-0.61719 0.46484-1.4492 1.3008-0.60156 0.53125-1.25 0.60156-1.9492 0.19922 0-0.23438 0.14844-0.60156 0.44922-1.1016 0.40234-0.53516 0.60156-0.98438 0.60156-1.3516-0.33594 0.10156-1.0156 0.80078-2.0508 2.1016-0.69922 0.89844-1.5977 1.082-2.6992 0.54688 0.066406-0.39844 0.35156-0.93359 0.85156-1.6016 0.53125-0.69922 0.88281-1.2656 1.0508-1.6992-0.73438 0.13281-1.3516 0.5-1.8516 1.1016-0.23438 0.39844-0.56641 0.96484-1 1.6992-0.33203 0.43359-0.56641 0.73438-0.69922 0.89844-0.26562 0.23438-0.58203 0.23438-0.94922 0-0.30078-0.19922-0.36719-0.5-0.19922-0.89844 0.26562-0.39844 0.43359-0.68359 0.5-0.85156 0.36719-0.43359 0.60156-0.76562 0.69922-1 0.26562-0.39844 0.28125-0.66797 0.050781-0.80078-0.5-0.26562-0.85156-0.21875-1.0508 0.14844-0.13281 0.30078-0.25 0.69922-0.35156 1.1992-0.63672 1.6055-1.8164 2.4727-3.5508 2.6055-0.36719 0.10156-0.60156 0.14844-0.69922 0.14844-0.19922 0-0.38281-0.10156-0.55078-0.30078-0.03125-0.13281-0.03125-0.30078 0-0.5 0.13281-0.23438 0.21875-0.41797 0.25-0.55078 0.13281-0.5 0.5-1.1992 1.1016-2.1016 0.56641-0.93359 0.93359-1.6836 1.1016-2.25-0.73438 0.43359-1.418 1.1484-2.0508 2.1484-0.33203 0.53516-0.81641 1.3672-1.4492 2.5-0.43359-1.3984-0.23438-2.8516 0.60156-4.3516 1.0664-1.668 1.7812-2.9688 2.1484-3.8984 0.29688-0.29297 0.48047-0.52734 0.54688-0.69531 0.26562-0.30078 0.41406-0.55078 0.44922-0.75 0.066406-0.26562-0.066407-0.48437-0.39844-0.64844-0.33203-0.16797-0.55078-0.13281-0.65234 0.10156-0.10156 0.16797-0.19922 0.44922-0.30078 0.85156-0.16406 0.26172-1.0312 1.7969-2.5977 4.5977-0.43359-1.7656-0.43359-3.4336 0-5 0.39844-1.5664 1.25-3.1641 2.5508-4.8008l0.5-0.60156c0.19922-0.33203 0.16797-0.58203-0.10156-0.75-0.23438-0.16406-0.48438-0.14844-0.75 0.050782-0.035157 0-0.21875 0.23438-0.55078 0.69922-0.42969 0.66797-0.98438 1.6836-1.6484 3.0508-0.66797-1.6328-0.69922-3.3359-0.10156-5.1016 0.93359-2.0312 1.6328-3.582 2.1016-4.6484 0.16406-0.19922 0.28125-0.36719 0.35156-0.5 0.13281-0.23438 0.03125-0.39844-0.30078-0.5-0.26562-0.13281-0.44922-0.13281-0.55078 0-0.10156 0.10156-0.21875 0.35156-0.35156 0.75-0.13281 0.46875-0.39844 1.0156-0.80078 1.6484-0.16797 0.39844-0.48438 1-0.94922 1.8008-0.36719-1.8672-0.56641-3.0312-0.60156-3.5-0.10156-1.2656 0.11719-2.3984 0.64844-3.3984 0.16406-0.26562 0.23438-0.43359 0.19922-0.5-0.10156-0.10156-0.26562-0.23438-0.5-0.39844-0.19531-0.035157-0.41016 0.14844-0.64453 0.54687-0.16797 0.30078-0.35156 0.26563-0.55078-0.10156-0.53516-1.1016-0.53516-1.9688 0-2.6016 0.56641-0.53125 0.71484-1.1992 0.44922-2-0.33203 0.13281-0.60156 0.36719-0.80078 0.69922-0.23438 0.5-0.36719 0.80078-0.39844 0.89844-0.63281-1.0312-0.98438-1.7188-1.0508-2.0508-0.26563-0.75781-0.14844-1.5273 0.35156-2.293 0.23438-0.46875 0.38281-0.73438 0.44922-0.80078 0.19922-0.43359 0.10156-0.73437-0.30078-0.89844-0.36719-0.19922-0.64844-0.082031-0.84766 0.35156-0.23438 0.63281-0.38281 0.96875-0.44922 1-0.80078-1.3984-1.2188-2.2656-1.25-2.6016-0.26562-0.93359 0-1.832 0.80078-2.6992 0.23438-0.13281 0.33594-0.28125 0.30078-0.44922 0-0.19922-0.11719-0.38281-0.35156-0.55078-0.20312-0.10156-0.35156-0.11719-0.45312-0.050781-0.30078 0.03125-0.46875 0.21484-0.5 0.55078-0.03125 0.066406-0.18359 0.38281-0.44922 0.94922-0.36719-0.53516-0.66797-1.332-0.89844-2.3984-0.36719-0.96484-0.66797-1.668-0.89844-2.1016-0.83594-1.0352-1.1523-2.2188-0.95312-3.5508 0.43359-1.6016 0.76562-2.8008 1-3.6016 0.69922-2.6992 1.4336-4.918 2.1992-6.6484 0.26562-0.53125 0.53125-0.86719 0.80078-1 0.33203-0.16797 0.75-0.23438 1.25-0.19922 2.6328 0.03125 5.7344 0.75 9.3008 2.1484zm7.5 14.152c-0.23438 0.16406-0.53125 0.56641-0.89844 1.1992l-2.3984-2.1992c2.3672 0.23438 5.0156-0.13281 7.9492-1.1016 3.0664-0.89844 4.3828-3 3.9492-6.3008-0.066406-0.53125-0.46875-1.0664-1.1992-1.6016-0.76562-0.46875-1.6641-0.81641-2.6992-1.0508 0.73438-1.2344 1.25-2.1172 1.5508-2.6484 0.60156-1.1016 1.0156-2.0664 1.25-2.8984 0.19922-0.56641 0.71875-0.80078 1.5508-0.69922 1.3008 0.16797 2.3984 0.98438 3.3008 2.4492 0.89844 1.5312 1.082 2.9336 0.55078 4.1992-0.96875 2.3672-2.7656 5.418-5.3984 9.1484-0.066406 0.10156-0.21875 0.36719-0.44922 0.80078-0.46875 0.39844-0.43359 0.80078 0.10156 1.1992 0.30078 0.13281 0.53125 0.13281 0.69922 0 0.03125-0.066406 0.14844-0.26562 0.35156-0.60156 1.9336-2.6328 3.6328-5.3164 5.1016-8.0508 0.23438-0.5 0.43359-0.88281 0.60156-1.1484 0.26563-0.43359 0.68359-0.55078 1.25-0.35156 0.73438 0.19922 1.3672 0.66797 1.8984 1.3984 0.55469 0.77344 0.78906 1.4727 0.6875 2.1055-0.73438 3.8008-2.5859 7.0859-5.5508 9.8516-0.73438 0.66797-1.6484 0.94922-2.75 0.85156-1.1328-0.10156-1.8984-0.51563-2.3008-1.25-0.23438-0.43359-0.35156-0.66797-0.35156-0.69922-0.16797-0.26562-0.066406-0.51562 0.30078-0.75 0.19922-0.13281 0.31641-0.26562 0.35156-0.39844 0.10156-0.16797 0.015625-0.30078-0.25-0.39844-0.19922-0.23828-0.33203-0.35547-0.39844-0.35547-0.26562-0.066406-0.48438 0.015625-0.64844 0.25-0.56641 0.73438-1.3984 1-2.5 0.80078-1.5-0.10156-2.3672-0.13281-2.6016-0.10156 0 0.03125-0.050781 0.015625-0.14844-0.050782-0.13281-0.066406-0.19922-0.11719-0.19922-0.14844-0.13672-1.332-0.37109-1.8164-0.70312-1.4492zm-32.801-6.3008c1.832-0.16797 3.3164 0.23438 4.4492 1.1992 1 0.93359 1.5156 2.332 1.5508 4.1992 0.03125 2.1016-0.10156 4.4492-0.39844 7.0508l-2.4492-0.80078c-0.89844-0.30078-1.6836-0.51562-2.3516-0.64844-0.60156-0.19922-0.98438-0.53516-1.1484-1-0.16797-0.19922-0.25-0.63281-0.25-1.3008 0.13281-1.6992 0.21875-2.9688 0.25-3.8008 0-1.5312-0.14844-2.8164-0.44922-3.8516-0.20312-0.59766 0.066406-0.94531 0.79688-1.0469zm-2 1.5c0.26562 1.0312 0.39844 2.4336 0.39844 4.1992 0 2.3984 0.015625 3.8008 0.050782 4.1992-0.92969-0.23047-2.2344-0.69922-3.8984-1.3984-1.5-0.53516-2.7656-0.81641-3.8008-0.85156-0.39844 0-0.61719-0.10156-0.64844-0.30078-0.03125-0.16797-0.03125-0.41797 0-0.75 0.53125-2.9648 0.91797-4.9336 1.1484-5.8984 0.19922-0.73438 0.55078-1.3008 1.0508-1.6992 0.56641-0.39844 1.2344-0.55078 2-0.44922 1 0.10156 1.8516 0.41406 2.5508 0.94922 0.63281 0.5 1.0156 1.168 1.1484 2zm9.8008 2.6016c0.13281 0.10156 0.44922 0.10156 0.94922 0 0.46484-0.10156 0.78125 0.082031 0.94922 0.55078 0.43359 1.1016 1.1172 2.75 2.0508 4.9492 0.69922 1.9336 0.98438 3.7188 0.85156 5.3516-0.066406 0.60156-0.33203 2.3164-0.80078 5.1484-0.066406 0.36719-0.28125 0.78516-0.64844 1.25-1.2344 1.832-2.6992 1.9492-4.3984 0.35156l0.25-0.35156c0.13281-0.03125 0.66406-0.21484 1.6016-0.55078 0.60156-0.16406 0.96875-0.41406 1.1016-0.75 0.5-2.1641 0.68359-3.7812 0.55078-4.8516-0.10156-0.60156-0.41797-1.0312-0.94922-1.3008-0.76562-0.13281-1.2812-0.31641-1.5508-0.55078-0.26562-0.23438-0.46875-0.44922-0.60156-0.64844-0.10547-0.16797-0.15625-0.43359-0.15625-0.80078 0.10156-0.83203 0.28516-3.2969 0.55078-7.3984v-0.35156c0.066406-0.16406 0.14844-0.18359 0.25-0.046874zm0.050781 15.547c-0.56641 0.56641-1.8516 0.86719-3.8516 0.89844l-7.6016 0.10156c-0.066406 0-0.64844 0.19922-1.75 0.60156 0.76562 0.39844 1.2188 0.61719 1.3516 0.64844 0.46484 0.16797 0.88281 0.21875 1.25 0.14844 1.2344-0.19922 2.25 0.015625 3.0508 0.64844 0.60156 0.46875 1.2188 1.3008 1.8516 2.5 1.5977 2.6719 2.3984 5.4531 2.3984 8.3555v0.69922c0 0.33203 0.066406 0.58203 0.19922 0.75 0.66406-0.63281 0.98438-1.5 0.94922-2.6016-0.03125-0.66406-0.31641-2-0.85156-4-0.16797-0.86719-0.58203-1.9336-1.25-3.1992-1.0312-1.7656-1.6016-2.7812-1.6992-3.0508 0.26562-0.066406 0.80078-0.066406 1.6016 0 0.66406 0 1.1641-0.10156 1.5-0.30078 0.10156-0.10156 0.25-0.14844 0.44922-0.14844 0.13281 0.03125 0.19922 0.13281 0.19922 0.30078-0.03125 0.63281 0.11719 1.082 0.44922 1.3516 0.26562 0.10156 0.78125 0.18359 1.5508 0.25 0.33203 0.10156 0.5 0.25 0.5 0.44922 0.03125 0.16406-0.082031 0.38281-0.35156 0.64844-0.066406 0.13281-0.25 0.30078-0.55078 0.5-0.16797 0.19922-0.13281 0.36719 0.10156 0.5 0.13672 0.19922 0.36719 0.30078 0.70312 0.30078 0.30078-0.066406 0.55078-0.21875 0.75-0.44922 0.66406-0.56641 1.3164-0.81641 1.9492-0.75 0.63281 0.10156 1.3164 0.51562 2.0508 1.25 0.46875 0.39844 0.61719 0.85156 0.44922 1.3516 0 0.10156-0.21875 0.51562-0.64844 1.25-0.26562 0.5-0.63281 1.2188-1.1016 2.1484-0.43359 0.86719-0.91797 1.5312-1.4492 2-0.16797 0.16406-0.19922 0.44922-0.10156 0.85156 0.26562 0.63281 0.39844 1.0312 0.39844 1.1992-0.066406 1.1016-0.10156 2.75-0.10156 4.9492 0 2.2344-0.035156 3.9336-0.10156 5.1016 0 0.13281 0.10156 0.61719 0.30078 1.4492 0.10547 0.59766 0.074219 1.1133-0.09375 1.5469-0.43359 0.69922-0.83203 1.1172-1.1992 1.25-0.36719 0.066407-0.78125-0.19922-1.25-0.80078-0.13281-0.26562-0.28125-0.31641-0.44922-0.14844-0.03125 0.066406-0.10156 0.16406-0.19922 0.30078-0.035156 0.03125-0.18359 0.14844-0.44922 0.35156-0.13281 0.16797-0.30078 0.25-0.5 0.25h-0.85156c0-0.39844 0.18359-0.85156 0.55078-1.3516 0.5-0.56641 0.78125-1.0352 0.85156-1.3984-0.43359 0.13281-1.2344 0.78516-2.3984 1.9492-0.93359 0.89844-1.9336 1.0859-3 0.55078 0.19922-0.36719 0.60156-0.93359 1.1992-1.6992 0.5-0.66406 0.83203-1.2344 1-1.6992-0.56641-0.33594-1.0312-0.19922-1.3984 0.39844-0.53516 0.80078-0.88281 1.3828-1.0508 1.75-0.76562 1.6328-1.8828 2.0664-3.3516 1.3008 1.6016-2.3984 2.7656-4.1836 3.5-5.3516-0.86719 0.36719-1.6484 1.1172-2.3516 2.25-1.0664 1.6016-1.7188 2.5156-1.9492 2.75-0.30078-1.1641-0.19922-2.3516 0.30078-3.5508 0.23437-0.46875 0.85156-1.4492 1.8516-2.9492 0.39844-0.39844 0.66797-0.75 0.80078-1.0508 0.16406-0.36719 0.26562-0.61719 0.30078-0.75 0.066407-0.30078 0-0.48438-0.19922-0.55078-0.27734-0.16797-0.45703-0.13281-0.55859 0.10156-0.13281 0.19922-0.25 0.44922-0.35156 0.75-0.36719 0.46875-1.0156 1.5156-1.9492 3.1484-0.43359-1.3359-0.53516-2.5508-0.30078-3.6484 0.19922-1.1992 0.73437-2.5 1.6016-3.8984 0.30078-0.26562 0.48438-0.48438 0.55078-0.64844 0.13281-0.33203 0.050781-0.58203-0.25-0.75-0.30078-0.26953-0.55078-0.23828-0.75 0.097657-0.13281 0.16797-0.26562 0.46875-0.39844 0.89844-0.03125 0.066406-0.39844 0.76562-1.1016 2.1016 0.066407-0.46484-0.25-1-0.94922-1.6016-0.63281-0.43359-0.75-0.98438-0.35156-1.6484 0.13281-0.16797 0.78125-1.332 1.9492-3.5-0.63281 0.19922-1.0859 0.46875-1.3516 0.80078-0.23438 0.23438-0.69922 1.0664-1.3984 2.5-0.73438-0.5-1.1484-0.86719-1.25-1.1016-0.066407-0.19922 0-0.63281 0.19922-1.3008 0.36719-0.63281 0.61719-1.1328 0.75-1.5 0.33594-0.60156 0.39844-1.1836 0.19922-1.75-0.43359 0.36719-0.81641 0.91797-1.1484 1.6484-0.30078 1.0664-0.55078 1.668-0.75 1.8008-1.4336-0.76562-1.8828-1.7344-1.3516-2.8984 0.90234-1.2695 1.4531-2.2188 1.6523-2.8516-0.63281 0.13281-1.0312 0.28125-1.1992 0.44922-0.19922 0.16797-0.43359 0.63281-0.69922 1.3984-0.33594 0.60156-0.60156 0.90234-0.80078 0.90234-0.33203 0.066406-0.69922-0.16797-1.1016-0.69922-0.43359-0.60156-0.68359-1.0508-0.75-1.3516-0.10156-0.46875 0.10156-0.96875 0.60156-1.5 0.23438-0.23437 0.43359-0.58203 0.60156-1.0508 0.23438-0.56641 0.38281-0.98438 0.44922-1.25-0.43359-0.16797-0.75-0.11719-0.94922 0.14844-0.10156 0.23438-0.26562 0.55078-0.5 0.94922 0 0.03125-0.14844 0.33203-0.44922 0.89844-0.23438 0.36719-0.51562 0.51562-0.85156 0.44922-0.36719-0.09375-0.57031-0.35938-0.60156-0.79297 0.03125-0.53516 0.050781-0.91797 0.050781-1.1484-0.03125-0.39844 0.082031-0.85156 0.35156-1.3516 0.33594-0.53516 0.55078-0.93359 0.64844-1.1992 0.13281-0.10156 0.23438-0.18359 0.30078-0.25 0.13281-0.19922 0.13281-0.36719 0-0.5-0.89844-1.6016-1.1836-2.8516-0.85156-3.75 0.23438-0.60156 0.36719-1.4336 0.39844-2.5 0.066406-1.2344 0.14844-2.1172 0.25-2.6484 0.19922-0.76562 0.71875-1.4336 1.5508-2 0.83203-0.63281 1.6016-0.80078 2.3008-0.5l6.6484 2.6016c2.3672 0.89844 3.75 1.4336 4.1484 1.6016 1.6328 0.46875 3.1172 0.69922 4.4492 0.69922 0.66406 0 1.1328 0.13281 1.3984 0.39844 0.33594 0.23438 0.5 0.71875 0.5 1.4492 0.003907 1.8984-0.27734 3.1484-0.84375 3.7461zm7.8008 0.5c0.46875 2-0.082031 3.7188-1.6484 5.1484l-1.4531-0.79688c-0.76562-0.33203-1.4492-0.55078-2.0508-0.64844 1.5664-0.86719 2.5312-2.2148 2.8984-4.0508 0.13281-2.1641 0.30078-3.8359 0.5-5 0.37109 1.2305 0.95312 3.0156 1.7539 5.3477zm34.199-2.2969c0.46875-0.66797 0.75-1.1328 0.85156-1.3984 0.5-1.0664 1.2812-1.4688 2.3516-1.1992 4.6992 1.1328 8.7656 2.3008 12.199 3.5 0.86719 0.33203 1.8164 0.33203 2.8516 0-0.03125 0-0.5-0.35156-1.3984-1.0508-0.63281-0.39844-1.1172-0.64844-1.4492-0.75-1.043-0.23828-1.6055-0.63672-1.707-1.2031-0.10156-0.39844 0.015625-1.0352 0.35156-1.8984l0.5-1.5508c1.0664 0.23438 2 0.78125 2.8008 1.6484 0.46875 0.5 1.1016 1.3828 1.8984 2.6484 0.26562 0.39844 0.31641 0.91797 0.14844 1.5508-0.19922 0.70313-0.38281 1.0664-0.55078 1.1016-0.76563 0.066406-1.1836 0.36719-1.25 0.89844-0.03125 0.30078-0.03125 0.76563 0 1.3984-0.33203 1.3672-0.71875 2.2812-1.1484 2.75-0.46875 0.53125-1.3672 0.76562-2.6992 0.69922-1 0-2.582 0.18359-4.75 0.55078-2.0664 0.36719-3.6484 0.55078-4.75 0.55078 0.86719 0.43359 1.418 0.69922 1.6484 0.80078 0.60156 0.19922 1.1328 0.18359 1.6016-0.050781 0.5-0.19922 0.89844-0.25 1.1992-0.14844 0.19922 0.13281 0.46875 0.39844 0.80078 0.80078 0.63281 1.168 1.082 2.1328 1.3516 2.8984 0.39844 1.1016 0.58594 2.1484 0.55078 3.1484-0.035156 0.80078-0.015625 1.8984 0.050781 3.3008 0.03125 1.3008-0.11719 2.3984-0.44922 3.3008-0.10156 0.33594-0.11719 0.64844-0.050782 0.94922 0.03125 0.36719 0.23438 0.56641 0.60156 0.60156 0.26562 0.03125 0.41797-0.11719 0.44922-0.44922 0.03125-0.36719 0.10156-0.66797 0.19922-0.89844 0.36719-2.832 0.5-5.1328 0.39844-6.8984-0.16406-2.5312-0.78125-4.7812-1.8516-6.75 0.66797-0.066406 1.5156-0.13281 2.5508-0.19922 1.1016 0 1.918-0.015625 2.4492-0.050781 0.89844-0.10156 1.582-0.39844 2.0508-0.89844 0.33203-0.36719 0.58203-0.93359 0.75-1.6992 0.23438-1.0664 0.83203-2.7656 1.8008-5.1016 0.10156 0.066407 0.30078 0.25 0.60156 0.55078 1.5312 0.89844 2.3984 1.6172 2.6016 2.1484 0.13281 0.46875-0.03125 1.5664-0.5 3.3008-0.36719 1.2656-1.2344 2.8516-2.6016 4.75-0.46875 0.66797-1.3516 1-2.6484 1-1.2656 0-2.418-0.28516-3.4492-0.85156-0.33203-0.26562-0.56641-0.48438-0.69922-0.64844-0.23438-0.23438-0.5-0.13281-0.80078 0.30078-0.16406 0.23438-0.13281 0.51563 0.10156 0.85156 0.16406 0.13281 0.39844 0.36719 0.69922 0.69922 0.39844 0.5 0.88281 0.76562 1.4492 0.80078 0.66797-0.03125 1.1484-0.03125 1.4492 0 2.5 0.30078 4.3672-0.35156 5.6016-1.9492 0.33203-0.5 1.1328-2.1992 2.3984-5.1016 0.39453-0.80469 0.61328-1.2539 0.64453-1.3555 0.066406-0.13281 0.14844-0.14844 0.25-0.050781 0 0.066406 0.26562 0.36719 0.80078 0.89844 0.30078 0.33594 0.44922 0.70312 0.44922 1.1016-0.16797 2.4336-1.1016 4.3828-2.8008 5.8516-1.168 1-1.9688 1.6172-2.3984 1.8516-0.93359 0.60156-1.918 0.78125-2.9492 0.55078-0.53125 0.066406-0.91797 0.015625-1.1484-0.14844-0.16797-0.23437-0.31641-0.38281-0.44922-0.44922-0.13281-0.19922-0.31641-0.16797-0.55078 0.10156-0.26562 0.36719-0.11719 0.78125 0.44922 1.25 0.13281 0.066406 0.30078 0.19922 0.5 0.39844 1.1016 0.53516 1.6836 0.94922 1.75 1.25 0.066406 0.26562-0.23438 0.93359-0.89844 2-0.36719 0.60156-0.85156 1.4492-1.4492 2.5508-0.64063 0.96094-1.3203 1.6758-2.0547 2.1445-0.33594 0.23438-0.33594 0.56641 0 1 0.30078 0.19922 0.64844 0.14844 1.0508-0.14844 0.10156-0.19922 0.23438-0.35156 0.39844-0.44922 0.13281-0.13281 0.33203-0.14844 0.60156-0.050781 0.23438 0.066406 0.35156 0.23438 0.35156 0.5 0.03125 0.19922 0.03125 0.46875 0 0.80078 0 0.39844 0.03125 0.98438 0.10156 1.75 0 0.69922-0.085937 1.25-0.25 1.6484-0.13281 0.39844-0.53125 0.46875-1.1992 0.19922-0.69922-0.16406-1.1992-0.015625-1.5 0.44922 0-0.5 0.14844-0.98438 0.44922-1.4492 0.46875-0.53125 0.76562-0.91406 0.89844-1.1484-0.40234 0.03125-1.2188 0.59766-2.4531 1.6992-0.93359 0.83203-1.8984 0.93359-2.8984 0.30078 0.13281-0.39844 0.5-0.83203 1.1016-1.3008 0.59766-0.53516 0.96484-0.98438 1.0977-1.3516-0.43359-0.13281-0.80078-0.13281-1.1016 0-0.39844 0.10156-0.68359 0.33203-0.85156 0.69922-0.56641 1.0312-1.0664 1.6992-1.5 2-0.66797 0.43359-1.4844 0.36719-2.4492-0.19922 0.13281-0.39844 0.39844-0.86719 0.80078-1.3984 0.53125-0.63281 0.96875-1.1172 1.3008-1.4492-0.96875-0.19922-1.6016 0.13281-1.8984 1-0.43359 0.86328-0.94922 1.4297-1.5508 1.6992-0.66797 0.30078-1.5 0.35156-2.5 0.14844 0.93359-1.7656 2.2344-3.8984 3.8984-6.3984-0.89844 0.33203-1.6992 1.0977-2.3984 2.2969-0.93359 1.6016-1.5156 2.5312-1.75 2.8008-0.23438-2.0312-0.18359-3.5508 0.14844-4.5508 0.13281-0.46875 0.5-1.1484 1.1016-2.0508 0.63281-0.89844 1.0508-1.6484 1.25-2.25-0.73438 0.69922-1.3828 1.0508-1.9492 1.0508-0.56641 0-1.0312-0.46875-1.3984-1.3984l0.050781-0.050781c0.03125-0.066406 0.35156-0.35156 0.94922-0.85156 0.39844-0.33203 0.46875-0.64844 0.19922-0.94922-0.53516-0.53125-1.1016-0.16406-1.7031 1.1016-0.16406 0.36719-0.44922 0.36719-0.85156 0-0.30078-0.33203-0.5-0.55078-0.60156-0.64844-0.19531-0.30078-0.16406-0.58594 0.10547-0.85156l1.0508-1.8008c-0.36719-0.19922-0.63281-0.19922-0.80078 0-0.10156 0.10156-0.25 0.30078-0.44922 0.60156-0.13281 0.16406-0.28125 0.39844-0.44922 0.69922-0.16797 0.26562-0.40234 0.28125-0.70312 0.050781-0.69922-0.56641-0.81641-1.1992-0.34766-1.9023 0.33203-0.43359 0.58203-0.76562 0.75-1 0.26563-0.46875 0.38281-0.89844 0.35156-1.3008-0.60156 0.066407-1.0352 0.35156-1.3008 0.85156-0.19922 0.26562-0.43359 0.69922-0.69922 1.3008-0.96875-0.83203-1.4336-1.6172-1.3984-2.3516 0.03125-0.69922 0.55078-1.75 1.5508-3.1484 0.33203-0.16797 0.55078-0.35156 0.64844-0.55078 0.19922-0.16797 0.14844-0.38281-0.14844-0.64844-0.36719-0.19922-0.61719-0.16406-0.75 0.10156-0.10156 0.10156-0.25 0.38281-0.44922 0.85156-0.30469 0.62891-0.77344 1.1641-1.4062 1.5977 0.33203-1.3008 0.89844-2.8164 1.6992-4.5508 1-1.8672 1.7344-3.2656 2.1992-4.1992 0.16797-0.36719 0.46875-0.86719 0.90234-1.5zm5.5508-3.8516c-0.23437-0.066406-0.30078-0.25-0.19922-0.55078 0.23438-1.8359 0.75-3.3672 1.5508-4.6016 0.10156-0.19922 0.28125-0.28125 0.55078-0.25 0.066406 0 0.25 0.066407 0.55078 0.19922 2.3672 1.1328 3.668 1.7656 3.8984 1.8984 1.1641 0.73437 1.4844 1.6484 0.94922 2.75-0.30078 0.76562-0.38281 1.582-0.25 2.4492-0.43359-0.10156-1.5312-0.38281-3.3008-0.85156-1.3008-0.26562-2.3516-0.56641-3.1484-0.89844-0.10156-0.09375-0.30469-0.14453-0.60156-0.14453z" fill-rule="evenodd"/>
</g><g id="SvgjsG4331" featurekey="XAPJzK-0" transform="matrix(2.5377503086884966,0,0,2.5377503086884966,81.60715076479286,12.01)" fill="#000000"><path d="M1.4 5.5600000000000005 q0.92 -0.08 1.86 -0.13 t1.92 -0.05 t2.01 0.2 t1.86 0.75 t1.35 1.53 t0.52 2.54 t-0.52 2.53 t-1.34 1.53 t-1.83 0.76 t-1.99 0.2 l-0.48 -0.02 q-0.24 0 -0.44 -0.02 l0 4.62 q-0.38 0.06 -0.74 0.08 t-0.69 0.02 t-0.71 -0.02 t-0.78 -0.08 l0 -14.44 z M4.32 12.96 q0.24 0.04 0.46 0.04 l0.5 0 q0.5 0 0.98 -0.13 t0.85 -0.43 t0.59 -0.79 t0.22 -1.22 t-0.22 -1.24 t-0.59 -0.82 t-0.85 -0.44 t-0.98 -0.13 l-0.4 0 q-0.2 0.02 -0.56 0.06 l0 5.1 z M18.257 20.24 q-1.26 0 -2.19 -0.41 t-1.54 -1.14 t-0.92 -1.71 t-0.31 -2.12 t0.31 -2.14 t0.92 -1.73 t1.54 -1.15 t2.19 -0.42 t2.2 0.42 t1.56 1.15 t0.92 1.73 t0.3 2.14 t-0.3 2.12 t-0.92 1.71 t-1.56 1.14 t-2.2 0.41 z M18.257 18.08 q1.12 0 1.61 -0.83 t0.49 -2.39 t-0.49 -2.39 t-1.6 -0.83 t-1.6 0.83 t-0.49 2.39 t0.49 2.39 t1.59 0.83 z M26.214 5.380000000000001 q0.72 -0.12 1.41 -0.12 t1.41 0.12 l0 10.5 q0 0.62 0.07 1 t0.22 0.59 t0.39 0.29 t0.6 0.08 q0.16 0 0.35 -0.02 t0.37 -0.06 q0.22 0.82 0.22 1.6 l0 0.28 l-0.04 0.3 q-0.32 0.1 -0.77 0.14 t-0.83 0.04 q-1.54 0 -2.47 -0.85 t-0.93 -2.77 l0 -11.12 z M34.151 11.82 l-1.34 0 q-0.06 -0.26 -0.09 -0.55 t-0.03 -0.55 q0 -0.54 0.12 -1.06 l4.12 0 l0 10.34 q-0.72 0.12 -1.39 0.12 t-1.39 -0.12 l0 -8.18 z M33.731 7.92 q-0.12 -0.68 -0.12 -1.33 t0.12 -1.35 q0.34 -0.06 0.73 -0.09 t0.72 -0.03 t0.73 0.03 t0.74 0.09 q0.06 0.34 0.08 0.67 t0.02 0.66 t-0.02 0.67 t-0.08 0.68 q-0.34 0.06 -0.73 0.08 t-0.72 0.02 t-0.73 -0.02 t-0.74 -0.08 z M41.228 11.82 l-1.64 0 q-0.06 -0.32 -0.08 -0.58 t-0.02 -0.53 t0.02 -0.51 t0.08 -0.54 l1.64 0 l0 -0.5 q0 -0.96 0.29 -1.71 t0.83 -1.26 t1.29 -0.78 t1.65 -0.27 q0.6 0 1.01 0.05 t0.89 0.19 q-0.04 0.66 -0.13 1.19 t-0.29 1.05 l-0.46 -0.1 q-0.24 -0.04 -0.64 -0.04 q-0.7 0 -1.14 0.33 t-0.48 1.41 l0 0.44 l2.4 0 q0.06 0.32 0.08 0.58 t0.02 0.53 t-0.02 0.51 t-0.08 0.54 l-2.4 0 l0 8.18 q-0.72 0.12 -1.41 0.12 t-1.41 -0.12 l0 -8.18 z M54.44500000000001 15.26 q-0.24 -0.04 -0.52 -0.07 t-0.5 -0.03 q-0.98 0 -1.55 0.35 t-0.57 1.13 q0 0.52 0.22 0.8 t0.53 0.41 t0.66 0.16 t0.63 0.03 t0.58 -0.06 l0.52 -0.08 l0 -2.64 z M54.44500000000001 13.2 q0 -0.48 -0.16 -0.78 t-0.44 -0.47 t-0.69 -0.23 t-0.91 -0.06 q-1.08 0 -2.3 0.42 q-0.28 -0.52 -0.42 -0.98 t-0.14 -1.1 q0.88 -0.3 1.76 -0.44 t1.64 -0.14 q2.08 0 3.25 1 t1.17 3.2 l0 6 q-0.7 0.22 -1.7 0.42 t-2.26 0.2 q-1.02 0 -1.87 -0.18 t-1.46 -0.6 t-0.94 -1.08 t-0.33 -1.62 t0.41 -1.61 t1.06 -1.04 t1.45 -0.56 t1.6 -0.17 q0.58 0 1.28 0.06 l0 -0.24 z M67.482 17.56 q0.24 0.4 0.4 0.93 t0.16 1.25 q-0.8 0.32 -1.5 0.41 t-1.46 0.09 q-1.3 0 -2.26 -0.41 t-1.59 -1.13 t-0.95 -1.71 t-0.32 -2.14 t0.31 -2.13 t0.94 -1.72 t1.57 -1.16 t2.18 -0.42 q0.44 0 0.81 0.02 t0.71 0.08 t0.68 0.16 t0.76 0.26 q0 0.46 -0.12 1.03 t-0.38 1.09 q-0.6 -0.2 -1.05 -0.27 t-1.03 -0.07 q-1.24 0 -1.87 0.81 t-0.63 2.31 q0 1.62 0.68 2.36 t1.84 0.74 l0.56 -0.02 q0.24 0 0.48 -0.04 t0.5 -0.12 z M71.13900000000001 11.82 l-1.3 0 l-0.1 -0.4 l3.74 -4.78 l0.46 0 l0 3.02 l2.42 0 q0.06 0.3 0.08 0.54 t0.02 0.51 t-0.02 0.53 t-0.08 0.58 l-2.42 0 l0 4.06 q0 0.62 0.1 1 t0.29 0.6 t0.47 0.3 t0.66 0.08 q0.3 0 0.6 -0.06 l0.5 -0.08 q0.14 0.38 0.2 0.79 t0.06 0.73 l0 0.36 l-0.04 0.3 q-0.92 0.22 -1.9 0.22 q-1.82 0 -2.78 -0.85 t-0.96 -2.77 l0 -4.68 z M83.71600000000001 20.24 q-1.26 0 -2.19 -0.41 t-1.54 -1.14 t-0.92 -1.71 t-0.31 -2.12 t0.31 -2.14 t0.92 -1.73 t1.54 -1.15 t2.19 -0.42 t2.2 0.42 t1.56 1.15 t0.92 1.73 t0.3 2.14 t-0.3 2.12 t-0.92 1.71 t-1.56 1.14 t-2.2 0.41 z M83.71600000000001 18.08 q1.12 0 1.61 -0.83 t0.49 -2.39 t-0.49 -2.39 t-1.6 -0.83 t-1.6 0.83 t-0.49 2.39 t0.49 2.39 t1.59 0.83 z"/></g></svg>