<svg xmlns="http://www.w3.org/2000/svg" width="100%" height="100%" viewBox="0 0 369.9130434782609 65.19371044842117" class="looka-1j8o68f"><defs id="SvgjsDefs8792"></defs><g id="SvgjsG8793" featurekey="UFHKJ9-0" transform="matrix(0.873247861264939,0,0,0.873247861264939,-5.577434163185043,-13.644850104150844)" fill="#00a82d"><g xmlns="http://www.w3.org/2000/svg"><circle cx="19.261" cy="37.728" r="7.461"></circle><polygon points="10.19,47.167 6.387,62.917 11.8,67.212 15.311,90.282 24.233,90.282 27.453,67.056 32.134,62.76 28.33,47.167  "></polygon><circle cx="80.646" cy="37.728" r="7.461"></circle><polygon points="89.713,47.167 71.574,47.167 67.77,62.917 73.184,67.212 76.693,90.282 85.617,90.282 88.836,67.056 93.518,62.76     "></polygon><circle cx="49.942" cy="37.728" r="7.461"></circle><polygon points="40.872,47.167 37.067,62.917 42.481,67.212 45.991,90.282 54.915,90.282 58.134,67.056 62.815,62.76    59.011,47.167  "></polygon><path d="M48.474,26.319c0.291,0.289,0.673,0.436,1.057,0.436c0.331,0,0.664-0.109,0.939-0.331l10.111-8.128   c0.646-0.519,0.749-1.463,0.229-2.109c-0.518-0.646-1.465-0.747-2.108-0.229l-9.067,7.288l-3.088-3.065   c-0.587-0.584-1.537-0.58-2.121,0.008c-0.583,0.588-0.58,1.538,0.008,2.121L48.474,26.319z"></path><path d="M13.692,26.749c0.294,0.308,0.689,0.463,1.083,0.463c0.373,0,0.747-0.138,1.037-0.417l3.448-3.3l3.448,3.3   c0.291,0.278,0.664,0.417,1.037,0.417c0.395,0,0.789-0.155,1.083-0.463c0.573-0.598,0.552-1.548-0.046-2.121l-3.353-3.209   l3.353-3.208c0.599-0.573,0.619-1.522,0.046-2.121c-0.573-0.6-1.523-0.62-2.121-0.046l-3.447,3.299l-3.447-3.299   c-0.598-0.574-1.549-0.553-2.121,0.046c-0.573,0.598-0.552,1.548,0.046,2.121l3.353,3.208l-3.353,3.209   C13.14,25.201,13.12,26.151,13.692,26.749z"></path><path d="M75.075,26.749c0.295,0.308,0.689,0.463,1.084,0.463c0.373,0,0.747-0.138,1.037-0.417l3.447-3.3l3.447,3.3   c0.291,0.278,0.664,0.417,1.037,0.417c0.395,0,0.789-0.155,1.084-0.463c0.572-0.598,0.552-1.548-0.047-2.121l-3.353-3.209   l3.353-3.209c0.599-0.573,0.619-1.522,0.047-2.121c-0.574-0.6-1.524-0.62-2.121-0.046l-3.447,3.3l-3.447-3.3   c-0.6-0.574-1.548-0.553-2.121,0.046c-0.572,0.598-0.552,1.548,0.047,2.121l3.353,3.209l-3.353,3.209   C74.523,25.201,74.503,26.151,75.075,26.749z"></path></g></g><g id="SvgjsG8794" featurekey="XAPJzK-0" transform="matrix(3.1377503086884966,0,0,3.1377503086884966,91.60715076479286,-7.065281221398077)" fill="#000000"><path d="M1.4 5.5600000000000005 q0.92 -0.08 1.86 -0.13 t1.92 -0.05 t2.01 0.2 t1.86 0.75 t1.35 1.53 t0.52 2.54 t-0.52 2.53 t-1.34 1.53 t-1.83 0.76 t-1.99 0.2 l-0.48 -0.02 q-0.24 0 -0.44 -0.02 l0 4.62 q-0.38 0.06 -0.74 0.08 t-0.69 0.02 t-0.71 -0.02 t-0.78 -0.08 l0 -14.44 z M4.32 12.96 q0.24 0.04 0.46 0.04 l0.5 0 q0.5 0 0.98 -0.13 t0.85 -0.43 t0.59 -0.79 t0.22 -1.22 t-0.22 -1.24 t-0.59 -0.82 t-0.85 -0.44 t-0.98 -0.13 l-0.4 0 q-0.2 0.02 -0.56 0.06 l0 5.1 z M18.257 20.24 q-1.26 0 -2.19 -0.41 t-1.54 -1.14 t-0.92 -1.71 t-0.31 -2.12 t0.31 -2.14 t0.92 -1.73 t1.54 -1.15 t2.19 -0.42 t2.2 0.42 t1.56 1.15 t0.92 1.73 t0.3 2.14 t-0.3 2.12 t-0.92 1.71 t-1.56 1.14 t-2.2 0.41 z M18.257 18.08 q1.12 0 1.61 -0.83 t0.49 -2.39 t-0.49 -2.39 t-1.6 -0.83 t-1.6 0.83 t-0.49 2.39 t0.49 2.39 t1.59 0.83 z M26.214 5.380000000000001 q0.72 -0.12 1.41 -0.12 t1.41 0.12 l0 10.5 q0 0.62 0.07 1 t0.22 0.59 t0.39 0.29 t0.6 0.08 q0.16 0 0.35 -0.02 t0.37 -0.06 q0.22 0.82 0.22 1.6 l0 0.28 l-0.04 0.3 q-0.32 0.1 -0.77 0.14 t-0.83 0.04 q-1.54 0 -2.47 -0.85 t-0.93 -2.77 l0 -11.12 z M34.151 11.82 l-1.34 0 q-0.06 -0.26 -0.09 -0.55 t-0.03 -0.55 q0 -0.54 0.12 -1.06 l4.12 0 l0 10.34 q-0.72 0.12 -1.39 0.12 t-1.39 -0.12 l0 -8.18 z M33.731 7.92 q-0.12 -0.68 -0.12 -1.33 t0.12 -1.35 q0.34 -0.06 0.73 -0.09 t0.72 -0.03 t0.73 0.03 t0.74 0.09 q0.06 0.34 0.08 0.67 t0.02 0.66 t-0.02 0.67 t-0.08 0.68 q-0.34 0.06 -0.73 0.08 t-0.72 0.02 t-0.73 -0.02 t-0.74 -0.08 z M41.228 11.82 l-1.64 0 q-0.06 -0.32 -0.08 -0.58 t-0.02 -0.53 t0.02 -0.51 t0.08 -0.54 l1.64 0 l0 -0.5 q0 -0.96 0.29 -1.71 t0.83 -1.26 t1.29 -0.78 t1.65 -0.27 q0.6 0 1.01 0.05 t0.89 0.19 q-0.04 0.66 -0.13 1.19 t-0.29 1.05 l-0.46 -0.1 q-0.24 -0.04 -0.64 -0.04 q-0.7 0 -1.14 0.33 t-0.48 1.41 l0 0.44 l2.4 0 q0.06 0.32 0.08 0.58 t0.02 0.53 t-0.02 0.51 t-0.08 0.54 l-2.4 0 l0 8.18 q-0.72 0.12 -1.41 0.12 t-1.41 -0.12 l0 -8.18 z M54.44500000000001 15.26 q-0.24 -0.04 -0.52 -0.07 t-0.5 -0.03 q-0.98 0 -1.55 0.35 t-0.57 1.13 q0 0.52 0.22 0.8 t0.53 0.41 t0.66 0.16 t0.63 0.03 t0.58 -0.06 l0.52 -0.08 l0 -2.64 z M54.44500000000001 13.2 q0 -0.48 -0.16 -0.78 t-0.44 -0.47 t-0.69 -0.23 t-0.91 -0.06 q-1.08 0 -2.3 0.42 q-0.28 -0.52 -0.42 -0.98 t-0.14 -1.1 q0.88 -0.3 1.76 -0.44 t1.64 -0.14 q2.08 0 3.25 1 t1.17 3.2 l0 6 q-0.7 0.22 -1.7 0.42 t-2.26 0.2 q-1.02 0 -1.87 -0.18 t-1.46 -0.6 t-0.94 -1.08 t-0.33 -1.62 t0.41 -1.61 t1.06 -1.04 t1.45 -0.56 t1.6 -0.17 q0.58 0 1.28 0.06 l0 -0.24 z M67.482 17.56 q0.24 0.4 0.4 0.93 t0.16 1.25 q-0.8 0.32 -1.5 0.41 t-1.46 0.09 q-1.3 0 -2.26 -0.41 t-1.59 -1.13 t-0.95 -1.71 t-0.32 -2.14 t0.31 -2.13 t0.94 -1.72 t1.57 -1.16 t2.18 -0.42 q0.44 0 0.81 0.02 t0.71 0.08 t0.68 0.16 t0.76 0.26 q0 0.46 -0.12 1.03 t-0.38 1.09 q-0.6 -0.2 -1.05 -0.27 t-1.03 -0.07 q-1.24 0 -1.87 0.81 t-0.63 2.31 q0 1.62 0.68 2.36 t1.84 0.74 l0.56 -0.02 q0.24 0 0.48 -0.04 t0.5 -0.12 z M71.13900000000001 11.82 l-1.3 0 l-0.1 -0.4 l3.74 -4.78 l0.46 0 l0 3.02 l2.42 0 q0.06 0.3 0.08 0.54 t0.02 0.51 t-0.02 0.53 t-0.08 0.58 l-2.42 0 l0 4.06 q0 0.62 0.1 1 t0.29 0.6 t0.47 0.3 t0.66 0.08 q0.3 0 0.6 -0.06 l0.5 -0.08 q0.14 0.38 0.2 0.79 t0.06 0.73 l0 0.36 l-0.04 0.3 q-0.92 0.22 -1.9 0.22 q-1.82 0 -2.78 -0.85 t-0.96 -2.77 l0 -4.68 z M83.71600000000001 20.24 q-1.26 0 -2.19 -0.41 t-1.54 -1.14 t-0.92 -1.71 t-0.31 -2.12 t0.31 -2.14 t0.92 -1.73 t1.54 -1.15 t2.19 -0.42 t2.2 0.42 t1.56 1.15 t0.92 1.73 t0.3 2.14 t-0.3 2.12 t-0.92 1.71 t-1.56 1.14 t-2.2 0.41 z M83.71600000000001 18.08 q1.12 0 1.61 -0.83 t0.49 -2.39 t-0.49 -2.39 t-1.6 -0.83 t-1.6 0.83 t-0.49 2.39 t0.49 2.39 t1.59 0.83 z"></path></g></svg>