<!-- <svg xmlns="http://www.w3.org/2000/svg" width="100%" height="100%" viewBox="0 0 410 116" class="looka-1j8o68f"><defs id="SvgjsDefs13307"></defs><g id="SvgjsG13308" featurekey="rootContainer" transform="matrix(1,0,0,1,0,0)" fill="transparent"><rect xmlns="http://www.w3.org/2000/svg" width="410" height="116" rx="10" ry="10"></rect></g><g id="SvgjsG13309" featurekey="UFHKJ9-0" transform="matrix(0.991541962391642,0,0,0.991541962391642,8.46638392371988,8.46638392371988)" fill="#00a82d"><path xmlns="http://www.w3.org/2000/svg" d="M50,88.368c-21.156,0-38.368-17.212-38.368-38.368S28.844,11.632,50,11.632S88.368,28.844,88.368,50  S71.156,88.368,50,88.368z M50,13.132c-20.329,0-36.868,16.539-36.868,36.868S29.671,86.868,50,86.868S86.868,70.329,86.868,50  S70.329,13.132,50,13.132z"></path><path xmlns="http://www.w3.org/2000/svg" d="M50,85.376c-0.414,0-0.75-0.336-0.75-0.75s0.336-0.75,0.75-0.75c18.68,0,33.876-15.196,33.876-33.876  c0-18.679-15.196-33.876-33.876-33.876c-0.414,0-0.75-0.336-0.75-0.75s0.336-0.75,0.75-0.75c19.507,0,35.376,15.87,35.376,35.376  C85.376,69.507,69.507,85.376,50,85.376z"></path><g xmlns="http://www.w3.org/2000/svg"><path d="M49.25,83.868V16.132C30.916,16.533,16.124,31.572,16.124,50C16.124,68.429,30.916,83.467,49.25,83.868z M35.161,40.14   c4.437,0,9.86,4.423,9.86,9.86c0,5.438-4.423,9.86-9.86,9.86c-5.437,0-9.86-4.400-9.86-9.86   C25.301,44.563,29.724,40.14,35.161,40.14z"></path><path d=""></path>
<g><svg stroke="#00a82d" xmlns="http://www.w3.org/2000/svg" style="
    width: 5px;
    height: 5px;
    stroke-width: 1.5px;
    min-width: 10px;
    min-height: 10px;
"><path fill="none" d="M28.1 52.1l4.1 4.0 10.0-11.1"></path></svg>

        </g>
</g><path xmlns="http://www.w3.org/2000/svg" d="M57.174,58.55c-0.192,0-0.384-0.073-0.53-0.22c-0.293-0.293-0.293-0.768,0-1.061l15.601-15.6  c0.293-0.293,0.768-0.293,1.061,0s0.293,0.768,0,1.061l-15.601,15.6C57.558,58.477,57.366,58.55,57.174,58.55z"></path><path xmlns="http://www.w3.org/2000/svg" d="M72.774,58.55c-0.192,0-0.384-0.073-0.53-0.22l-15.601-15.6c-0.293-0.293-0.293-0.768,0-1.061s0.768-0.293,1.061,0  l15.601,15.6c0.293,0.293,0.293,0.768,0,1.061C73.158,58.477,72.967,58.55,72.774,58.55z"></path><path xmlns="http://www.w3.org/2000/svg" d="M50,14.624c0.414,0,0.75,0.336,0.75,0.75s-0.336,0.75-0.75,0.75c-18.68,0-33.876,15.196-33.876,33.876  c0,18.679,15.196,33.876,33.876,33.876c0.414,0,0.75,0.336,0.75,0.75s-0.336,0.75-0.75,0.75c-19.507,0-35.376-15.87-35.376-35.376  C14.624,30.493,30.493,14.624,50,14.624z"></path></g><g id="SvgjsG13310" featurekey="XAPJzK-0" transform="matrix(3.1377503086884966,0,0,3.1377503086884966,111.60715076479286,18.934718778601923)" fill="#000000"><path d="M1.4 5.5600000000000005 q0.92 -0.08 1.86 -0.13 t1.92 -0.05 t2.01 0.2 t1.86 0.75 t1.35 1.53 t0.52 2.54 t-0.52 2.53 t-1.34 1.53 t-1.83 0.76 t-1.99 0.2 l-0.48 -0.02 q-0.24 0 -0.44 -0.02 l0 4.62 q-0.38 0.06 -0.74 0.08 t-0.69 0.02 t-0.71 -0.02 t-0.78 -0.08 l0 -14.44 z M4.32 12.96 q0.24 0.04 0.46 0.04 l0.5 0 q0.5 0 0.98 -0.13 t0.85 -0.43 t0.59 -0.79 t0.22 -1.22 t-0.22 -1.24 t-0.59 -0.82 t-0.85 -0.44 t-0.98 -0.13 l-0.4 0 q-0.2 0.02 -0.56 0.06 l0 5.1 z M18.257 20.24 q-1.26 0 -2.19 -0.41 t-1.54 -1.14 t-0.92 -1.71 t-0.31 -2.12 t0.31 -2.14 t0.92 -1.73 t1.54 -1.15 t2.19 -0.42 t2.2 0.42 t1.56 1.15 t0.92 1.73 t0.3 2.14 t-0.3 2.12 t-0.92 1.71 t-1.56 1.14 t-2.2 0.41 z M18.257 18.08 q1.12 0 1.61 -0.83 t0.49 -2.39 t-0.49 -2.39 t-1.6 -0.83 t-1.6 0.83 t-0.49 2.39 t0.49 2.39 t1.59 0.83 z M26.214 5.380000000000001 q0.72 -0.12 1.41 -0.12 t1.41 0.12 l0 10.5 q0 0.62 0.07 1 t0.22 0.59 t0.39 0.29 t0.6 0.08 q0.16 0 0.35 -0.02 t0.37 -0.06 q0.22 0.82 0.22 1.6 l0 0.28 l-0.04 0.3 q-0.32 0.1 -0.77 0.14 t-0.83 0.04 q-1.54 0 -2.47 -0.85 t-0.93 -2.77 l0 -11.12 z M34.151 11.82 l-1.34 0 q-0.06 -0.26 -0.09 -0.55 t-0.03 -0.55 q0 -0.54 0.12 -1.06 l4.12 0 l0 10.34 q-0.72 0.12 -1.39 0.12 t-1.39 -0.12 l0 -8.18 z M33.731 7.92 q-0.12 -0.68 -0.12 -1.33 t0.12 -1.35 q0.34 -0.06 0.73 -0.09 t0.72 -0.03 t0.73 0.03 t0.74 0.09 q0.06 0.34 0.08 0.67 t0.02 0.66 t-0.02 0.67 t-0.08 0.68 q-0.34 0.06 -0.73 0.08 t-0.72 0.02 t-0.73 -0.02 t-0.74 -0.08 z M41.228 11.82 l-1.64 0 q-0.06 -0.32 -0.08 -0.58 t-0.02 -0.53 t0.02 -0.51 t0.08 -0.54 l1.64 0 l0 -0.5 q0 -0.96 0.29 -1.71 t0.83 -1.26 t1.29 -0.78 t1.65 -0.27 q0.6 0 1.01 0.05 t0.89 0.19 q-0.04 0.66 -0.13 1.19 t-0.29 1.05 l-0.46 -0.1 q-0.24 -0.04 -0.64 -0.04 q-0.7 0 -1.14 0.33 t-0.48 1.41 l0 0.44 l2.4 0 q0.06 0.32 0.08 0.58 t0.02 0.53 t-0.02 0.51 t-0.08 0.54 l-2.4 0 l0 8.18 q-0.72 0.12 -1.41 0.12 t-1.41 -0.12 l0 -8.18 z M54.44500000000001 15.26 q-0.24 -0.04 -0.52 -0.07 t-0.5 -0.03 q-0.98 0 -1.55 0.35 t-0.57 1.13 q0 0.52 0.22 0.8 t0.53 0.41 t0.66 0.16 t0.63 0.03 t0.58 -0.06 l0.52 -0.08 l0 -2.64 z M54.44500000000001 13.2 q0 -0.48 -0.16 -0.78 t-0.44 -0.47 t-0.69 -0.23 t-0.91 -0.06 q-1.08 0 -2.3 0.42 q-0.28 -0.52 -0.42 -0.98 t-0.14 -1.1 q0.88 -0.3 1.76 -0.44 t1.64 -0.14 q2.08 0 3.25 1 t1.17 3.2 l0 6 q-0.7 0.22 -1.7 0.42 t-2.26 0.2 q-1.02 0 -1.87 -0.18 t-1.46 -0.6 t-0.94 -1.08 t-0.33 -1.62 t0.41 -1.61 t1.06 -1.04 t1.45 -0.56 t1.6 -0.17 q0.58 0 1.28 0.06 l0 -0.24 z M67.482 17.56 q0.24 0.4 0.4 0.93 t0.16 1.25 q-0.8 0.32 -1.5 0.41 t-1.46 0.09 q-1.3 0 -2.26 -0.41 t-1.59 -1.13 t-0.95 -1.71 t-0.32 -2.14 t0.31 -2.13 t0.94 -1.72 t1.57 -1.16 t2.18 -0.42 q0.44 0 0.81 0.02 t0.71 0.08 t0.68 0.16 t0.76 0.26 q0 0.46 -0.12 1.03 t-0.38 1.09 q-0.6 -0.2 -1.05 -0.27 t-1.03 -0.07 q-1.24 0 -1.87 0.81 t-0.63 2.31 q0 1.62 0.68 2.36 t1.84 0.74 l0.56 -0.02 q0.24 0 0.48 -0.04 t0.5 -0.12 z M71.13900000000001 11.82 l-1.3 0 l-0.1 -0.4 l3.74 -4.78 l0.46 0 l0 3.02 l2.42 0 q0.06 0.3 0.08 0.54 t0.02 0.51 t-0.02 0.53 t-0.08 0.58 l-2.42 0 l0 4.06 q0 0.62 0.1 1 t0.29 0.6 t0.47 0.3 t0.66 0.08 q0.3 0 0.6 -0.06 l0.5 -0.08 q0.14 0.38 0.2 0.79 t0.06 0.73 l0 0.36 l-0.04 0.3 q-0.92 0.22 -1.9 0.22 q-1.82 0 -2.78 -0.85 t-0.96 -2.77 l0 -4.68 z M83.71600000000001 20.24 q-1.26 0 -2.19 -0.41 t-1.54 -1.14 t-0.92 -1.71 t-0.31 -2.12 t0.31 -2.14 t0.92 -1.73 t1.54 -1.15 t2.19 -0.42 t2.2 0.42 t1.56 1.15 t0.92 1.73 t0.3 2.14 t-0.3 2.12 t-0.92 1.71 t-1.56 1.14 t-2.2 0.41 z M83.71600000000001 18.08 q1.12 0 1.61 -0.83 t0.49 -2.39 t-0.49 -2.39 t-1.6 -0.83 t-1.6 0.83 t-0.49 2.39 t0.49 2.39 t1.59 0.83 z"></path></g></svg> -->
<!-- 
<svg xmlns="http://www.w3.org/2000/svg" width="100%" height="100%" viewBox="0 0 410 116" class="looka-1j8o68f"><defs id="SvgjsDefs13307"/><g id="SvgjsG13308" featurekey="rootContainer" transform="matrix(1,0,0,1,0,0)" fill="transparent"><rect xmlns="http://www.w3.org/2000/svg" width="410" height="116" rx="10" ry="10"/></g><g id="SvgjsG13309" featurekey="UFHKJ9-0" transform="matrix(0.991541962391642,0,0,0.991541962391642,8.46638392371988,8.46638392371988)" fill="#00a82d"><path xmlns="http://www.w3.org/2000/svg" d="M50,88.368c-21.156,0-38.368-17.212-38.368-38.368S28.844,11.632,50,11.632S88.368,28.844,88.368,50  S71.156,88.368,50,88.368z M50,13.132c-20.329,0-36.868,16.539-36.868,36.868S29.671,86.868,50,86.868S86.868,70.329,86.868,50  S70.329,13.132,50,13.132z"/><path xmlns="http://www.w3.org/2000/svg" d="M50,85.376c-0.414,0-0.75-0.336-0.75-0.75s0.336-0.75,0.75-0.75c18.68,0,33.876-15.196,33.876-33.876  c0-18.679-15.196-33.876-33.876-33.876c-0.414,0-0.75-0.336-0.75-0.75s0.336-0.75,0.75-0.75c19.507,0,35.376,15.87,35.376,35.376  C85.376,69.507,69.507,85.376,50,85.376z"/><g xmlns="http://www.w3.org/2000/svg" style="&#10;"><path d="M49.25,83.868V16.132C30.916,16.533,16.124,31.572,16.124,50C16.124,68.429,30.916,83.467,49.25,83.868z M35.161,40.14" style="&#10;"/>
<g style="&#10;    fill: green !important;&#10;"><svg xmlns="http://www.w3.org/2000/svg" stroke="#00a82d" style="width: 5px;height: 5px;stroke-width: 1.5px;min-width: 10px;min-height: 10px;display: block;background: green;fill: green;">
    <g>
    <circle class="" stroke="white" cx="25" cy="65" r="11" fill="#fff" style="&#10;    cy: 50;&#10;    cx: 33;&#10;"/>
    <path fill="none" d="M24.1 52.1l5.1 5.0 12.0-12.1" style="&#10;    /* border-radius: 5px; */&#10;    stroke-linecap: round;&#10;"/>
</g>
</svg>

        </g>
</g><path xmlns="http://www.w3.org/2000/svg" d="M57.174,58.55c-0.192,0-0.384-0.073-0.53-0.22c-0.293-0.293-0.293-0.768,0-1.061l15.601-15.6  c0.293-0.293,0.768-0.293,1.061,0s0.293,0.768,0,1.061l-15.601,15.6C57.558,58.477,57.366,58.55,57.174,58.55z"/><path xmlns="http://www.w3.org/2000/svg" d="M72.774,58.55c-0.192,0-0.384-0.073-0.53-0.22l-15.601-15.6c-0.293-0.293-0.293-0.768,0-1.061s0.768-0.293,1.061,0  l15.601,15.6c0.293,0.293,0.293,0.768,0,1.061C73.158,58.477,72.967,58.55,72.774,58.55z"/><path xmlns="http://www.w3.org/2000/svg" d="M50,14.624c0.414,0,0.75,0.336,0.75,0.75s-0.336,0.75-0.75,0.75c-18.68,0-33.876,15.196-33.876,33.876  c0,18.679,15.196,33.876,33.876,33.876c0.414,0,0.75,0.336,0.75,0.75s-0.336,0.75-0.75,0.75c-19.507,0-35.376-15.87-35.376-35.376  C14.624,30.493,30.493,14.624,50,14.624z"/></g><g id="SvgjsG13310" featurekey="XAPJzK-0" transform="matrix(3.1377503086884966,0,0,3.1377503086884966,111.60715076479286,18.934718778601923)" fill="#000000"><path d="M1.4 5.5600000000000005 q0.92 -0.08 1.86 -0.13 t1.92 -0.05 t2.01 0.2 t1.86 0.75 t1.35 1.53 t0.52 2.54 t-0.52 2.53 t-1.34 1.53 t-1.83 0.76 t-1.99 0.2 l-0.48 -0.02 q-0.24 0 -0.44 -0.02 l0 4.62 q-0.38 0.06 -0.74 0.08 t-0.69 0.02 t-0.71 -0.02 t-0.78 -0.08 l0 -14.44 z M4.32 12.96 q0.24 0.04 0.46 0.04 l0.5 0 q0.5 0 0.98 -0.13 t0.85 -0.43 t0.59 -0.79 t0.22 -1.22 t-0.22 -1.24 t-0.59 -0.82 t-0.85 -0.44 t-0.98 -0.13 l-0.4 0 q-0.2 0.02 -0.56 0.06 l0 5.1 z M18.257 20.24 q-1.26 0 -2.19 -0.41 t-1.54 -1.14 t-0.92 -1.71 t-0.31 -2.12 t0.31 -2.14 t0.92 -1.73 t1.54 -1.15 t2.19 -0.42 t2.2 0.42 t1.56 1.15 t0.92 1.73 t0.3 2.14 t-0.3 2.12 t-0.92 1.71 t-1.56 1.14 t-2.2 0.41 z M18.257 18.08 q1.12 0 1.61 -0.83 t0.49 -2.39 t-0.49 -2.39 t-1.6 -0.83 t-1.6 0.83 t-0.49 2.39 t0.49 2.39 t1.59 0.83 z M26.214 5.380000000000001 q0.72 -0.12 1.41 -0.12 t1.41 0.12 l0 10.5 q0 0.62 0.07 1 t0.22 0.59 t0.39 0.29 t0.6 0.08 q0.16 0 0.35 -0.02 t0.37 -0.06 q0.22 0.82 0.22 1.6 l0 0.28 l-0.04 0.3 q-0.32 0.1 -0.77 0.14 t-0.83 0.04 q-1.54 0 -2.47 -0.85 t-0.93 -2.77 l0 -11.12 z M34.151 11.82 l-1.34 0 q-0.06 -0.26 -0.09 -0.55 t-0.03 -0.55 q0 -0.54 0.12 -1.06 l4.12 0 l0 10.34 q-0.72 0.12 -1.39 0.12 t-1.39 -0.12 l0 -8.18 z M33.731 7.92 q-0.12 -0.68 -0.12 -1.33 t0.12 -1.35 q0.34 -0.06 0.73 -0.09 t0.72 -0.03 t0.73 0.03 t0.74 0.09 q0.06 0.34 0.08 0.67 t0.02 0.66 t-0.02 0.67 t-0.08 0.68 q-0.34 0.06 -0.73 0.08 t-0.72 0.02 t-0.73 -0.02 t-0.74 -0.08 z M41.228 11.82 l-1.64 0 q-0.06 -0.32 -0.08 -0.58 t-0.02 -0.53 t0.02 -0.51 t0.08 -0.54 l1.64 0 l0 -0.5 q0 -0.96 0.29 -1.71 t0.83 -1.26 t1.29 -0.78 t1.65 -0.27 q0.6 0 1.01 0.05 t0.89 0.19 q-0.04 0.66 -0.13 1.19 t-0.29 1.05 l-0.46 -0.1 q-0.24 -0.04 -0.64 -0.04 q-0.7 0 -1.14 0.33 t-0.48 1.41 l0 0.44 l2.4 0 q0.06 0.32 0.08 0.58 t0.02 0.53 t-0.02 0.51 t-0.08 0.54 l-2.4 0 l0 8.18 q-0.72 0.12 -1.41 0.12 t-1.41 -0.12 l0 -8.18 z M54.44500000000001 15.26 q-0.24 -0.04 -0.52 -0.07 t-0.5 -0.03 q-0.98 0 -1.55 0.35 t-0.57 1.13 q0 0.52 0.22 0.8 t0.53 0.41 t0.66 0.16 t0.63 0.03 t0.58 -0.06 l0.52 -0.08 l0 -2.64 z M54.44500000000001 13.2 q0 -0.48 -0.16 -0.78 t-0.44 -0.47 t-0.69 -0.23 t-0.91 -0.06 q-1.08 0 -2.3 0.42 q-0.28 -0.52 -0.42 -0.98 t-0.14 -1.1 q0.88 -0.3 1.76 -0.44 t1.64 -0.14 q2.08 0 3.25 1 t1.17 3.2 l0 6 q-0.7 0.22 -1.7 0.42 t-2.26 0.2 q-1.02 0 -1.87 -0.18 t-1.46 -0.6 t-0.94 -1.08 t-0.33 -1.62 t0.41 -1.61 t1.06 -1.04 t1.45 -0.56 t1.6 -0.17 q0.58 0 1.28 0.06 l0 -0.24 z M67.482 17.56 q0.24 0.4 0.4 0.93 t0.16 1.25 q-0.8 0.32 -1.5 0.41 t-1.46 0.09 q-1.3 0 -2.26 -0.41 t-1.59 -1.13 t-0.95 -1.71 t-0.32 -2.14 t0.31 -2.13 t0.94 -1.72 t1.57 -1.16 t2.18 -0.42 q0.44 0 0.81 0.02 t0.71 0.08 t0.68 0.16 t0.76 0.26 q0 0.46 -0.12 1.03 t-0.38 1.09 q-0.6 -0.2 -1.05 -0.27 t-1.03 -0.07 q-1.24 0 -1.87 0.81 t-0.63 2.31 q0 1.62 0.68 2.36 t1.84 0.74 l0.56 -0.02 q0.24 0 0.48 -0.04 t0.5 -0.12 z M71.13900000000001 11.82 l-1.3 0 l-0.1 -0.4 l3.74 -4.78 l0.46 0 l0 3.02 l2.42 0 q0.06 0.3 0.08 0.54 t0.02 0.51 t-0.02 0.53 t-0.08 0.58 l-2.42 0 l0 4.06 q0 0.62 0.1 1 t0.29 0.6 t0.47 0.3 t0.66 0.08 q0.3 0 0.6 -0.06 l0.5 -0.08 q0.14 0.38 0.2 0.79 t0.06 0.73 l0 0.36 l-0.04 0.3 q-0.92 0.22 -1.9 0.22 q-1.82 0 -2.78 -0.85 t-0.96 -2.77 l0 -4.68 z M83.71600000000001 20.24 q-1.26 0 -2.19 -0.41 t-1.54 -1.14 t-0.92 -1.71 t-0.31 -2.12 t0.31 -2.14 t0.92 -1.73 t1.54 -1.15 t2.19 -0.42 t2.2 0.42 t1.56 1.15 t0.92 1.73 t0.3 2.14 t-0.3 2.12 t-0.92 1.71 t-1.56 1.14 t-2.2 0.41 z M83.71600000000001 18.08 q1.12 0 1.61 -0.83 t0.49 -2.39 t-0.49 -2.39 t-1.6 -0.83 t-1.6 0.83 t-0.49 2.39 t0.49 2.39 t1.59 0.83 z"/></g></svg> -->

<svg xmlns="http://www.w3.org/2000/svg" width="100%" height="100%" viewBox="0 0 410 116" class="looka-1j8o68f"><defs id="SvgjsDefs13307"/><g id="SvgjsG13308" featurekey="rootContainer" transform="matrix(1,0,0,1,0,0)" fill="transparent"><rect xmlns="http://www.w3.org/2000/svg" width="410" height="116" rx="10" ry="10"/></g><g id="SvgjsG13309" featurekey="UFHKJ9-0" transform="matrix(0.991541962391642,0,0,0.991541962391642,8.46638392371988,8.46638392371988)" fill="#00a82d"><path xmlns="http://www.w3.org/2000/svg" d="M50,88.368c-21.156,0-38.368-17.212-38.368-38.368S28.844,11.632,50,11.632S88.368,28.844,88.368,50  S71.156,88.368,50,88.368z M50,13.132c-20.329,0-36.868,16.539-36.868,36.868S29.671,86.868,50,86.868S86.868,70.329,86.868,50  S70.329,13.132,50,13.132z"/><path xmlns="http://www.w3.org/2000/svg" d="M50,85.376c-0.414,0-0.75-0.336-0.75-0.75s0.336-0.75,0.75-0.75c18.68,0,33.876-15.196,33.876-33.876  c0-18.679-15.196-33.876-33.876-33.876c-0.414,0-0.75-0.336-0.75-0.75s0.336-0.75,0.75-0.75c19.507,0,35.376,15.87,35.376,35.376  C85.376,69.507,69.507,85.376,50,85.376z"/><g xmlns="http://www.w3.org/2000/svg" style="&#10;"><path d="M49.25,83.868V16.132C30.916,16.533,16.124,31.572,16.124,50C16.124,68.429,30.916,83.467,49.25,83.868z M35.161,40.14" style="&#10;"/>
<g style="&#10;    fill: green !important;&#10;"><svg xmlns="http://www.w3.org/2000/svg" stroke="#00a82d" style="width: 5px;height: 5px;stroke-width: 1.5px;min-width: 10px;min-height: 10px;display: block;background: green;fill: green;">
    <g>
    <circle class="" stroke="white" cx="25" cy="65" r="11" fill="#fff" style="&#10;    cy: 50;&#10;    cx: 33;&#10;"/>
    <path fill="none" d="M26.1 52.1l4.1 4.0 10.0-10.1" style="&#10;    /* border-radius: 5px; */&#10;    stroke-linecap: round;&#10;"/>
</g>
</svg>

        </g>
</g><path xmlns="http://www.w3.org/2000/svg" d="M57.174,58.55c-0.192,0-0.384-0.073-0.53-0.22c-0.293-0.293-0.293-0.768,0-1.061l15.601-15.6  c0.293-0.293,0.768-0.293,1.061,0s0.293,0.768,0,1.061l-15.601,15.6C57.558,58.477,57.366,58.55,57.174,58.55z"/><path xmlns="http://www.w3.org/2000/svg" d="M72.774,58.55c-0.192,0-0.384-0.073-0.53-0.22l-15.601-15.6c-0.293-0.293-0.293-0.768,0-1.061s0.768-0.293,1.061,0  l15.601,15.6c0.293,0.293,0.293,0.768,0,1.061C73.158,58.477,72.967,58.55,72.774,58.55z"/><path xmlns="http://www.w3.org/2000/svg" d="M50,14.624c0.414,0,0.75,0.336,0.75,0.75s-0.336,0.75-0.75,0.75c-18.68,0-33.876,15.196-33.876,33.876  c0,18.679,15.196,33.876,33.876,33.876c0.414,0,0.75,0.336,0.75,0.75s-0.336,0.75-0.75,0.75c-19.507,0-35.376-15.87-35.376-35.376  C14.624,30.493,30.493,14.624,50,14.624z"/></g><g id="SvgjsG13310" featurekey="XAPJzK-0" transform="matrix(3.1377503086884966,0,0,3.1377503086884966,111.60715076479286,18.934718778601923)" fill="#000000"><path d="M1.4 5.5600000000000005 q0.92 -0.08 1.86 -0.13 t1.92 -0.05 t2.01 0.2 t1.86 0.75 t1.35 1.53 t0.52 2.54 t-0.52 2.53 t-1.34 1.53 t-1.83 0.76 t-1.99 0.2 l-0.48 -0.02 q-0.24 0 -0.44 -0.02 l0 4.62 q-0.38 0.06 -0.74 0.08 t-0.69 0.02 t-0.71 -0.02 t-0.78 -0.08 l0 -14.44 z M4.32 12.96 q0.24 0.04 0.46 0.04 l0.5 0 q0.5 0 0.98 -0.13 t0.85 -0.43 t0.59 -0.79 t0.22 -1.22 t-0.22 -1.24 t-0.59 -0.82 t-0.85 -0.44 t-0.98 -0.13 l-0.4 0 q-0.2 0.02 -0.56 0.06 l0 5.1 z M18.257 20.24 q-1.26 0 -2.19 -0.41 t-1.54 -1.14 t-0.92 -1.71 t-0.31 -2.12 t0.31 -2.14 t0.92 -1.73 t1.54 -1.15 t2.19 -0.42 t2.2 0.42 t1.56 1.15 t0.92 1.73 t0.3 2.14 t-0.3 2.12 t-0.92 1.71 t-1.56 1.14 t-2.2 0.41 z M18.257 18.08 q1.12 0 1.61 -0.83 t0.49 -2.39 t-0.49 -2.39 t-1.6 -0.83 t-1.6 0.83 t-0.49 2.39 t0.49 2.39 t1.59 0.83 z M26.214 5.380000000000001 q0.72 -0.12 1.41 -0.12 t1.41 0.12 l0 10.5 q0 0.62 0.07 1 t0.22 0.59 t0.39 0.29 t0.6 0.08 q0.16 0 0.35 -0.02 t0.37 -0.06 q0.22 0.82 0.22 1.6 l0 0.28 l-0.04 0.3 q-0.32 0.1 -0.77 0.14 t-0.83 0.04 q-1.54 0 -2.47 -0.85 t-0.93 -2.77 l0 -11.12 z M34.151 11.82 l-1.34 0 q-0.06 -0.26 -0.09 -0.55 t-0.03 -0.55 q0 -0.54 0.12 -1.06 l4.12 0 l0 10.34 q-0.72 0.12 -1.39 0.12 t-1.39 -0.12 l0 -8.18 z M33.731 7.92 q-0.12 -0.68 -0.12 -1.33 t0.12 -1.35 q0.34 -0.06 0.73 -0.09 t0.72 -0.03 t0.73 0.03 t0.74 0.09 q0.06 0.34 0.08 0.67 t0.02 0.66 t-0.02 0.67 t-0.08 0.68 q-0.34 0.06 -0.73 0.08 t-0.72 0.02 t-0.73 -0.02 t-0.74 -0.08 z M41.228 11.82 l-1.64 0 q-0.06 -0.32 -0.08 -0.58 t-0.02 -0.53 t0.02 -0.51 t0.08 -0.54 l1.64 0 l0 -0.5 q0 -0.96 0.29 -1.71 t0.83 -1.26 t1.29 -0.78 t1.65 -0.27 q0.6 0 1.01 0.05 t0.89 0.19 q-0.04 0.66 -0.13 1.19 t-0.29 1.05 l-0.46 -0.1 q-0.24 -0.04 -0.64 -0.04 q-0.7 0 -1.14 0.33 t-0.48 1.41 l0 0.44 l2.4 0 q0.06 0.32 0.08 0.58 t0.02 0.53 t-0.02 0.51 t-0.08 0.54 l-2.4 0 l0 8.18 q-0.72 0.12 -1.41 0.12 t-1.41 -0.12 l0 -8.18 z M54.44500000000001 15.26 q-0.24 -0.04 -0.52 -0.07 t-0.5 -0.03 q-0.98 0 -1.55 0.35 t-0.57 1.13 q0 0.52 0.22 0.8 t0.53 0.41 t0.66 0.16 t0.63 0.03 t0.58 -0.06 l0.52 -0.08 l0 -2.64 z M54.44500000000001 13.2 q0 -0.48 -0.16 -0.78 t-0.44 -0.47 t-0.69 -0.23 t-0.91 -0.06 q-1.08 0 -2.3 0.42 q-0.28 -0.52 -0.42 -0.98 t-0.14 -1.1 q0.88 -0.3 1.76 -0.44 t1.64 -0.14 q2.08 0 3.25 1 t1.17 3.2 l0 6 q-0.7 0.22 -1.7 0.42 t-2.26 0.2 q-1.02 0 -1.87 -0.18 t-1.46 -0.6 t-0.94 -1.08 t-0.33 -1.62 t0.41 -1.61 t1.06 -1.04 t1.45 -0.56 t1.6 -0.17 q0.58 0 1.28 0.06 l0 -0.24 z M67.482 17.56 q0.24 0.4 0.4 0.93 t0.16 1.25 q-0.8 0.32 -1.5 0.41 t-1.46 0.09 q-1.3 0 -2.26 -0.41 t-1.59 -1.13 t-0.95 -1.71 t-0.32 -2.14 t0.31 -2.13 t0.94 -1.72 t1.57 -1.16 t2.18 -0.42 q0.44 0 0.81 0.02 t0.71 0.08 t0.68 0.16 t0.76 0.26 q0 0.46 -0.12 1.03 t-0.38 1.09 q-0.6 -0.2 -1.05 -0.27 t-1.03 -0.07 q-1.24 0 -1.87 0.81 t-0.63 2.31 q0 1.62 0.68 2.36 t1.84 0.74 l0.56 -0.02 q0.24 0 0.48 -0.04 t0.5 -0.12 z M71.13900000000001 11.82 l-1.3 0 l-0.1 -0.4 l3.74 -4.78 l0.46 0 l0 3.02 l2.42 0 q0.06 0.3 0.08 0.54 t0.02 0.51 t-0.02 0.53 t-0.08 0.58 l-2.42 0 l0 4.06 q0 0.62 0.1 1 t0.29 0.6 t0.47 0.3 t0.66 0.08 q0.3 0 0.6 -0.06 l0.5 -0.08 q0.14 0.38 0.2 0.79 t0.06 0.73 l0 0.36 l-0.04 0.3 q-0.92 0.22 -1.9 0.22 q-1.82 0 -2.78 -0.85 t-0.96 -2.77 l0 -4.68 z M83.71600000000001 20.24 q-1.26 0 -2.19 -0.41 t-1.54 -1.14 t-0.92 -1.71 t-0.31 -2.12 t0.31 -2.14 t0.92 -1.73 t1.54 -1.15 t2.19 -0.42 t2.2 0.42 t1.56 1.15 t0.92 1.73 t0.3 2.14 t-0.3 2.12 t-0.92 1.71 t-1.56 1.14 t-2.2 0.41 z M83.71600000000001 18.08 q1.12 0 1.61 -0.83 t0.49 -2.39 t-0.49 -2.39 t-1.6 -0.83 t-1.6 0.83 t-0.49 2.39 t0.49 2.39 t1.59 0.83 z"/></g></svg>