<svg xmlns="http://www.w3.org/2000/svg" width="100%" height="100%" viewBox="0 0 369.9130434782609 66.13888639436888" class="looka-1j8o68f"><defs id="SvgjsDefs4848"></defs><g id="SvgjsG4849" featurekey="UFHKJ9-0" transform="matrix(1.0498235935614109,0,0,1.0498235935614109,-15.457663640147333,-19.106794208528708)" fill="#000000"><path xmlns="http://www.w3.org/2000/svg" d="M35.2,58.7c0.1,0,0.2,0,0.4,0c0.4,2.7,1.1,5.3,2.4,7.8c0.1,0.1,0.1,0.2,0.2,0.3c0,0.1,0,0.2,0,0.3c0.2,0.7,0.1,1.3-0.2,1.9  c-1.3,2.2-5.9,3.6-7.5,3.9c-0.4,0.1-0.6,0.3-0.8,0.7s0,0.7,0.2,1c5.6,6.1,14.2,2.9,16.5,1.9c4.4,3,9.5,4.7,14.8,4.7  c14.3,0,26-11.7,26-26s-11.7-26-26-26c-2.6,0-5.2,0.4-7.6,1.1c-1-2.2-2.3-4.3-4.1-6c-3.8-3.9-8.9-6-14.3-6.1c-0.1,0-0.1,0-0.2,0  c-5.3,0-10.4,2.1-14.2,5.8c-8,7.8-8.1,20.7-0.3,28.6C24.5,56.5,29.7,58.7,35.2,58.7z M85.2,55.2c0,13.2-10.8,24-24,24  c-5.1,0-10-1.6-14.1-4.6c-0.2-0.1-0.4-0.2-0.6-0.2c-0.2,0-0.3,0-0.4,0.1c-0.1,0-8,3.9-13.4,0c2.2-0.7,5.6-2,7-4.4  c0.6-1.1,0.8-2.3,0.4-3.5c-0.1-0.2-0.2-0.3-0.3-0.4c0-0.2,0-0.3-0.1-0.5c-1.6-3.3-2.4-6.8-2.4-10.5c0-13.2,10.8-24,24-24  S85.2,41.9,85.2,55.2z M22.4,25.5c3.4-3.4,8-5.2,12.8-5.2c0.1,0,0.1,0,0.2,0c4.9,0,9.4,2,12.9,5.5c1.5,1.5,2.7,3.3,3.6,5.2  c-5.2,2-9.4,5.4-12.4,9.8l-2.2-2.2l3-3c0.4-0.4,0.4-1,0-1.4s-1-0.4-1.4,0l-3,3l-3-3c-0.4-0.4-1-0.4-1.4,0s-0.4,1,0,1.4l3,3l-3,3  c-0.4,0.4-0.4,1,0,1.4c0.2,0.2,0.5,0.3,0.7,0.3s0.5-0.1,0.7-0.3l3-3l2.6,2.6c-2.1,3.8-3.3,8.1-3.3,12.7c0,0.5,0,1,0.1,1.6  c-4.8,0-9.5-2-12.9-5.5C15.1,44.1,15.2,32.5,22.4,25.5z"></path><path xmlns="http://www.w3.org/2000/svg" d="M55.7,63.6c0.2,0.2,0.5,0.3,0.7,0.3s0.5-0.1,0.7-0.3l15.4-15.4c0.4-0.4,0.4-1,0-1.4s-1-0.4-1.4,0L56.4,61.5l-5-5  c-0.4-0.4-1-0.4-1.4,0s-0.4,1,0,1.4L55.7,63.6z"></path></g><g id="SvgjsG4850" featurekey="XAPJzK-0" transform="matrix(2.8016634116506833,0,0,2.8016634116506833,92.80610375079634,-1.7281523202130114)" fill="#000000"><path d="M1.14 20 l0 -12.24 l5.8 0 c2.28 0 4.22 1.72 4.22 4.02 c0 2.32 -2 4.02 -4.22 4.02 l-2.8 0 l0 4.2 l-3 0 z M6.94 10.54 l-2.8 0 l0 2.48 l2.8 0 c0.7 0 1.22 -0.54 1.22 -1.24 s-0.52 -1.24 -1.22 -1.24 z M19.551 17.32 c1.46 0 2.3 -0.86 2.3 -2.32 s-0.84 -2.32 -2.3 -2.32 s-2.3 0.86 -2.3 2.32 s0.84 2.32 2.3 2.32 z M19.551 20.1 c-3.08 0 -5.3 -2.04 -5.3 -5.1 c0 -3.16 2.3 -5.1 5.3 -5.1 c3.1 0 5.3 2.04 5.3 5.1 c0 3.14 -2.32 5.1 -5.3 5.1 z M28.561999999999998 6 l3 0 l0 14 l-3 0 l0 -14 z M35.952999999999996 10 l3 0 l0 10 l-3 0 l0 -10 z M37.452999999999996 9.06 c-1.02 0 -1.74 -0.72 -1.74 -1.74 c0 -1.04 0.72 -1.72 1.74 -1.72 c1.04 0 1.72 0.68 1.72 1.72 c0 1.06 -0.66 1.74 -1.72 1.74 z M48.843999999999994 10.34 l0 2.78 l-2.46 0 l0 6.88 l-3 0 l0 -9.98 c0 -3.32 2.44 -5.12 5.52 -5.12 c0.1 0 0.24 0 0.38 0.02 s0.3 0.06 0.44 0.08 l0 2.9 c-0.1 -0.02 -0.22 -0.04 -0.36 -0.06 s-0.26 -0.04 -0.36 -0.04 c-0.5 0 -0.9 0.06 -1.24 0.16 c-0.56 0.2 -1.06 0.58 -1.24 1.18 c-0.1 0.26 -0.14 0.56 -0.14 0.86 l0 0.34 l2.46 0 z M59.815 15 c-0.08 -1.46 -0.74 -2.32 -2.26 -2.32 c-0.42 0 -0.78 0.06 -1.08 0.18 c-0.92 0.42 -1.26 1.2 -1.26 2.16 c0 0.32 0.04 0.62 0.14 0.88 c0.3 1.04 1.2 1.42 2.2 1.42 c1.52 0 2.26 -0.82 2.26 -2.32 z M63.614999999999995 20 l-3 0 c-0.2 -0.5 -0.38 -1 -0.5 -1.52 c-0.68 1.12 -1.72 1.62 -3 1.62 c-2.86 0 -4.9 -2.4 -4.9 -5.14 c0 -3.16 2.36 -5.06 5.34 -5.06 c3.18 0 5.18 2.04 5.26 5.1 c0.02 0.26 0.02 0.56 0.02 0.92 c0 1.4 0.22 2.8 0.78 4.08 z M75.06599999999999 16.7 l0 3 c-1.02 0.34 -2.08 0.44 -3.14 0.44 c-3.1 0 -5.3 -2.06 -5.3 -5.12 c0 -3.18 2.28 -5.12 5.3 -5.12 c1.06 0 2.12 0.1 3.14 0.44 l0 3 c-0.88 -0.46 -1.98 -0.58 -2.96 -0.58 c-0.66 0 -1.46 0.14 -1.92 0.66 c-0.42 0.42 -0.56 1.02 -0.56 1.58 c0 0.32 0.04 0.62 0.14 0.88 c0.08 0.28 0.22 0.52 0.42 0.72 c0.44 0.54 1.26 0.68 1.92 0.68 c0.88 0 2.18 -0.16 2.96 -0.58 z M84.77699999999999 10.34 l0 2.78 l-2.8 0 l0 1.88 c0 1.54 1.02 2.32 2.5 2.32 c0.18 0 0.34 -0.02 0.48 -0.04 s0.26 -0.04 0.4 -0.06 l0 2.78 c-0.18 0.02 -0.32 0.06 -0.42 0.08 c-0.12 0.02 -0.32 0.02 -0.58 0.02 c-3.02 0 -5.38 -2.06 -5.38 -5.1 l0 -7.4 l3 0 l0 2.74 l2.8 0 z M93.60799999999998 17.32 c1.46 0 2.3 -0.86 2.3 -2.32 s-0.84 -2.32 -2.3 -2.32 s-2.3 0.86 -2.3 2.32 s0.84 2.32 2.3 2.32 z M93.60799999999998 20.1 c-3.08 0 -5.3 -2.04 -5.3 -5.1 c0 -3.16 2.3 -5.1 5.3 -5.1 c3.1 0 5.3 2.04 5.3 5.1 c0 3.14 -2.32 5.1 -5.3 5.1 z"></path></g></svg>