<svg xmlns="http://www.w3.org/2000/svg" width="100%" height="100%" viewBox="0 0 369.9130434782609 64.82910482826074" class="looka-1j8o68f"><defs id="SvgjsDefs4329"/><g xmlns="http://www.w3.org/2000/svg" id="SvgjsG4330" featurekey="UFHKJ9-0" transform="matrix(0.8687330552344261,0,0,0.8687330552344261,-5.057401407096371,-9.664753001114496)" fill="#00a82d">
<path xmlns="http://www.w3.org/2000/svg" d="m17.141 31.594c0.93359 0.43359 2.5156 0.94922 4.75 1.5508 2.0312 0.60156 3.582 1.168 4.6484 1.6992 0.39844 0.16797 0.66797 0.18359 0.80078 0.050781 0.066406-0.066406 0.16406-0.31641 0.30078-0.75 0.46875-1.0664 1.6016-3.5664 3.3984-7.5 0.69922-1.5 1.8672-2.3516 3.5-2.5508 0.63281-0.03125 1.0859-0.23438 1.3516-0.60156 0.16406-0.19922 0.31641-0.58203 0.44922-1.1484 0.26562-1.2344 0.63281-2.3672 1.1016-3.3984 2.1328-4.3984 5.418-5.668 9.8516-3.8008l0.5 0.19922c1.5664 1 2.6484 1.6328 3.25 1.8984 1.3359 0.63281 2.6016 1.0352 3.8008 1.1992 2.0312 0.23438 3.6836 1.6328 4.9492 4.1992 0.43359 0.83203 1 1.3516 1.6992 1.5508 3.168 1.0312 5.0664 3.0508 5.6992 6.0508 0.10156 0.23437 0.38281 0.60156 0.85156 1.1016 1.6992 1.7656 2.668 3.4336 2.8984 5 0.26562 1.5664-0.16797 3.4492-1.3008 5.6484-0.89844 1.832-2.0859 3.5352-3.5508 5.1016 0.96484-0.10156 1.6992-0.30078 2.1992-0.60156 0.60156-0.39844 1.0859-1 1.4492-1.8008 1.1016-2.4336 2.7188-3.582 4.8516-3.4492 2 0.13281 3.8828 1.2344 5.6484 3.3008 0.46875 0.56641 0.93359 0.91797 1.3984 1.0508 1.9336 0.43359 3.3672 1.5312 4.3008 3.3008 0.10156 0.36719 0.19922 0.55078 0.30078 0.55078 0.86719 0.23438 1.6836 0.85156 2.4492 1.8516 1.0312 1.1992 1.75 1.9336 2.1484 2.1992 2.3672 1.5 3.7148 3.2656 4.0508 5.3008 0.36719 1.8008-0.10156 3.9648-1.3984 6.5-0.86719 1.7344-2.1836 3.3164-3.9492 4.75-3.1016 2.5312-4.332 6.0508-3.6992 10.551 0.03125 0.30078 0.066406 0.75 0.10156 1.3516 0.10156 1.168 0.03125 1.918-0.19922 2.25-0.36719 0.36719-1.1484 0.53125-2.3516 0.5-2.8359-0.13281-5.8984-0.26562-9.1992-0.39844-3.3008-0.10156-5.0664-0.14844-5.3008-0.14844-0.19922-0.03125-0.60156-0.03125-1.1992 0-0.63281 0-1.1172-0.19922-1.4492-0.60156-0.26563-0.43359-0.38281-0.78516-0.35156-1.0508 0-0.30078-0.085937-0.83203-0.25-1.6016-0.16797-0.83203-0.28125-1.5508-0.35156-2.1484-0.10156-1-0.11719-1.8672-0.050781-2.6016 0.10156-1.1992-0.10156-2.3164-0.60156-3.3516-0.36719-0.83203-1.0508-1.75-2.0508-2.75-2.0664-2.2656-3.5156-4.4844-4.3516-6.6484-0.33203-0.96484-0.30078-1.8672 0.10156-2.6992 0.066406-0.066407 0.89844-1.7656 2.5-5.1016 1.0664-2 2.0312-3.6328 2.8984-4.8984 1.1016-1.5664 1.7812-2.582 2.0508-3.0508-0.56641 0.5-1.3984 1.2344-2.5 2.1992-0.96484 0.89844-1.6016 1.8828-1.8984 2.9492-0.36719 1.0664-1.25 2.1836-2.6484 3.3516-1.6016 1.1992-2.2656 2.75-2 4.6484 0.26562 2.7656 0.64844 6.9648 1.1484 12.602 0.30078 3.168 0.63281 6.25 1 9.25 0.066406 0.39844 0.03125 0.71875-0.10156 0.94922-0.13281 0.16797-0.43359 0.31641-0.89844 0.44922-0.89844 0.33203-2.4336 0.51562-4.6016 0.55078-1.7656 0-4.2148 0.11719-7.3516 0.35156-3.4688 0.26562-5.918 0.39844-7.3516 0.39844-0.80078 0.03125-1.3828-0.14844-1.75-0.55078-0.39844-0.33203-0.66797-0.88281-0.80078-1.6484-0.33203-1.3984-0.44922-3.1172-0.35156-5.1484 0.03125-1.3672-0.03125-3.3672-0.19922-6-0.19922-2.7344-0.30078-4.7344-0.30078-6-1.2344 1.4688-1.75 3.1836-1.5508 5.1484 0.16406 1.668 0.26562 3.75 0.30078 6.25 0 3.832 0.03125 5.9336 0.10156 6.3008 0 0.60156-0.26562 1.0312-0.80078 1.3008-0.39844 0.23438-0.89844 0.35156-1.5 0.35156-1 0-3.6484 0.082032-7.9492 0.25-3.2344 0.16797-5.8828 0.11719-7.9492-0.14844-1.5352-0.26562-2.1484-1.1172-1.8516-2.5508 0.23438-1.0312 0.38281-2.4336 0.44922-4.1992 0-2.1992 0.03125-3.6172 0.10156-4.25 0.13281-1.2656-0.25-2.5-1.1484-3.6992-1.1016-1.3008-1.9336-2.2812-2.5-2.9492-1.8008-2.0664-3.4492-4.25-4.9492-6.5508-0.63281-0.93359-0.94922-2.082-0.94922-3.4492 0.16797-1.6328 0.25-2.8672 0.25-3.6992 0.13281-1.332 0.21875-2.332 0.25-3 0.066406-1.1992 0.066406-2.2188 0-3.0508-0.13281-1.8672 0.60156-3.418 2.1992-4.6484 0.63281-0.46484 0.94922-1.1328 0.94922-2 0.03125-2.2344 0.53125-4.6328 1.5-7.1992 0.36719-1.0352 1.332-1.8516 2.8984-2.4492 1.5742-0.64844 2.9414-0.69531 4.1094-0.16406zm13.547 27c0.56641 0.10156 1.1836 0.31641 1.8516 0.64844l1.3516 0.75c1.4688-1.3672 1.9844-2.9648 1.5508-4.8008-0.76562-2.1328-1.3164-3.7656-1.6484-4.8984-0.16406 1.0664-0.31641 2.6016-0.44922 4.6016-0.33594 1.6992-1.2188 2.9336-2.6562 3.6992zm-2.1484-8.6484c-0.23437-0.23437-0.64844-0.35156-1.25-0.35156-1.2344 0-2.6172-0.21875-4.1484-0.64844-0.36719-0.16797-1.6484-0.64844-3.8516-1.4492l-6.1016-2.4492c-0.63281-0.23438-1.332-0.066406-2.1016 0.5-0.76563 0.5-1.25 1.1172-1.4492 1.8516-0.10156 0.46875-0.18359 1.2656-0.25 2.3984-0.03125 1-0.13281 1.7812-0.30078 2.3516-0.33594 0.83203-0.085938 1.9844 0.75 3.4492 0.13281 0.13281 0.13281 0.26562 0 0.39844-0.066407 0.066406-0.16797 0.14844-0.30078 0.25-0.10156 0.26562-0.30078 0.64844-0.60156 1.1484-0.23438 0.43359-0.33203 0.83203-0.30078 1.1992 0 0.23438-0.015624 0.60156-0.050781 1.1016 0.03125 0.39844 0.23438 0.63281 0.60156 0.69922 0.26562 0.066407 0.51562-0.050781 0.75-0.35156 0.26562-0.53516 0.39844-0.81641 0.39844-0.85156 0.19922-0.39844 0.36719-0.68359 0.5-0.85156 0.16406-0.30078 0.46484-0.35156 0.89844-0.14844-0.10156 0.19922-0.26562 0.56641-0.5 1.1016-0.13281 0.46484-0.31641 0.80078-0.55078 1-0.43359 0.46484-0.61719 0.91797-0.55078 1.3516 0.066406 0.30078 0.31641 0.71875 0.75 1.25 0.33203 0.5 0.64844 0.69922 0.94922 0.60156 0.19922 0 0.43359-0.25 0.69922-0.75 0.30078-0.73438 0.53516-1.168 0.69922-1.3008 0.13281-0.16797 0.48438-0.31641 1.0508-0.44922-0.13281 0.60156-0.61719 1.4844-1.4492 2.6484-0.5 1.0664-0.085937 1.9688 1.25 2.6992 0.13281-0.16797 0.36719-0.71875 0.69922-1.6484 0.26562-0.69922 0.61719-1.2188 1.0508-1.5508 0.16406 0.53516 0.10156 1.0664-0.19922 1.6016-0.10156 0.33203-0.33594 0.78516-0.69922 1.3516-0.16797 0.63281-0.21875 1.0508-0.14844 1.25 0.066406 0.19922 0.43359 0.55078 1.1016 1.0508 0.63281-1.332 1.082-2.1328 1.3516-2.3984 0.19922-0.26562 0.60156-0.5 1.1992-0.69922-1.1016 2.0312-1.6836 3.1016-1.75 3.1992-0.39844 0.63281-0.31641 1.168 0.25 1.6016 0.66797 0.56641 0.96875 1.0508 0.89844 1.4492 0.63281-1.2344 0.96484-1.8828 1-1.9492 0.16406-0.36719 0.30078-0.64844 0.39844-0.85156 0.16797-0.26562 0.39844-0.30078 0.69922-0.10156 0.26562 0.16797 0.33203 0.39844 0.19922 0.69922-0.066406 0.16797-0.23438 0.38281-0.5 0.64844-0.80078 1.2656-1.2812 2.4492-1.4492 3.5508-0.23438 1.0312-0.14844 2.1484 0.25 3.3516 0.86719-1.4648 1.4688-2.418 1.8008-2.8516 0.10156-0.30078 0.19922-0.53516 0.30078-0.69922 0.13281-0.23438 0.31641-0.26562 0.55078-0.10156 0.16406 0.066406 0.21484 0.23438 0.14844 0.5-0.03125 0.13281-0.11719 0.36719-0.25 0.69922-0.10156 0.26563-0.35156 0.58203-0.75 0.94922-0.93359 1.3984-1.5 2.3164-1.6992 2.75-0.46484 1.0664-0.55078 2.1484-0.25 3.25 0.19922-0.23438 0.78516-1.082 1.75-2.5508 0.66797-1.0312 1.3984-1.7188 2.1992-2.0508-0.69922 1.1016-1.7656 2.75-3.1992 4.9492 1.3359 0.69922 2.3516 0.28516 3.0508-1.25 0.16406-0.30078 0.48438-0.83203 0.94922-1.6016 0.36719-0.53125 0.80078-0.66797 1.3008-0.39844-0.13281 0.46875-0.43359 1.0156-0.89844 1.6484-0.56641 0.66797-0.93359 1.1836-1.1016 1.5508 0.96484 0.46484 1.8672 0.28125 2.6992-0.55078 1.1016-1.0664 1.8672-1.668 2.3008-1.8008-0.066406 0.36719-0.33594 0.80078-0.80078 1.3008-0.36719 0.46875-0.55078 0.88281-0.55078 1.25h0.75c0.23438 0 0.41797-0.066406 0.55078-0.19922 0.19922-0.19922 0.31641-0.31641 0.35156-0.35156 0.10156-0.13281 0.16406-0.23438 0.19922-0.30078 0.16406-0.10156 0.31641-0.050781 0.44922 0.14844 0.43359 0.56641 0.80078 0.81641 1.1016 0.75 0.36719-0.10156 0.73438-0.46875 1.1016-1.1016 0.19922-0.43359 0.25-0.93359 0.14844-1.5-0.19922-0.73438-0.30078-1.1836-0.30078-1.3516 0.066407-1.0312 0.10156-2.582 0.10156-4.6484 0-2.0312 0.015625-3.5664 0.050781-4.6016 0-0.16797-0.11719-0.53125-0.35156-1.1016-0.10156-0.36719-0.066406-0.63281 0.10156-0.80078 0.5-0.43359 0.96875-1.0312 1.3984-1.8008 0.39844-0.86719 0.71875-1.5352 0.94922-2 0.39844-0.66797 0.60156-1.0508 0.60156-1.1484 0.16797-0.46484 0.03125-0.88281-0.39844-1.25-0.69922-0.66797-1.332-1.0508-1.8984-1.1484-0.60156-0.066406-1.1836 0.16797-1.75 0.69922-0.19922 0.19922-0.44922 0.33203-0.75 0.39844-0.26562 0-0.48438-0.082031-0.64844-0.25-0.19922-0.13281-0.23438-0.30078-0.10156-0.5 0.30078-0.16797 0.48438-0.31641 0.55078-0.44922 0.23438-0.19922 0.33203-0.39844 0.30078-0.60156 0-0.19922-0.14844-0.31641-0.44922-0.35156-0.73437-0.066407-1.1992-0.14844-1.3984-0.25-0.33594-0.26563-0.48438-0.69922-0.44922-1.3008 0-0.13281-0.066406-0.21484-0.19922-0.25-0.16406 0-0.30078 0.035156-0.39844 0.10156-0.33594 0.19922-0.80078 0.30078-1.3984 0.30078-0.73437-0.066406-1.2188-0.066406-1.4492 0 0.10156 0.26562 0.60156 1.1992 1.5 2.8008 0.66797 1.168 1.0859 2.168 1.25 3 0.46875 1.832 0.71875 3.0664 0.75 3.6992 0.03125 0.96484-0.25 1.75-0.85156 2.3516-0.16797-0.16797-0.25-0.38281-0.25-0.64844v-0.64844c0-2.7344-0.71875-5.3164-2.1484-7.75-0.60156-1.0664-1.1836-1.8164-1.75-2.25-0.73438-0.60156-1.6641-0.81641-2.8008-0.64844-0.33203 0.066406-0.69922 0.015625-1.1016-0.14844-0.13281-0.035156-0.56641-0.23437-1.3008-0.60156 1-0.33203 1.5352-0.5 1.6016-0.5l7.0508-0.10156c1.832-0.03125 3.0156-0.31641 3.5508-0.85156 0.53125-0.53125 0.80078-1.6836 0.80078-3.4492-0.007813-0.66016-0.17188-1.1094-0.50781-1.3398zm1.3984-9.0508c-0.13281-0.39844-0.41797-0.56641-0.85156-0.5-0.5 0.10156-0.80078 0.10156-0.89844 0-0.10156-0.10156-0.16797-0.082031-0.19922 0.050781v0.35156c-0.30078 3.8008-0.48438 6.0664-0.55078 6.8008 0 0.33203 0.03125 0.60156 0.10156 0.80078 0.13281 0.13281 0.33594 0.31641 0.60156 0.55078 0.23438 0.19922 0.69922 0.36719 1.3984 0.5 0.5 0.23438 0.80078 0.63281 0.89844 1.1992 0.13281 1-0.03125 2.4844-0.5 4.4492-0.10156 0.33203-0.43359 0.58203-1 0.75-0.89844 0.26562-1.3984 0.41797-1.5 0.44922l-0.19922 0.35156c1.5312 1.4688 2.8672 1.3516 4-0.35156 0.33594-0.39844 0.53125-0.78516 0.60156-1.1484 0.43359-2.6016 0.68359-4.1836 0.75-4.75 0.13281-1.5-0.13281-3.1484-0.80078-4.9492-0.86719-2.0039-1.4844-3.5234-1.8516-4.5547zm45.551 9.5977c1.6328 0.43359 2.6484 0.69922 3.0508 0.80078-0.10156-0.80078-0.015624-1.5508 0.25-2.25 0.5-1 0.19922-1.832-0.89844-2.5-0.19922-0.16797-1.3984-0.76562-3.6016-1.8008-0.23437-0.13281-0.38281-0.19922-0.44922-0.19922-0.26562-0.035157-0.44922 0.050781-0.55078 0.25-0.69922 1.168-1.1836 2.582-1.4492 4.25-0.10156 0.26562-0.015625 0.43359 0.25 0.5 0.23438 0 0.39844 0.050781 0.5 0.14844 0.73438 0.30078 1.6992 0.57031 2.8984 0.80078zm14.902 7.5c-0.066406-0.10156-0.13281-0.082032-0.19922 0.050781-0.03125 0.13281-0.23438 0.55078-0.60156 1.25-1.168 2.6992-1.918 4.2812-2.25 4.75-1.1328 1.4336-2.8359 2.0312-5.1016 1.8008-0.33203-0.03125-0.80078-0.03125-1.3984 0-0.53516-0.03125-0.96875-0.28125-1.3008-0.75-0.30078-0.30078-0.51562-0.53125-0.64844-0.69922-0.23438-0.26562-0.26562-0.51562-0.10156-0.75 0.23438-0.39844 0.48438-0.48438 0.75-0.25 0.13281 0.13281 0.35156 0.33203 0.64844 0.60156 0.93359 0.5 1.9844 0.75 3.1484 0.75 1.1992 0 2.0156-0.30078 2.4492-0.89844 1.2656-1.7656 2.0508-3.2344 2.3516-4.3984 0.46875-1.6016 0.63281-2.6016 0.5-3-0.16797-0.5-0.96875-1.1836-2.3984-2.0508-0.26562-0.23438-0.44922-0.38281-0.55078-0.44922-0.89844 2.1328-1.4492 3.6836-1.6484 4.6484-0.13281 0.73438-0.36719 1.2656-0.69922 1.6016-0.43359 0.5-1.0664 0.76562-1.8984 0.80078-0.5 0.035156-1.2656 0.050781-2.3008 0.050781-0.89844 0.066407-1.668 0.13281-2.3008 0.19922 1 1.832 1.5664 3.918 1.6992 6.25 0.10156 1.6328-0.03125 3.75-0.39844 6.3516-0.066406 0.19922-0.11719 0.48438-0.14844 0.85156-0.03125 0.30078-0.16406 0.43359-0.39844 0.39844-0.33594-0.03125-0.51562-0.21875-0.55078-0.55078-0.066407-0.30078-0.050781-0.60156 0.050781-0.89844 0.30078-0.83203 0.43359-1.8516 0.39844-3.0508-0.10156-1.3008-0.11719-2.3008-0.050782-3 0.03125-0.96875-0.13281-1.9336-0.5-2.8984-0.23438-0.73438-0.64844-1.6328-1.25-2.6992-0.30078-0.36719-0.55078-0.61719-0.75-0.75-0.26562-0.10156-0.61719-0.050781-1.0508 0.14844-0.46875 0.19922-0.98438 0.21875-1.5508 0.050781-0.16797-0.10156-0.66797-0.35156-1.5-0.75 1 0 2.4648-0.16797 4.3984-0.5 1.9688-0.33203 3.4336-0.5 4.3984-0.5 1.1992 0.03125 2.0312-0.16797 2.5-0.60156 0.36719-0.43359 0.69922-1.2812 1-2.5508-0.03125-0.60156-0.03125-1.0508 0-1.3516 0.066406-0.5 0.44922-0.78516 1.1484-0.85156 0.16797-0.03125 0.33594-0.35156 0.5-0.94922 0.16797-0.60156 0.14844-1.082-0.050781-1.4492-0.80078-1.168-1.3984-1.9844-1.8008-2.4492-0.76562-0.76562-1.6172-1.2812-2.5508-1.5508l-0.55078 1.4492c-0.26562 0.80078-0.35156 1.3828-0.25 1.75 0.10156 0.53516 0.61719 0.89844 1.5508 1.1016 0.30078 0.10156 0.73438 0.33203 1.3008 0.69922 0.86719 0.66797 1.3164 1 1.3516 1-1 0.26562-1.8828 0.26562-2.6484 0-3.168-1.1328-6.9336-2.2188-11.301-3.25-0.93359-0.23438-1.6328 0.11719-2.1016 1.0508-0.10156 0.30078-0.36719 0.75-0.80078 1.3516-0.39844 0.60156-0.68359 1.0508-0.85156 1.3516-0.43359 0.89844-1.1016 2.2148-2 3.9492-0.76562 1.5664-1.3008 2.9492-1.6016 4.1484 0.60156-0.39844 1.0312-0.89844 1.3008-1.5 0.19922-0.43359 0.33594-0.68359 0.39844-0.75 0.13281-0.26562 0.36719-0.30078 0.69922-0.10156 0.30078 0.23438 0.35156 0.43359 0.14844 0.60156-0.10156 0.16797-0.30078 0.33203-0.60156 0.5-0.89844 1.3008-1.3672 2.2656-1.3984 2.8984-0.066406 0.66797 0.35156 1.3984 1.25 2.1992 0.26562-0.56641 0.48438-0.98438 0.64844-1.25 0.26562-0.43359 0.66797-0.69922 1.1992-0.80078 0.03125 0.39844-0.066406 0.81641-0.30078 1.25-0.16797 0.23438-0.39844 0.55078-0.69922 0.94922-0.43359 0.63281-0.33594 1.2148 0.30078 1.75 0.30078 0.16797 0.51562 0.14844 0.64844-0.050781 0.16406-0.30078 0.30078-0.51562 0.39844-0.64844 0.19922-0.30078 0.35156-0.5 0.44922-0.60156 0.16797-0.16797 0.41797-0.16797 0.75 0l-1 1.6484c-0.23438 0.30078-0.25 0.56641-0.050781 0.80078 0.066406 0.10156 0.25 0.31641 0.55078 0.64844 0.36719 0.30078 0.61719 0.30078 0.75 0 0.56641-1.168 1.1016-1.5 1.6016-1 0.19922 0.23438 0.13281 0.51562-0.19922 0.85156-0.53516 0.43359-0.81641 0.68359-0.85156 0.75l-0.050781 0.050782c0.33203 0.86719 0.76562 1.3008 1.3008 1.3008 0.5 0 1.0859-0.33203 1.75-1-0.16406 0.56641-0.53125 1.2656-1.1016 2.1016-0.56641 0.80078-0.91797 1.4336-1.0508 1.8984-0.30078 0.93359-0.36719 2.332-0.19922 4.1992 0.26562-0.26562 0.81641-1.1328 1.6484-2.6016 0.63281-1.1016 1.3828-1.8008 2.25-2.1016-1.5664 2.2656-2.7656 4.2148-3.6016 5.8516 0.89844 0.19922 1.6484 0.16797 2.25-0.10156 0.56641-0.23438 1.0508-0.76562 1.4492-1.6016 0.26562-0.76562 0.85156-1.0664 1.75-0.89844-0.30078 0.33203-0.69922 0.78125-1.1992 1.3516-0.36719 0.5-0.60156 0.91797-0.69922 1.25 0.86719 0.53516 1.6172 0.60156 2.25 0.19922 0.39844-0.26562 0.86719-0.88281 1.3984-1.8516 0.13281-0.30078 0.36719-0.5 0.69922-0.60156 0.33203-0.16797 0.69922-0.16797 1.1016 0-0.16797 0.30078-0.53125 0.69922-1.1016 1.1992-0.5 0.46875-0.81641 0.86719-0.94922 1.1992 0.93359 0.60156 1.8164 0.51563 2.6484-0.25 1.1328-1.0352 1.8984-1.5664 2.3008-1.6016-0.13281 0.26562-0.41797 0.61719-0.85156 1.0508-0.30078 0.43359-0.44922 0.88281-0.44922 1.3516 0.30078-0.43359 0.76562-0.56641 1.3984-0.39844 0.60156 0.23438 0.96875 0.16797 1.1016-0.19922 0.19922-0.33203 0.30078-0.81641 0.30078-1.4492-0.10156-0.76562-0.14844-1.3164-0.14844-1.6484 0.03125-0.33203 0.03125-0.58203 0-0.75 0-0.23438-0.11719-0.39844-0.35156-0.5-0.19922-0.10156-0.38281-0.066406-0.55078 0.10156-0.13281 0.10156-0.25 0.23438-0.35156 0.39844-0.36719 0.26562-0.68359 0.31641-0.94922 0.14844-0.33203-0.43359-0.33203-0.73438 0-0.89844 0.66797-0.46484 1.2812-1.1328 1.8516-2 0.56641-1.0312 1.0312-1.8164 1.3984-2.3516 0.63281-0.96875 0.89844-1.582 0.80078-1.8516-0.066406-0.26562-0.60156-0.66797-1.6016-1.1992-0.19922-0.13281-0.36719-0.23438-0.5-0.30078-0.53125-0.43359-0.64844-0.83203-0.35156-1.1992 0.16406-0.23438 0.31641-0.26563 0.44922-0.10156 0.13281 0.066406 0.28516 0.21875 0.44922 0.44922 0.19922 0.16797 0.55078 0.21875 1.0508 0.14844 0.93359 0.19922 1.8359 0.015625 2.6992-0.55078 0.39844-0.19922 1.1328-0.76562 2.1992-1.6992 1.6016-1.332 2.4688-3.1328 2.6016-5.3984 0-0.36719-0.13281-0.69922-0.39844-1-0.47266-0.49609-0.72266-0.77734-0.72266-0.84766zm-30.801-31.449c-0.80078-0.13281-1.2852 0.066406-1.4492 0.60156-0.19922 0.80078-0.58594 1.6836-1.1484 2.6484-0.30078 0.5-0.78125 1.3164-1.4492 2.4492 0.96875 0.19922 1.8008 0.53516 2.5 1 0.66797 0.5 1.0352 1 1.1016 1.5 0.43359 3-0.78125 4.918-3.6484 5.75-2.6641 0.86719-5.1016 1.2188-7.3008 1.0508l2.25 1.9492c0.30078-0.56641 0.55078-0.91797 0.75-1.0508 0.33203-0.33203 0.55078 0.11719 0.64844 1.3516 0 0.03125 0.066406 0.082031 0.19922 0.14844 0.13281 0.066406 0.19922 0.082032 0.19922 0.050782 0.16797-0.03125 0.94922 0 2.3516 0.10156 1 0.13281 1.7656-0.11719 2.3008-0.75 0.16406-0.23438 0.35156-0.31641 0.55078-0.25 0.066407 0 0.21875 0.10156 0.44922 0.30078 0.19922 0.066407 0.26562 0.19922 0.19922 0.39844-0.035156 0.13281-0.13281 0.25-0.30078 0.35156-0.33203 0.19922-0.44922 0.43359-0.35156 0.69922 0 0.03125 0.13281 0.23438 0.39844 0.60156 0.33203 0.73438 1.0156 1.1328 2.0508 1.1992 1.0664 0.066407 1.9141-0.18359 2.5508-0.75 2.7344-2.5664 4.4492-5.6172 5.1484-9.1484 0.10156-0.56641-0.11719-1.1992-0.64844-1.8984-0.5-0.66797-1.082-1.1172-1.75-1.3516-0.53125-0.13281-0.91797 0-1.1484 0.39844-0.16406 0.19922-0.35156 0.55078-0.55078 1.0508-1.332 2.5-2.8984 4.9648-4.6992 7.3984-0.16406 0.33203-0.28125 0.51562-0.35156 0.55078-0.16797 0.13281-0.36719 0.13281-0.60156 0-0.5-0.36719-0.53516-0.75-0.10156-1.1484 0.19922-0.36719 0.33594-0.60156 0.39844-0.69922 2.3984-3.4336 4.0664-6.25 5-8.4492 0.46875-1.168 0.28125-2.4492-0.55078-3.8516-0.79688-1.3711-1.7969-2.1016-2.9961-2.2031zm-27.801 8.1523c-0.16406 0.73438-0.46484 1.8164-0.89844 3.25-0.16797 1.2344 0.11719 2.332 0.85156 3.3008 0.23437 0.36719 0.51562 1.0156 0.85156 1.9492 0.23438 1 0.51562 1.7148 0.85156 2.1484 0.23438-0.46875 0.36719-0.75 0.39844-0.85156 0.03125-0.26563 0.18359-0.41797 0.44922-0.44922 0.10156-0.066407 0.25-0.050781 0.44922 0.050781 0.16797 0.10156 0.25 0.25 0.25 0.44922 0.03125 0.16797-0.03125 0.31641-0.19922 0.44922-0.76562 0.76562-1.0156 1.6016-0.75 2.5 0.035156 0.26562 0.41797 1.0508 1.1484 2.3516 0.066406-0.03125 0.19922-0.33203 0.39844-0.89844 0.16406-0.36719 0.43359-0.48437 0.80078-0.35156 0.36719 0.16797 0.44922 0.44922 0.25 0.85156-0.03125 0.066407-0.16797 0.31641-0.39844 0.75-0.46875 0.69922-0.58203 1.3984-0.35156 2.1016 0.10156 0.33203 0.41406 0.96484 0.94922 1.8984 0.066406-0.066406 0.21484-0.33203 0.44922-0.80078 0.13281-0.33203 0.36719-0.55078 0.69922-0.64844 0.23438 0.73438 0.085938 1.3516-0.44922 1.8516-0.5 0.53125-0.5 1.3164 0 2.3516 0.23438 0.36719 0.41797 0.39844 0.55078 0.10156 0.19922-0.33203 0.38281-0.48438 0.55078-0.44922 0.26562 0.10156 0.43359 0.19922 0.5 0.30078 0.03125 0.066406-0.015625 0.23438-0.14844 0.5-0.5 0.89844-0.71875 1.9336-0.64844 3.1016 0.03125 0.43359 0.23438 1.5156 0.60156 3.25 0.39844-0.76562 0.69922-1.3164 0.89844-1.6484 0.33203-0.60156 0.56641-1.1172 0.69922-1.5508 0.13281-0.33203 0.23438-0.56641 0.30078-0.69922 0.10156-0.10156 0.26562-0.10156 0.5 0 0.30078 0.13281 0.39844 0.30078 0.30078 0.5-0.03125 0.10156-0.14844 0.25-0.35156 0.44922-0.39844 0.96484-1.0508 2.3984-1.9492 4.3008-0.53516 1.6328-0.5 3.1836 0.10156 4.6484 0.63281-1.2656 1.1484-2.1992 1.5508-2.8008 0.33594-0.39844 0.51562-0.60156 0.55078-0.60156 0.19922-0.23437 0.41797-0.26562 0.64844-0.10156 0.23438 0.19922 0.28125 0.43359 0.14844 0.69922l-0.55078 0.60156c-1.1992 1.4648-1.9844 2.9336-2.3516 4.3984-0.36719 1.4336-0.36719 2.9844 0 4.6484 1.4688-2.6016 2.2656-4.0312 2.3984-4.3008 0.10156-0.33203 0.19922-0.58203 0.30078-0.75 0.13281-0.23438 0.33203-0.26562 0.60156-0.10156 0.33594 0.13281 0.44922 0.33203 0.35156 0.60156-0.035156 0.16797-0.16797 0.39844-0.39844 0.69922-0.066406 0.13281-0.23437 0.35156-0.5 0.64844-0.33203 0.86719-1 2.0508-2 3.5508-0.73437 1.4336-0.89844 2.7812-0.5 4.0508 0.56641-1.0664 1-1.8516 1.3008-2.3516 0.56641-0.89844 1.1992-1.5508 1.8984-1.9492-0.16797 0.53125-0.51562 1.2148-1.0508 2.0508-0.53516 0.86719-0.86719 1.5156-1 1.9492-0.035156 0.16797-0.10156 0.33203-0.19922 0.5-0.03125 0.19922-0.03125 0.36719 0 0.5 0.13281 0.16797 0.28125 0.25 0.44922 0.25 0.10156 0 0.31641-0.035156 0.64844-0.10156 1.6328-0.16797 2.7344-0.98438 3.3008-2.4492 0.10156-0.46484 0.21875-0.81641 0.35156-1.0508 0.16406-0.36719 0.48438-0.41797 0.94922-0.14844 0.19922 0.13281 0.18359 0.36719-0.050781 0.69922-0.10156 0.23438-0.31641 0.53516-0.64844 0.89844-0.066406 0.19922-0.21875 0.46484-0.44922 0.80078-0.19922 0.36719-0.13281 0.64844 0.19922 0.85156 0.30078 0.23438 0.58203 0.23438 0.85156 0 0.13281-0.16797 0.35156-0.44922 0.64844-0.85156 0.36719-0.66797 0.68359-1.168 0.94922-1.5 0.43359-0.56641 1-0.93359 1.6992-1.1016-0.19922 0.39844-0.53125 0.93359-1 1.6016-0.43359 0.60156-0.68359 1.082-0.75 1.4492 0.96875 0.53125 1.7852 0.36719 2.4492-0.5 0.96875-1.1992 1.6016-1.8516 1.8984-1.9492 0 0.36719-0.18359 0.80078-0.55078 1.3008-0.30078 0.43359-0.44922 0.78516-0.44922 1.0508 0.66406 0.33203 1.2656 0.25 1.8008-0.25 0.80078-0.76562 1.25-1.168 1.3516-1.1992 0 0.46875-0.015625 0.69922-0.050781 0.69922-0.19922 0.30078-0.23438 0.5-0.10156 0.60156 0.066406 0.03125 0.23438 0.050781 0.5 0.050781 0.5 0 0.71875-0.19922 0.64844-0.60156-0.23437-1.168-0.46484-3.3672-0.69922-6.6016-0.10156-1.332-0.35156-3.7344-0.75-7.1992-0.36719-3-0.58594-5.3984-0.64844-7.1992-0.10156-1.5 0.64844-3 2.25-4.5 1.832-1.7344 3.4844-3.9844 4.9492-6.75-1.0664-0.13281-1.8516-0.28125-2.3516-0.44922-0.69922-0.33203-1.1836-0.89844-1.4492-1.6992-0.16797-0.36719-0.36719-0.41797-0.60156-0.14844-0.89844 0.69922-1.7656 0.61719-2.6016-0.25-0.16797-0.16797-0.44922-0.21875-0.85156-0.14844-0.53125 0.10156-0.83203 0.14844-0.89844 0.14844-0.10156 0-0.14844 0.11719-0.14844 0.35156-0.03125 0.19922-0.03125 0.35156 0 0.44922 0.30078 0.53516 0.44922 1.168 0.44922 1.8984 0 0.36719-0.066406 1-0.19922 1.8984-0.066406 0.5-0.14844 1.3516-0.25 2.5508-0.23438 0.96875-0.69922 1.75-1.3984 2.3516-0.035156-0.76562 0.015625-1.3828 0.14844-1.8516 0.26562-1.3008 0.43359-2.2344 0.5-2.8008 0.066407-1.1016-0.03125-2.0664-0.30078-2.8984-0.26562-0.86719-0.73438-1.75-1.3984-2.6484-0.80078-1.0312-1.4141-1.8008-1.8516-2.3008-0.36719-0.43359-0.88281-0.69922-1.5508-0.80078-0.33594-0.066407-0.94922-0.10156-1.8516-0.10156-1.2344-0.10156-2.1172-0.51562-2.6484-1.25 0.43359-0.10156 0.71875-0.13281 0.85156-0.10156 3.8359 0.66797 7.8672 0.41797 12.102-0.75 1.1992-0.30078 2.1328-0.88281 2.8008-1.75 0.66406-0.86719 0.96875-1.8984 0.89844-3.1016 0-0.26562-0.015624-0.44922-0.050781-0.55078-0.066406-0.13281-0.26562-0.19922-0.60156-0.19922-0.66797 0.03125-1.4492-0.14844-2.3516-0.55078-1.4336-0.53516-2.1992-0.80078-2.3008-0.80078-0.56641-0.16797-3.3008-1.1992-8.1992-3.1016-3.3008-1.2656-6.1484-1.918-8.5508-1.9492-0.5-0.066406-0.88281-0.015625-1.1484 0.14844-0.23438 0.13281-0.48438 0.43359-0.75 0.89844-0.69531 1.6055-1.3789 3.6719-2.0469 6.207zm10-16.602c-0.93359 1.9336-1.5 3.1328-1.6992 3.6016-0.56641 1.332-0.88281 2.6016-0.94922 3.8008 0 0.36719 0.066406 0.63281 0.19922 0.80078 0.13281 0.066406 0.38281 0.18359 0.75 0.35156 2.5664 0.80078 6.3828 2.1016 11.449 3.8984 0.66797 0.36719 1.168 0.61719 1.5 0.75 0.60156 0.30078 1.0859 0.41797 1.4492 0.35156 0.36719-0.10156 0.66797-0.44922 0.89844-1.0508 0.33203-0.83203 0.55078-1.332 0.64844-1.5l0.10156-0.10156c0.76562-1.3672 1.0156-2.5312 0.75-3.5-0.19922-1-0.94922-1.9648-2.25-2.8984-0.46875-0.33203-1.1484-0.69922-2.0508-1.1016-1.0352-0.43359-1.7188-0.76562-2.0508-1-0.19922 1.168-0.63281 2.4336-1.3008 3.8008-0.30078 0.80078-0.86719 1.9844-1.6992 3.5508-0.19922-0.63281-0.18359-1.3164 0.050782-2.0508 0.36719-0.83203 0.60156-1.4688 0.69922-1.8984 0.33594-0.83203 0.55078-1.4336 0.64844-1.8008 0.13281-0.73438 0.10156-1.332-0.10156-1.8008-0.23438-0.56641-1.2344-1.168-3-1.8008-1.6992-0.69922-2.8516-0.94922-3.4492-0.75-0.29297 0.066406-0.49219 0.17969-0.59375 0.34766zm-20.801 18.551c-0.66406 0.066407-0.91406 0.38281-0.75 0.94922 0.26562 0.96875 0.39844 2.1484 0.39844 3.5508-0.03125 0.76562-0.10156 1.9492-0.19922 3.5508 0 0.60156 0.066406 1 0.19922 1.1992 0.16406 0.43359 0.53125 0.71875 1.1016 0.85156 0.60156 0.13281 1.3164 0.35156 2.1484 0.64844l2.25 0.69922c0.30078-2.3984 0.43359-4.5664 0.39844-6.5-0.03125-1.6992-0.53125-2.9844-1.5-3.8516-0.99609-0.89844-2.3477-1.2656-4.0469-1.0977zm-7.0977-0.90234c-0.46875 0.33203-0.78125 0.83203-0.94922 1.5-0.26562 0.89844-0.63281 2.7188-1.1016 5.4492-0.035156 0.33203-0.035156 0.56641 0 0.69922 0.03125 0.16797 0.23438 0.25 0.60156 0.25 0.96875 0.066406 2.1328 0.33203 3.5 0.80078 1.5664 0.63281 2.7656 1.082 3.6016 1.3516-0.03125-0.39844-0.050781-1.7188-0.050781-3.9492 0-1.6016-0.10156-2.8828-0.30078-3.8516-0.13281-0.76563-0.5-1.3828-1.1016-1.8516-0.63281-0.5-1.418-0.78125-2.3516-0.85156-0.69922-0.09375-1.3164 0.054688-1.8477 0.45313z" fill-rule="evenodd"/>
</g><g id="SvgjsG4331" featurekey="XAPJzK-0" transform="matrix(2.5377503086884966,0,0,2.5377503086884966,81.60715076479286,12.01)" fill="#000000"><path d="M1.4 5.5600000000000005 q0.92 -0.08 1.86 -0.13 t1.92 -0.05 t2.01 0.2 t1.86 0.75 t1.35 1.53 t0.52 2.54 t-0.52 2.53 t-1.34 1.53 t-1.83 0.76 t-1.99 0.2 l-0.48 -0.02 q-0.24 0 -0.44 -0.02 l0 4.62 q-0.38 0.06 -0.74 0.08 t-0.69 0.02 t-0.71 -0.02 t-0.78 -0.08 l0 -14.44 z M4.32 12.96 q0.24 0.04 0.46 0.04 l0.5 0 q0.5 0 0.98 -0.13 t0.85 -0.43 t0.59 -0.79 t0.22 -1.22 t-0.22 -1.24 t-0.59 -0.82 t-0.85 -0.44 t-0.98 -0.13 l-0.4 0 q-0.2 0.02 -0.56 0.06 l0 5.1 z M18.257 20.24 q-1.26 0 -2.19 -0.41 t-1.54 -1.14 t-0.92 -1.71 t-0.31 -2.12 t0.31 -2.14 t0.92 -1.73 t1.54 -1.15 t2.19 -0.42 t2.2 0.42 t1.56 1.15 t0.92 1.73 t0.3 2.14 t-0.3 2.12 t-0.92 1.71 t-1.56 1.14 t-2.2 0.41 z M18.257 18.08 q1.12 0 1.61 -0.83 t0.49 -2.39 t-0.49 -2.39 t-1.6 -0.83 t-1.6 0.83 t-0.49 2.39 t0.49 2.39 t1.59 0.83 z M26.214 5.380000000000001 q0.72 -0.12 1.41 -0.12 t1.41 0.12 l0 10.5 q0 0.62 0.07 1 t0.22 0.59 t0.39 0.29 t0.6 0.08 q0.16 0 0.35 -0.02 t0.37 -0.06 q0.22 0.82 0.22 1.6 l0 0.28 l-0.04 0.3 q-0.32 0.1 -0.77 0.14 t-0.83 0.04 q-1.54 0 -2.47 -0.85 t-0.93 -2.77 l0 -11.12 z M34.151 11.82 l-1.34 0 q-0.06 -0.26 -0.09 -0.55 t-0.03 -0.55 q0 -0.54 0.12 -1.06 l4.12 0 l0 10.34 q-0.72 0.12 -1.39 0.12 t-1.39 -0.12 l0 -8.18 z M33.731 7.92 q-0.12 -0.68 -0.12 -1.33 t0.12 -1.35 q0.34 -0.06 0.73 -0.09 t0.72 -0.03 t0.73 0.03 t0.74 0.09 q0.06 0.34 0.08 0.67 t0.02 0.66 t-0.02 0.67 t-0.08 0.68 q-0.34 0.06 -0.73 0.08 t-0.72 0.02 t-0.73 -0.02 t-0.74 -0.08 z M41.228 11.82 l-1.64 0 q-0.06 -0.32 -0.08 -0.58 t-0.02 -0.53 t0.02 -0.51 t0.08 -0.54 l1.64 0 l0 -0.5 q0 -0.96 0.29 -1.71 t0.83 -1.26 t1.29 -0.78 t1.65 -0.27 q0.6 0 1.01 0.05 t0.89 0.19 q-0.04 0.66 -0.13 1.19 t-0.29 1.05 l-0.46 -0.1 q-0.24 -0.04 -0.64 -0.04 q-0.7 0 -1.14 0.33 t-0.48 1.41 l0 0.44 l2.4 0 q0.06 0.32 0.08 0.58 t0.02 0.53 t-0.02 0.51 t-0.08 0.54 l-2.4 0 l0 8.18 q-0.72 0.12 -1.41 0.12 t-1.41 -0.12 l0 -8.18 z M54.44500000000001 15.26 q-0.24 -0.04 -0.52 -0.07 t-0.5 -0.03 q-0.98 0 -1.55 0.35 t-0.57 1.13 q0 0.52 0.22 0.8 t0.53 0.41 t0.66 0.16 t0.63 0.03 t0.58 -0.06 l0.52 -0.08 l0 -2.64 z M54.44500000000001 13.2 q0 -0.48 -0.16 -0.78 t-0.44 -0.47 t-0.69 -0.23 t-0.91 -0.06 q-1.08 0 -2.3 0.42 q-0.28 -0.52 -0.42 -0.98 t-0.14 -1.1 q0.88 -0.3 1.76 -0.44 t1.64 -0.14 q2.08 0 3.25 1 t1.17 3.2 l0 6 q-0.7 0.22 -1.7 0.42 t-2.26 0.2 q-1.02 0 -1.87 -0.18 t-1.46 -0.6 t-0.94 -1.08 t-0.33 -1.62 t0.41 -1.61 t1.06 -1.04 t1.45 -0.56 t1.6 -0.17 q0.58 0 1.28 0.06 l0 -0.24 z M67.482 17.56 q0.24 0.4 0.4 0.93 t0.16 1.25 q-0.8 0.32 -1.5 0.41 t-1.46 0.09 q-1.3 0 -2.26 -0.41 t-1.59 -1.13 t-0.95 -1.71 t-0.32 -2.14 t0.31 -2.13 t0.94 -1.72 t1.57 -1.16 t2.18 -0.42 q0.44 0 0.81 0.02 t0.71 0.08 t0.68 0.16 t0.76 0.26 q0 0.46 -0.12 1.03 t-0.38 1.09 q-0.6 -0.2 -1.05 -0.27 t-1.03 -0.07 q-1.24 0 -1.87 0.81 t-0.63 2.31 q0 1.62 0.68 2.36 t1.84 0.74 l0.56 -0.02 q0.24 0 0.48 -0.04 t0.5 -0.12 z M71.13900000000001 11.82 l-1.3 0 l-0.1 -0.4 l3.74 -4.78 l0.46 0 l0 3.02 l2.42 0 q0.06 0.3 0.08 0.54 t0.02 0.51 t-0.02 0.53 t-0.08 0.58 l-2.42 0 l0 4.06 q0 0.62 0.1 1 t0.29 0.6 t0.47 0.3 t0.66 0.08 q0.3 0 0.6 -0.06 l0.5 -0.08 q0.14 0.38 0.2 0.79 t0.06 0.73 l0 0.36 l-0.04 0.3 q-0.92 0.22 -1.9 0.22 q-1.82 0 -2.78 -0.85 t-0.96 -2.77 l0 -4.68 z M83.71600000000001 20.24 q-1.26 0 -2.19 -0.41 t-1.54 -1.14 t-0.92 -1.71 t-0.31 -2.12 t0.31 -2.14 t0.92 -1.73 t1.54 -1.15 t2.19 -0.42 t2.2 0.42 t1.56 1.15 t0.92 1.73 t0.3 2.14 t-0.3 2.12 t-0.92 1.71 t-1.56 1.14 t-2.2 0.41 z M83.71600000000001 18.08 q1.12 0 1.61 -0.83 t0.49 -2.39 t-0.49 -2.39 t-1.6 -0.83 t-1.6 0.83 t-0.49 2.39 t0.49 2.39 t1.59 0.83 z"/></g></svg>