<svg xmlns="http://www.w3.org/2000/svg" xmlns:xlink="http://www.w3.org/1999/xlink" version="1.1" x="0px" y="0px" viewBox="0 0 100 125" enable-background="new 0 0 100 100" xml:space="preserve"><path fill-rule="evenodd" clip-rule="evenodd" d="M85.747,23.897c2.899,0.4,4.75,0.95,5.55,1.65c0.9,0.767,1.634,2.467,2.2,5.1  c1.066,5.133,1.566,10.2,1.5,15.2c-0.101,1.867-0.8,3.35-2.101,4.45c-0.933,0.767-2,1.917-3.199,3.45  c-1.533,1.8-2.567,2.983-3.101,3.55c-1.8,1.767-2.7,4.2-2.7,7.3c0.067,4,0.051,7.017-0.05,9.05c-0.166,3.333-0.566,6.333-1.2,9  c-0.166,0.333-0.216,0.567-0.149,0.7l0.5,1.15c0.267,0.4,0.25,0.783-0.05,1.15c-0.567,0.5-1.617,0.8-3.15,0.9l-8.7,0.3  c-0.933,0-1.55,0.05-1.85,0.15c-0.7-0.2-1.384-0.35-2.05-0.45c-0.101-1.066-0.117-2.233-0.051-3.5c0.101-2.433,0.067-4.1-0.1-5  c-0.033-0.467-0.033-1.566,0-3.3c0.066-1.367-0.033-2.5-0.3-3.4c-0.2-0.5-0.167-1.3,0.1-2.4c0.101-0.633,0.3-1.55,0.601-2.75  c0.399-2.066,0.066-4.05-1-5.95c-0.5-0.8-1.2-2.067-2.101-3.8c-0.866-1.5-1.767-2.733-2.7-3.7c-0.699,1.066-1.25,2.367-1.649,3.9  c-0.367,1.767-0.617,3.067-0.75,3.9c-0.5,2.533-0.8,5.85-0.9,9.95c-0.1,5.533-0.217,8.85-0.35,9.95  c-0.033,2.233-0.083,3.934-0.15,5.1c0,1-0.05,1.934-0.149,2.8c-0.301,0-0.65,0.033-1.051,0.1c-0.566,0.133-1.149,0.2-1.75,0.2  c-0.333,0-0.633,0.05-0.899,0.15c-0.2-0.033-0.384-0.05-0.55-0.05c-0.2,0-1.517,0.15-3.95,0.45c-1.3,0.167-3.351,0.25-6.15,0.25  c-2.666-0.066-4.717,0-6.149,0.2c-1.4,0.2-2.101-0.483-2.101-2.05c0.101-3.633,0.067-8.017-0.1-13.15  c-0.033-2.367,0.05-5.367,0.25-9c0.333-5.466,0.5-8.517,0.5-9.15c-0.5-0.233-0.967-0.017-1.4,0.65  c-1.433,2.733-2.383,4.784-2.85,6.15c-0.7,2.267-0.851,4.533-0.45,6.8c0.4,2.2,0.6,4.867,0.6,8c-0.033,3.533-0.033,6.183,0,7.95  c0,1.633-0.699,2.1-2.1,1.4c-0.667-0.367-1.533-0.533-2.6-0.5c-0.667,0-1.601,0.033-2.801,0.1c-5-0.1-8.017-0.2-9.05-0.3  c-1-0.066-1.649-0.267-1.95-0.6c-0.199-0.3-0.3-1.017-0.3-2.15l-0.3-14.05c-0.066-0.333-0.017-0.934,0.15-1.8  c0-0.3-0.084-0.55-0.25-0.75c0.066-0.433,0.066-0.9,0-1.4c-0.033-0.767-0.15-1.45-0.351-2.05c0.033-0.4,0.05-0.833,0.05-1.3  c0.067-1.767,0.167-2.867,0.301-3.3c0.767-2.6,0.533-4.967-0.7-7.1c-0.733-1.4-2.3-3.083-4.7-5.05c-1.167-0.934-1.767-2.05-1.8-3.35  c-0.066-1.833-0.15-4.6-0.25-8.3c0.066-3.233,0.366-6.017,0.899-8.35c0.634-2.233,1.5-3.767,2.601-4.6  c1.167-0.967,2.883-1.383,5.149-1.25c1.733,0.1,4.2,0,7.4-0.3c3.4-0.3,5.884-0.417,7.45-0.35c1.767,0.1,2.517-0.717,2.25-2.45  l-0.05-0.75c-0.067-2.133,0.149-3.5,0.649-4.1c0.533-0.667,1.834-1.2,3.9-1.6l6.35-1.15c1.067-0.2,1.783-0.167,2.15,0.1  c0.7,0.5,1.583,0.85,2.649,1.05c1.268,0.133,2.233,0.267,2.9,0.4c1.7,0.2,2.983,0.4,3.85,0.6c1.434,0.333,2.634,0.966,3.601,1.9  c0.3,0.3,0.85,0.517,1.649,0.65c1.134,0.167,1.817,0.3,2.051,0.4c1.066,0.2,1.85,0.434,2.35,0.7c0.867,0.333,1.384,0.983,1.55,1.95  c0.033,0.367,0.233,0.65,0.601,0.85c0.433,0.2,0.783,0.35,1.05,0.45c1.366,0.467,2.149,1,2.35,1.6c0.4,1.2,1.084,1.9,2.05,2.1  c0.268,0.067,1.284,0.067,3.051,0C77.08,23.063,81.181,23.297,85.747,23.897z M70.396,25.097c-0.5,0.466-0.85,2.033-1.05,4.7v2.15  c0,0.3,0.101,0.45,0.3,0.45c0.4-0.033,0.7-0.417,0.9-1.15c0.267-0.633,0.667-0.9,1.2-0.8c0.434,0.434,0.55,1,0.35,1.7  c-0.433,1.367,0.033,2.083,1.4,2.15c0.066,0,0.783,0.15,2.149,0.45c1.2,0.3,1.801-0.184,1.801-1.45v-3.65  c0.066-0.333,0.217-0.6,0.449-0.8c0.334-0.267,0.7-0.35,1.101-0.25c0.767,0.167,1.017,0.617,0.75,1.35  c-0.867,2.5-0.684,4.817,0.55,6.95c0.134,0.3,0.15,1.133,0.05,2.5c-0.1,1.3-0.066,2.05,0.101,2.25c0.133,0.267,0.816,0.45,2.05,0.55  c0.533,0.034,0.95,0.05,1.25,0.05c0.566,0,1.083-0.117,1.55-0.35c-0.1-0.8-0.15-1.783-0.15-2.95c0-0.667,0.018-1.667,0.051-3  c0-2.066-0.051-3.633-0.15-4.7c-0.033-0.533,0.1-0.967,0.4-1.3c0.233-0.3,0.583-0.417,1.05-0.35c0.7,0.033,0.95,0.617,0.75,1.75  l-0.5,5.4c-0.101,1.8,0.167,3.217,0.8,4.25c0.733,0.967,1.55,1.267,2.45,0.9c1.066-0.367,1.783-0.817,2.149-1.35  c0.334-0.566,0.483-1.433,0.45-2.6c-0.2-2.833-0.416-5.017-0.649-6.55c-0.2-1.667-0.7-2.933-1.5-3.8  c-0.801-0.733-2.067-1.233-3.801-1.5l-11.55-1.15C72.464,24.647,70.896,24.697,70.396,25.097z M53.997,15.747  c-0.7-0.833-2.4-1.434-5.101-1.8l-0.649-0.1c-1.601-0.3-2.4,0.316-2.4,1.85l-0.05,7.2c0,1.267,0.6,1.983,1.8,2.15  c1.934,0.3,3.384,0.733,4.351,1.3c1.366,0.833,2.199,2.167,2.5,4c0.066-0.867,0.25-2.434,0.55-4.7c0.233-1.867,0.333-3.367,0.3-4.5  C55.197,18.414,54.764,16.614,53.997,15.747z M57.047,20.197c-0.2,3.367-0.25,5.883-0.15,7.55c0.101,1.533,0.018,2.65-0.25,3.35  c-0.399,1.066-1.199,1.8-2.399,2.2c-0.467,0.2-0.75,0.617-0.851,1.25c-0.166,0.8-0.55,1.483-1.149,2.05  c-0.367,0.3-1.017,0.667-1.95,1.1c-1.8,0.867-2.767,1.55-2.9,2.05c-0.199,0.467,0.034,1.667,0.7,3.6c0.601,1.7,0.9,2.816,0.9,3.35  c0,0.534-0.25,1.517-0.75,2.95l-1.7-5.25c-0.7-1.833-1.25-2.9-1.65-3.2c-0.466-0.3-1.666-0.45-3.6-0.45  c-1.366-0.033-2.1-0.083-2.2-0.15c-0.8-0.133-1.35-0.617-1.649-1.45c0.3-0.3,0.533-0.467,0.699-0.5c0.934-0.1,1.534-0.133,1.801-0.1  c1.833,0.4,3.733,0.117,5.699-0.85c2.167-1.3,3.817-2.25,4.95-2.85c0.5-0.2,0.851-0.684,1.05-1.45  c0.567-1.867,0.417-3.417-0.449-4.65c-0.867-1.167-2.283-1.8-4.25-1.9c-1.733-0.1-4.101,0.033-7.101,0.4  c-3.333,0.333-5.683,0.5-7.05,0.5c-0.767,0-1.8,0.333-3.1,1c-1.167,0.4-1.834,1.316-2,2.75l-0.601,7.3  c-0.233,2.567,0.684,4.684,2.75,6.35c2.134,1.967,3.783,3.383,4.95,4.25c2.467,1.733,3.4,4.25,2.8,7.55  c-0.3,1.9-0.483,3.317-0.55,4.25c-0.1,1.667,0.083,3.2,0.55,4.6c0.101-0.133,0.533-0.566,1.3-1.3c0.5-0.4,0.717-0.867,0.65-1.4  c-0.033-0.467-0.033-0.784,0-0.95c0.1-0.2,0.367-0.267,0.8-0.2c0.4,0,0.717,0.117,0.95,0.35c0.467,0.533,0.417,1.067-0.15,1.6  c-0.866,1.033-1.699,1.917-2.5,2.65c-0.966,0.767-1.517,1.717-1.649,2.85c-0.167,0.833-0.05,1.933,0.35,3.3  c0.667-0.333,1.667-1.333,3-3c1.167-1.533,2.434-2.5,3.8-2.9c-3.267,4.033-5.199,6.333-5.8,6.9c-1.666,1.667-2.05,3.567-1.149,5.7  l8.449-7.6c0,0.6-0.199,1.184-0.6,1.75c-0.066,0.067-0.45,0.5-1.15,1.3l-5.1,4.7c-1,0.967-1.6,2.217-1.8,3.75  c-0.066,0.633-0.017,2.017,0.149,4.15c4-4.233,7.851-7.517,11.551-9.85c-0.834,1.167-2.334,2.733-4.5,4.7  c-2.134,1.967-3.65,3.617-4.551,4.95c2.467,0.7,4.467,0.383,6-0.95c0.601-0.433,1.301-1.083,2.101-1.95  c1.066-1.167,1.75-1.883,2.05-2.15c0.267-0.4,0.5-0.667,0.7-0.8c0.366-0.333,0.767-0.383,1.2-0.15  c-0.334,0.833-1.117,1.867-2.351,3.1c-1.267,1.267-2.066,2.25-2.399,2.95c1.967,0.2,3.25,0.2,3.85,0c0.6-0.167,1.483-0.85,2.65-2.05  l0.649-0.9c0.233-0.367,0.533-0.567,0.9-0.6c0.6-0.067,0.983-0.35,1.149-0.85c0.101-0.267,0.15-0.717,0.15-1.35  c0-3,0.15-7.483,0.45-13.45c0.2-6.9,1.184-12.45,2.95-16.65c2.033-4.966,3.883-8.966,5.55-12c0.434,1.233,0.533,2.383,0.3,3.45  c-0.2,0.633-0.6,1.467-1.2,2.5c-0.933,1.4-1.366,2.683-1.3,3.85c0,1.233,0.533,2.55,1.6,3.95c2.268,3.2,3.534,5,3.801,5.4  c1.166,2.233,1.517,4.433,1.05,6.6c0,0.067,0.1,0.25,0.3,0.55c0.2,0.1,0.55-0.033,1.05-0.4c0.467-0.3,0.95-0.267,1.45,0.1  c-1.467,1.1-2.4,2.467-2.8,4.1c-0.367,1.4-0.367,3.133,0,5.2c0.399-0.233,1.383-1.267,2.95-3.1c1.133-1.2,2.3-1.85,3.5-1.95  c-0.867,0.733-1.834,1.733-2.9,3c-0.6,0.767-1.483,1.867-2.65,3.3c-0.699,0.767-1.1,1.6-1.199,2.5  c-0.101,0.767,0.05,1.733,0.449,2.9l4.301-4.05c0.833-0.867,1.467-1.5,1.899-1.9c0.834-0.7,1.75-1.083,2.75-1.15  c-0.2,0.267-1.85,1.85-4.95,4.75c-1.966,1.867-3.433,3.583-4.399,5.15c2.2,0.967,4.133,0.55,5.8-1.25c1-1.033,1.783-1.783,2.35-2.25  c0.9-0.867,1.784-1.483,2.65-1.85c0.7-0.233,1.15-0.6,1.35-1.1c0.167-0.3,0.268-0.867,0.301-1.7l0.649-13.45  c0.134-2.967,1.134-5.184,3-6.65c1.033-0.8,2.15-1.917,3.351-3.35c1.333-1.567,2.35-2.75,3.05-3.55  c1.467-1.733,1.717-3.617,0.75-5.65c-1.733,0.733-3.2,1.167-4.4,1.3c-1.2,0.167-2.616,0.117-4.25-0.15c-1.833-0.3-3.25-0.4-4.25-0.3  c-1.467,0.267-2.767,1-3.899,2.2c-0.533,0.667-0.834,1.117-0.9,1.35c-0.1,0.3,0,0.767,0.3,1.4c0.967,2.067,1.017,4.133,0.15,6.2  c-0.3-0.3-0.5-0.733-0.601-1.3c-0.1-0.3-0.199-0.75-0.3-1.35c-0.7-3.533-2.55-5.434-5.55-5.7c-0.767-0.1-1.15-0.5-1.15-1.2  c-0.033-0.367,0.101-0.6,0.4-0.7c0.1,0,0.4,0,0.9,0l2.199,0.15c2.334,0.067,3.95-0.267,4.851-1c0.866-0.7,1.667-2.183,2.399-4.45  c0.434-1.467-0.05-2.35-1.449-2.65l-7.101-1.55c-0.433-0.1-0.75-0.017-0.95,0.25c-0.1,0.2-0.25,0.5-0.449,0.9  c-0.767,1.167-1.967,1.8-3.601,1.9c-1.6,0.167-2.633-0.367-3.1-1.6c-0.4-1.1-1.033-1.784-1.9-2.05c-0.066,0-0.899-0.066-2.5-0.2  c-0.866,0-1.267-0.317-1.2-0.95c0.301-0.5,0.75-0.717,1.351-0.65c0.7,0.1,1.233,0.15,1.6,0.15c2.067-0.167,3.184-1.2,3.351-3.1  c0.199-2.333,0.35-4.75,0.449-7.25c0-0.333-0.199-1.517-0.6-3.55c-0.233-0.8-0.7-1.367-1.4-1.7c-0.399-0.133-1.1-0.233-2.1-0.3  c-0.767,0-1.283,0.283-1.55,0.85C57.113,18.714,57.047,19.33,57.047,20.197z M64.396,21.147c0.301,6.033-0.183,10.5-1.449,13.4  c-0.334,0.833,0.017,1.434,1.05,1.8c1.533,0.4,2.383,0.017,2.55-1.15c0.2-1.167,0.5-2.933,0.9-5.3c0.3-2.033,0.399-3.833,0.3-5.4  C67.58,22.664,66.464,21.547,64.396,21.147z M56.146,84.797c-0.366,0.367-0.883,0.717-1.55,1.05c-0.467,0.367-0.75,0.833-0.85,1.4  c0.733,0.2,1.267,0.133,1.6-0.2C55.813,86.714,56.08,85.964,56.146,84.797z M80.347,83.897c0.601-0.567,0.884-2.067,0.851-4.5  c-1.667,0.967-3.601,2.717-5.801,5.25C78.13,84.647,79.78,84.397,80.347,83.897z M8.597,35.747c0.533-0.4,1.067-0.434,1.601-0.1  c0.033,0.833-0.434,1.617-1.4,2.35c-1.5,1.167-1.85,2.767-1.05,4.8c0.8,1.867,1.717,3.283,2.75,4.25c1.399,1.533,2.434,2.7,3.1,3.5  c1.467,1.934,1.767,3.7,0.9,5.3c-0.566,1.267-0.667,2.9-0.3,4.9c0.5-0.067,0.983-0.5,1.449-1.3c0.4-0.733,0.9-1.1,1.5-1.1  c0.067,1.133-0.383,2.183-1.35,3.15c-0.9,0.9-1.4,1.95-1.5,3.15c0,0.767,0.2,1.883,0.6,3.35c1.801-0.6,3.067-2.033,3.801-4.3  c1.1,0.6,1.35,1.25,0.75,1.95c-1.367,1.733-2.334,2.8-2.9,3.2c-1.1,0.867-1.75,1.85-1.95,2.95c-0.166,1.033,0.033,2.25,0.601,3.65  c0.967-0.6,2.183-1.716,3.649-3.35c1.467-1.6,2.65-2.684,3.55-3.25c-0.966,2.733-2.533,4.816-4.699,6.25  c-1.334,0.833-2.217,1.966-2.65,3.4c-0.3,0.867-0.483,2.233-0.55,4.1c0,0.667,0.2,1.05,0.6,1.15c0.467,0.2,0.851,0,1.15-0.6  c1.167-2.133,3.217-4.667,6.149-7.6c1-0.933,2.034-1.517,3.101-1.75c-0.533,0.8-2.101,2.483-4.7,5.05  c-1.866,1.933-3.083,3.716-3.65,5.35c1.768,0.667,3.367,0.617,4.801-0.15c0.8-0.467,1.866-1.517,3.199-3.15  c0.4-0.7,0.75-1.2,1.051-1.5c0.467-0.567,1.05-0.867,1.75-0.9c-0.267,1.1-0.95,2.233-2.051,3.4c-1.366,1.433-2.199,2.4-2.5,2.9  c1.167,0.4,2.2,0.25,3.101-0.45c0.899-0.967,1.633-1.633,2.2-2c0.366-0.133,0.616-0.284,0.75-0.45c0.267-0.2,0.366-0.45,0.3-0.75  c-0.3-1.367-0.417-3.333-0.351-5.9c0.034-2.733-0.05-4.733-0.25-6c-0.767-4.733,0.117-8.583,2.65-11.55  c1.066-1.566,1.884-2.767,2.45-3.6c0.667-0.9,0.667-1.633,0-2.2l-7.95-6.9c-0.633-0.5-1.15-0.467-1.55,0.1  c-0.3,0.4-0.467,0.65-0.5,0.75c-0.101,0.3-0.033,0.583,0.2,0.85c0.767,0.833,1.267,1.517,1.5,2.05c0.533,1,0.699,2.05,0.5,3.15  c-0.2,1.133-0.717,1.967-1.551,2.5c-0.133-0.1-0.199-0.267-0.199-0.5c0-0.1,0.017-0.283,0.05-0.55c0.1-2.067-0.283-3.583-1.15-4.55  c-0.899-0.967-2.366-1.417-4.399-1.35c-0.801,0-1.283-0.033-1.45-0.1c-0.7-0.3-0.767-0.784-0.2-1.45c0.233-0.3,0.783-0.5,1.65-0.6  c2.333-0.333,3.899-1.117,4.699-2.35c0.867-1.2,1.101-3,0.7-5.4c-1.3,0.267-2.95,0.317-4.95,0.15c-3.033-0.3-4.649-0.45-4.85-0.45  l-2.1-0.15c-1.033-0.1-1.601-0.45-1.7-1.05c-0.2-0.7-0.017-1.1,0.55-1.2c1-0.067,1.6-0.483,1.8-1.25  c0.167-0.434,0.267-1.167,0.3-2.2c0.167-0.9,0.117-1.85-0.149-2.85c-0.101-0.533,0.217-0.85,0.95-0.95  c0.533,0,0.85,0.283,0.949,0.85v2.9c-0.3,2.033-0.25,3.167,0.15,3.4c0.2,0.167,1.45,0.3,3.75,0.4h0.35  c1.067-0.067,1.7-0.217,1.9-0.45c0.2-0.2,0.233-0.833,0.1-1.9c-0.5-2.733-0.25-4.783,0.75-6.15c0.867,0.233,1.2,0.933,1,2.1  c-0.1,0.667-0.133,1.5-0.1,2.5c0.1,1.133,0.184,1.967,0.25,2.5c0,0.867,0.283,1.333,0.85,1.4c0.834,0,1.25-0.467,1.25-1.4  c0.067-1.9,0.334-3.383,0.801-4.45c0.633-1.467,1.767-2.566,3.399-3.3c0.5-0.233,0.8-0.684,0.9-1.35c0.066-0.6,0-1.233-0.2-1.9  c-0.267-0.667-1.033-0.883-2.3-0.65l-16.5,1.8c-1.467,0.2-2.367,0.683-2.7,1.45c-1.733,3.6-2.45,7.216-2.15,10.85  C7.363,36.364,7.931,36.214,8.597,35.747z M32.747,17.147c0.033,1.567,0.05,2.733,0.05,3.5c-0.033,1.3-0.15,2.433-0.35,3.4  c-0.2,0.867-0.15,1.417,0.149,1.65c0.3,0.333,0.9,0.434,1.8,0.3l4.351-0.5c2.633-0.2,4.149-0.55,4.55-1.05  c0.434-0.466,0.65-2.017,0.65-4.65l-0.051-4.05c-0.1-1.133-0.333-1.867-0.699-2.2c-0.334-0.333-1.067-0.5-2.2-0.5  c-1.667,0-3.566,0.25-5.7,0.75C33.597,14.264,32.747,15.38,32.747,17.147z M28.847,84.997c0.601,0,0.9-0.267,0.9-0.8  c0-0.4-0.101-0.6-0.3-0.6c-0.601,0.1-0.9,0.4-0.9,0.9L28.847,84.997z"/></svg>